<?xml version="1.0" encoding="UTF-8" standalone="no"?>
<!-- Created with Inkscape (http://www.inkscape.org/) -->

<svg
   xmlns:dc="http://purl.org/dc/elements/1.1/"
   xmlns:cc="http://creativecommons.org/ns#"
   xmlns:rdf="http://www.w3.org/1999/02/22-rdf-syntax-ns#"
   xmlns:svg="http://www.w3.org/2000/svg"
   xmlns="http://www.w3.org/2000/svg"
   xmlns:xlink="http://www.w3.org/1999/xlink"
   xmlns:sodipodi="http://sodipodi.sourceforge.net/DTD/sodipodi-0.dtd"
   xmlns:inkscape="http://www.inkscape.org/namespaces/inkscape"
   width="500"
   height="500"
   viewBox="0 0 132.29166 132.29167"
   version="1.1"
   id="svg8"
   inkscape:version="0.92.3 (2405546, 2018-03-11)"
   sodipodi:docname="bug logo.svg">
  <defs
     id="defs2">
    <linearGradient
       inkscape:collect="always"
       id="linearGradient4732">
      <stop
         style="stop-color:#cccccc;stop-opacity:1;"
         offset="0"
         id="stop4728" />
      <stop
         style="stop-color:#cccccc;stop-opacity:0;"
         offset="1"
         id="stop4730" />
    </linearGradient>
    <linearGradient
       inkscape:collect="always"
       id="linearGradient4722">
      <stop
         style="stop-color:#008080;stop-opacity:1;"
         offset="0"
         id="stop4718" />
      <stop
         style="stop-color:#008080;stop-opacity:0;"
         offset="1"
         id="stop4720" />
    </linearGradient>
    <radialGradient
       inkscape:collect="always"
       xlink:href="#linearGradient4722"
       id="radialGradient4724"
       cx="310.50745"
       cy="116.32738"
       fx="310.50745"
       fy="116.32738"
       r="32.316963"
       gradientTransform="matrix(1.2748538,0,0,1.5672514,41.844828,-71.27854)"
       gradientUnits="userSpaceOnUse" />
    <radialGradient
       inkscape:collect="always"
       xlink:href="#linearGradient4732"
       id="radialGradient4734"
       cx="347.7381"
       cy="0.75595385"
       fx="347.7381"
       fy="0.75595385"
       r="46.869045"
       gradientTransform="matrix(1.0725806,0,0,1,68.499031,-63.499998)"
       gradientUnits="userSpaceOnUse" />
  </defs>
  <sodipodi:namedview
     id="base"
     pagecolor="#ffffff"
     bordercolor="#666666"
     borderopacity="1.0"
     inkscape:pageopacity="0.0"
     inkscape:pageshadow="2"
     inkscape:zoom="0.7"
     inkscape:cx="287.57711"
     inkscape:cy="254.83437"
     inkscape:document-units="mm"
     inkscape:current-layer="layer2"
     showgrid="false"
     units="px"
     inkscape:showpageshadow="false"
     showborder="true"
     showguides="false"
     inkscape:window-width="1366"
     inkscape:window-height="705"
     inkscape:window-x="-8"
     inkscape:window-y="-8"
     inkscape:window-maximized="1" />
  <metadata
     id="metadata5">
    <rdf:RDF>
      <cc:Work
         rdf:about="">
        <dc:format>image/svg+xml</dc:format>
        <dc:type
           rdf:resource="http://purl.org/dc/dcmitype/StillImage" />
        <dc:title></dc:title>
      </cc:Work>
    </rdf:RDF>
  </metadata>
  <g
     inkscape:label="Layer 1"
     inkscape:groupmode="layer"
     id="layer1"
     transform="translate(0,-164.70833)"
     style="display:inline;opacity:1" />
  <g
     inkscape:groupmode="layer"
     id="layer2"
     inkscape:label="Layer 2"
     style="display:inline;opacity:1">
    <g
       id="g4762"
       transform="matrix(0.55993858,0,0,0.49633388,-180.98575,93.166194)">
      <path
         inkscape:connector-curvature="0"
         id="path4713"
         d="m 379.16254,54.602079 c 0,0 15.18248,-0.801461 18.3011,-1.384306 3.11852,-0.582845 12.80255,-2.768655 12.80255,-2.768655 l 7.3861,-2.112874 6.7295,-2.477195 5.90883,-2.331456 6.07309,-2.84144 3.20059,-2.18578 c 0,0 0.40979,-0.437153 1.64141,0.218584 1.23095,0.655722 8.78128,4.371576 8.78128,4.371576 l 8.86333,3.278562 7.96053,2.84155 8.78127,2.622776 9.5199,1.821458 7.79646,0.874352 9.1094,-0.145815 0.90286,23.095983 -1.06701,9.690132 -1.2309,10.273005 -2.38006,9.690144 -3.03652,10.783 -4.34946,11.07445 -5.41657,10.2002 -6.72947,9.03441 -9.51984,10.273 -13.78742,11.14727 -9.51984,5.97436 -5.99116,3.133 -7.13978,-4.08017 -11.9819,-8.16013 -8.94546,-7.65018 -9.68386,-10.85572 -6.64747,-9.69013 -7.79646,-14.93593 -5.00608,-11.94879 -3.11862,-15.227344 -1.80556,-19.234624 0.32784,-22.513137 z"
         style="display:inline;opacity:1;fill:#008080;stroke:#000000;stroke-width:1.22478116px;stroke-linecap:butt;stroke-linejoin:miter;stroke-opacity:1"
         transform="translate(0,-164.70833)" />
      <path
         inkscape:connector-curvature="0"
         id="path4708"
         d="m 439.82713,26.865945 c -0.29554,0.03058 -0.41275,0.160627 -0.41275,0.160627 l -3.68947,2.553267 -6.99873,3.322703 -6.81121,2.727193 -7.75355,2.895868 -8.51125,2.46898 c 0,0 -11.1613,2.554286 -14.75522,3.235716 -3.59395,0.681378 -21.09234,1.620508 -21.09234,1.620508 l -1.22883,-0.171326 -0.37766,26.318116 2.08028,22.486894 3.5929,17.801879 5.76986,13.96801 8.98521,17.462 7.65988,11.32768 11.1622,12.69011 10.30767,8.94567 13.81007,9.53857 8.22756,4.76939 6.90488,-3.66255 10.96906,-6.98541 15.89027,-13.02996 10.97193,-12.01013 7.75352,-10.56102 6.24386,-11.92593 5.01193,-12.94562 3.49927,-12.60571 2.74158,-11.327751 1.4191,-12.010204 1.22879,-11.327757 -1.03873,-27.000562 -10.49795,0.168776 -8.98521,-1.022398 -10.97192,-2.129031 -10.12059,-3.067092 -9.17245,-3.320102 -10.21417,-3.83388 c 0,0 -8.70196,-4.342652 -10.1206,-5.109234 -0.70931,-0.383443 -1.18198,-0.448202 -1.47751,-0.416079 z m 0.017,4.413529 c 0.27632,-0.03059 0.71743,0.03061 1.38105,0.392623 1.32652,0.722016 9.46223,4.811506 9.46223,4.811506 l 9.55298,3.609879 8.57849,3.13037 9.46522,2.887914 10.25794,2.005227 8.40306,0.96177 9.8162,-0.160611 0.97431,25.43278 -1.14976,10.669018 -1.32845,11.311952 -2.56301,10.669018 -3.27392,11.87319 -4.68733,12.19469 -5.83701,11.23025 -7.25319,9.947 -10.25805,11.312 -14.85754,12.27362 -10.26094,6.5796 -6.4573,3.44914 -7.69211,-4.49265 -12.91473,-8.98518 -9.64057,-8.42409 -10.43654,-11.9522 -7.16261,-10.66901 -8.40287,-16.44754 -5.39537,-13.1564 -3.35891,-16.766332 -1.94564,-21.179922 0.35104,-24.787197 1.15275,0.160611 c 0,0 16.36229,-0.883909 19.72313,-1.525668 3.36088,-0.641757 13.79543,-3.048633 13.79543,-3.048684 l 7.96114,-2.326668 7.25036,-2.727191 6.3695,-2.566476 6.54523,-3.127717 3.44666,-2.408353 c 0,0 0.11276,-0.120334 0.38898,-0.150416 z"
         style="display:inline;opacity:1;fill:#008080;stroke:#000000;stroke-width:1.42162251px;stroke-linecap:butt;stroke-linejoin:miter;stroke-opacity:1"
         transform="translate(0,-164.70833)" />
      <ellipse
         ry="50.648808"
         rx="41.199402"
         cy="111.03571"
         cx="437.69644"
         id="path4716"
         style="display:inline;opacity:1;fill:url(#radialGradient4724);fill-opacity:1;stroke-width:0.37075365"
         transform="translate(0,-164.70833)" />
      <ellipse
         ry="46.869053"
         rx="50.270832"
         cy="-62.744045"
         cx="441.4762"
         id="path4726"
         style="fill:url(#radialGradient4734);fill-opacity:1;stroke-width:0.28578267" />
      <g
         transform="translate(373.93503,-36.726852)"
         id="g4680">
        <g
           id="g4656">
          <rect
             y="-16.531967"
             x="31.939859"
             height="2.6819112"
             width="68.896645"
             id="rect4608"
             style="fill:#000000;stroke-width:0.06791396" />
          <g
             id="g4637">
            <path
               style="fill:#000000;stroke-width:0.08449911"
               d="M 34.474042,11.530902 V -3.1240329 h 14.03653 v -2.449885 H 32.120222 V 11.530902 Z"
               id="path4606"
               inkscape:connector-curvature="0" />
            <path
               style="fill:#000000;stroke-width:0.08449911"
               d="M 97.739769,11.530903 V -3.1240324 H 83.703242 v -2.449885 H 100.09359 V 11.530903 Z"
               id="path4602"
               inkscape:connector-curvature="0" />
            <g
               id="g4622">
              <path
                 style="fill:#000000;stroke-width:0.08449911"
                 d="m 34.474038,-43.526191 v 14.654935 h 14.03653 v 2.449885 H 32.120217 v -17.10482 z"
                 id="path4604"
                 inkscape:connector-curvature="0" />
              <path
                 inkscape:connector-curvature="0"
                 id="rect4553"
                 d="m 97.641155,-43.471827 v 14.654935 h -14.03653 v 2.449885 h 16.390347 v -17.10482 z"
                 style="fill:#000000;stroke-width:0.08449911" />
              <g
                 id="g4598">
                <g
                   id="g4575"
                   transform="translate(45.970359,-69.490077)">
                  <ellipse
                     style="stroke-width:0.31862566"
                     ry="38.55357"
                     rx="20.03274"
                     cy="48.85342"
                     cx="20.788689"
                     id="path4530" />
                  <path
                     inkscape:connector-curvature="0"
                     id="path4532"
                     d="M 37.951456,0.11270762 A 16.076487,17.064358 0 0 0 22.549334,14.202371 h 2.588284 A 13.489468,14.788261 0 0 1 37.951456,2.4131906 Z"
                     style="fill:#000000;stroke-width:0.12924333" />
                  <path
                     style="fill:#000000;stroke-width:0.12924333"
                     d="M 4.217897,0.67967191 A 16.076487,17.064358 0 0 1 19.620019,14.769335 H 17.031735 A 13.489468,14.788261 0 0 0 4.217897,2.9801549 Z"
                     id="path4544"
                     inkscape:connector-curvature="0" />
                </g>
                <g
                   id="g4589"
                   transform="matrix(1.0913219,0,0,1.0102277,-84.068808,-141.66302)">
                  <path
                     id="ellipse4570"
                     transform="scale(0.26458333)"
                     d="m 460.21484,390.18945 a 75.714291,145.71428 0 0 0 -7.83984,64.16407 75.714291,145.71428 0 0 0 70.39453,145.35156 V 390.18945 Z"
                     style="fill:#ff2a2a;stroke-width:1.20425451"
                     inkscape:connector-curvature="0" />
                  <path
                     inkscape:connector-curvature="0"
                     style="fill:#d40000;stroke-width:0.31862566"
                     d="m 154.86703,103.23762 a 20.032739,38.553569 0 0 1 2.07429,16.97675 20.032739,38.553569 0 0 1 -18.62522,38.4576 v -55.43435 z"
                     id="path4585" />
                </g>
              </g>
            </g>
          </g>
        </g>
        <ellipse
           style="fill:#ffffff;stroke-width:0.10789344"
           id="path4658"
           cx="60.57069"
           cy="-46.963539"
           rx="1.9843748"
           ry="1.9843751" />
        <ellipse
           ry="1.9843751"
           rx="1.9843748"
           cy="-46.963539"
           cx="71.720985"
           id="ellipse4660"
           style="fill:#ffffff;stroke-width:0.10789344" />
      </g>
    </g>
  </g>
</svg>
