<?xml version="1.0" standalone="no"?>
<!DOCTYPE svg PUBLIC "-//W3C//DTD SVG 20010904//EN"
 "http://www.w3.org/TR/2001/REC-SVG-20010904/DTD/svg10.dtd">
<svg version="1.0" xmlns="http://www.w3.org/2000/svg"
 width="166.000000pt" height="175.000000pt" viewBox="0 0 166.000000 175.000000"
 preserveAspectRatio="xMidYMid meet">

<g transform="translate(0.000000,175.000000) scale(0.100000,-0.100000)"
fill="#000000" stroke="none">
<path d="M584 1736 c-10 -26 4 -48 28 -44 17 2 23 10 23 28 0 18 -6 26 -23 28
-13 2 -25 -3 -28 -12z"/>
<path d="M1054 1736 c-10 -26 4 -48 28 -44 17 2 23 10 23 28 0 18 -6 26 -23
28 -13 2 -25 -3 -28 -12z"/>
<path d="M590 1601 c0 -49 1 -50 50 -78 37 -21 50 -34 50 -50 0 -16 6 -23 20
-23 16 0 20 7 20 30 0 25 -8 35 -50 61 -46 28 -50 34 -50 70 0 32 -3 39 -20
39 -17 0 -20 -7 -20 -49z"/>
<path d="M1060 1611 c0 -36 -4 -42 -50 -70 -42 -26 -50 -36 -50 -61 0 -23 4
-30 20 -30 14 0 20 7 20 23 0 16 13 29 50 50 49 28 50 29 50 78 0 42 -3 49
-20 49 -17 0 -20 -7 -20 -39z"/>
<path d="M774 1445 c-14 -35 -15 -35 -78 -35 -56 0 -69 -4 -124 -40 -42 -27
-62 -46 -62 -59 0 -19 8 -21 123 -23 l122 -3 3 -32 3 -33 84 0 84 0 3 33 3 32
123 3 c113 2 122 4 122 22 0 12 -21 34 -59 60 -55 37 -65 40 -125 40 -66 0
-66 0 -80 35 -15 34 -16 35 -71 35 -55 0 -56 -1 -71 -35z"/>
<path d="M517 1213 c-4 -3 -7 -128 -7 -277 l0 -270 38 37 c21 20 42 37 47 37
6 0 53 -57 105 -125 52 -69 96 -125 97 -125 2 0 3 144 3 320 l0 320 -27 0
c-34 1 -83 42 -83 70 0 19 -6 20 -83 20 -46 0 -87 -3 -90 -7z m223 -163 l0
-40 -85 0 -85 0 0 40 0 40 85 0 85 0 0 -40z"/>
<path d="M1007 1214 c-4 -4 -7 -15 -7 -24 0 -22 -53 -60 -85 -60 l-25 0 0
-320 c0 -176 1 -320 3 -320 1 0 45 56 97 125 52 68 99 125 105 125 5 0 26 -17
47 -37 l38 -37 -2 274 -3 275 -80 3 c-45 1 -84 0 -88 -4z m113 -349 l0 -35
-85 0 -85 0 0 35 0 35 85 0 85 0 0 -35z"/>
<path d="M375 1134 c-44 -30 -84 -59 -89 -64 -5 -5 11 -42 39 -90 l48 -82 24
25 25 24 -26 51 -26 51 50 42 c38 32 50 49 50 71 0 15 -3 28 -7 28 -5 0 -44
-25 -88 -56z"/>
<path d="M1220 1163 c0 -23 11 -39 50 -72 l50 -42 -26 -51 -26 -51 25 -24 24
-25 47 80 c25 43 46 81 46 85 0 6 -154 115 -175 123 -11 5 -15 -1 -15 -23z"/>
<path d="M342 791 l-102 -109 66 -139 67 -138 19 74 19 74 -46 69 -46 69 40
48 c62 74 64 75 87 38 l19 -32 3 52 c2 30 -3 63 -10 78 l-14 26 -102 -110z"/>
<path d="M1231 871 c-7 -15 -11 -50 -9 -77 l3 -49 19 32 c23 37 25 36 87 -38
l40 -48 -46 -69 -46 -69 19 -74 19 -74 67 138 66 139 -101 109 c-56 60 -103
109 -104 109 -1 0 -8 -13 -14 -29z"/>
<path d="M90 215 c0 -117 12 -135 90 -135 63 0 90 23 90 78 0 58 -22 82 -76
82 -37 0 -44 -3 -44 -20 0 -17 7 -20 41 -20 l40 0 -3 -37 c-3 -38 -3 -38 -50
-41 l-48 -3 0 95 c0 89 -1 96 -20 96 -19 0 -20 -7 -20 -95z"/>
<path d="M300 186 c0 -76 20 -98 93 -104 78 -6 87 3 87 89 0 62 -2 69 -20 69
-18 0 -20 -7 -20 -61 l0 -60 -47 3 -48 3 -3 58 c-3 49 -6 57 -22 57 -17 0 -20
-7 -20 -54z"/>
<path d="M526 224 c-10 -10 -16 -33 -16 -64 0 -58 23 -80 82 -80 31 0 38 4 38
20 0 17 -7 20 -40 20 l-40 0 0 40 0 40 50 0 51 0 -3 -72 -3 -73 -43 -3 c-34
-3 -43 -7 -40 -20 3 -13 14 -17 45 -16 66 1 73 13 73 115 0 77 -2 90 -19 99
-31 16 -117 12 -135 -6z"/>
<path d="M890 220 c0 -17 7 -20 42 -20 l42 0 -43 -44 c-60 -61 -53 -76 39 -76
63 0 70 2 70 20 0 17 -7 20 -47 20 l-47 0 47 48 c26 26 47 53 47 60 0 8 -23
12 -75 12 -68 0 -75 -2 -75 -20z"/>
<path d="M1086 224 c-10 -10 -16 -33 -16 -64 0 -58 23 -80 82 -80 31 0 38 4
38 20 0 17 -7 20 -40 20 -35 0 -40 3 -46 27 -4 14 -2 33 3 42 11 18 71 26 92
12 23 -15 2 -31 -40 -31 -28 0 -39 -4 -39 -15 0 -19 90 -21 108 -3 19 19 15
66 -7 78 -31 16 -117 12 -135 -6z"/>
<path d="M1286 218 c-10 -14 -16 -44 -16 -80 0 -51 2 -58 20 -58 18 0 20 7 20
60 l0 60 50 0 c43 0 50 3 50 20 0 18 -7 20 -54 20 -45 0 -58 -4 -70 -22z"/>
<path d="M1446 224 c-10 -10 -16 -33 -16 -64 0 -42 4 -52 25 -66 30 -20 122
-15 136 7 13 21 11 113 -3 127 -18 18 -123 15 -142 -4z m122 -61 c-3 -38 -3
-38 -50 -41 l-48 -3 0 40 0 41 51 0 50 0 -3 -37z"/>
<path d="M720 185 c0 -12 14 -15 70 -15 56 0 70 3 70 15 0 12 -14 15 -70 15
-56 0 -70 -3 -70 -15z"/>
</g>
</svg>
