<?xml version="1.0" encoding="UTF-8" standalone="no" ?>
<!DOCTYPE svg PUBLIC "-//W3C//DTD SVG 1.1//EN" "http://www.w3.org/Graphics/SVG/1.1/DTD/svg11.dtd">
<svg xmlns="http://www.w3.org/2000/svg" xmlns:xlink="http://www.w3.org/1999/xlink" version="1.1" width="408.00270000000006" height="353.08423999999997" xml:space="preserve">
<desc>Created with Fabric.js 1.6.0-rc.1</desc>
<defs></defs>
  <g transform="translate(11.04 289.85) scale(2.07 2.07)">
   <text font-family="Youthanasia" font-size="40" font-weight="normal" style="stroke: none; stroke-width: 1; stroke-dasharray: none; stroke-linecap: butt; stroke-linejoin: miter; stroke-miterlimit: 10; fill: #dba372; fill-rule: nonzero; opacity: 1;" ><tspan x="0" y="8.98" fill="#dba372"></tspan></text>
 </g>
<g style="stroke: none; stroke-width: 1; stroke-dasharray: none; stroke-linecap: butt; stroke-linejoin: miter; stroke-miterlimit: 10; fill: none; fill-rule: nonzero; opacity: 1;" transform="translate(179.43000000000006 9.999999999999993) rotate(90.15) scale(0.36 0.36)" >
  <path d="M 32.624 260.465 c -3.069 0 -5.558 -2.489 -5.558 -5.558 c 0 -3.069 2.488 -5.558 5.558 -5.558 c 6.963 0 12.627 -5.666 12.627 -12.627 c 0 -3.068 2.488 -5.558 5.558 -5.558 c 3.069 0 5.558 2.489 5.558 5.558 C 56.366 249.813 45.715 260.465 32.624 260.465 z" style="stroke: none; stroke-width: 1; stroke-dasharray: none; stroke-linecap: butt; stroke-linejoin: miter; stroke-miterlimit: 10; fill: #5C6670; fill-rule: nonzero; opacity: 1;" transform=" matrix(1 0 0 1 0 0) " stroke-linecap="round" />
  <path d="M 50.809 240.584 c -5.372 0 -9.726 -4.354 -9.726 -9.726 c 0 -30.145 24.525 -54.67 54.67 -54.67 c 5.371 0 9.725 4.355 9.725 9.727 c 0 5.371 -4.354 9.727 -9.725 9.727 c -19.419 0 -35.217 15.797 -35.217 35.217 C 60.535 236.23 56.181 240.584 50.809 240.584 z" style="stroke: none; stroke-width: 1; stroke-dasharray: none; stroke-linecap: butt; stroke-linejoin: miter; stroke-miterlimit: 10; fill: #333E48; fill-rule: nonzero; opacity: 1;" transform=" matrix(1 0 0 1 0 0) " stroke-linecap="round" />
  <path d="M 32.624 342.463 c -3.069 0 -5.558 -2.489 -5.558 -5.558 s 2.488 -5.558 5.558 -5.558 c 6.963 0 12.627 -5.666 12.627 -12.627 c 0 -3.068 2.488 -5.558 5.558 -5.558 c 3.069 0 5.558 2.489 5.558 5.558 C 56.366 331.811 45.715 342.463 32.624 342.463 z" style="stroke: none; stroke-width: 1; stroke-dasharray: none; stroke-linecap: butt; stroke-linejoin: miter; stroke-miterlimit: 10; fill: #5C6670; fill-rule: nonzero; opacity: 1;" transform=" matrix(1 0 0 1 0 0) " stroke-linecap="round" />
  <path d="M 50.809 322.582 c -5.372 0 -9.726 -4.354 -9.726 -9.725 c 0 -30.146 24.525 -54.67 54.67 -54.67 c 5.371 0 9.725 4.355 9.725 9.727 c 0 5.371 -4.354 9.727 -9.725 9.727 c -19.419 0 -35.217 15.797 -35.217 35.217 C 60.535 318.228 56.181 322.582 50.809 322.582 z" style="stroke: none; stroke-width: 1; stroke-dasharray: none; stroke-linecap: butt; stroke-linejoin: miter; stroke-miterlimit: 10; fill: #333E48; fill-rule: nonzero; opacity: 1;" transform=" matrix(1 0 0 1 0 0) " stroke-linecap="round" />
  <path d="M 323.669 260.465 c 3.069 0 5.558 -2.489 5.558 -5.558 c 0 -3.069 -2.488 -5.558 -5.558 -5.558 c -6.963 0 -12.627 -5.666 -12.627 -12.627 c 0 -3.068 -2.488 -5.558 -5.558 -5.558 s -5.558 2.489 -5.558 5.558 C 299.927 249.813 310.578 260.465 323.669 260.465 z" style="stroke: none; stroke-width: 1; stroke-dasharray: none; stroke-linecap: butt; stroke-linejoin: miter; stroke-miterlimit: 10; fill: #5C6670; fill-rule: nonzero; opacity: 1;" transform=" matrix(1 0 0 1 0 0) " stroke-linecap="round" />
  <path d="M 305.484 240.584 c 5.372 0 9.726 -4.354 9.726 -9.726 c 0 -30.145 -24.525 -54.67 -54.67 -54.67 c -5.371 0 -9.725 4.355 -9.725 9.727 c 0 5.371 4.354 9.727 9.725 9.727 c 19.419 0 35.217 15.797 35.217 35.217 C 295.758 236.23 300.112 240.584 305.484 240.584 z" style="stroke: none; stroke-width: 1; stroke-dasharray: none; stroke-linecap: butt; stroke-linejoin: miter; stroke-miterlimit: 10; fill: #333E48; fill-rule: nonzero; opacity: 1;" transform=" matrix(1 0 0 1 0 0) " stroke-linecap="round" />
  <path d="M 323.669 342.463 c 3.069 0 5.558 -2.489 5.558 -5.558 s -2.488 -5.558 -5.558 -5.558 c -6.963 0 -12.627 -5.666 -12.627 -12.627 c 0 -3.068 -2.488 -5.558 -5.558 -5.558 s -5.558 2.489 -5.558 5.558 C 299.927 331.811 310.578 342.463 323.669 342.463 z" style="stroke: none; stroke-width: 1; stroke-dasharray: none; stroke-linecap: butt; stroke-linejoin: miter; stroke-miterlimit: 10; fill: #5C6670; fill-rule: nonzero; opacity: 1;" transform=" matrix(1 0 0 1 0 0) " stroke-linecap="round" />
  <path d="M 305.484 322.582 c 5.372 0 9.726 -4.354 9.726 -9.725 c 0 -30.146 -24.525 -54.67 -54.67 -54.67 c -5.371 0 -9.725 4.355 -9.725 9.727 c 0 5.371 4.354 9.727 9.725 9.727 c 19.419 0 35.217 15.797 35.217 35.217 C 295.758 318.228 300.112 322.582 305.484 322.582 z" style="stroke: none; stroke-width: 1; stroke-dasharray: none; stroke-linecap: butt; stroke-linejoin: miter; stroke-miterlimit: 10; fill: #333E48; fill-rule: nonzero; opacity: 1;" transform=" matrix(1 0 0 1 0 0) " stroke-linecap="round" />
  <path d="M 52.366 64.219 c -3.069 0 -5.558 2.489 -5.558 5.558 s 2.488 5.558 5.558 5.558 c 6.963 0 12.627 5.666 12.627 12.627 c 0 3.068 2.488 5.558 5.558 5.558 c 3.069 0 5.558 -2.489 5.558 -5.558 C 76.108 74.871 65.458 64.219 52.366 64.219 z" style="stroke: none; stroke-width: 1; stroke-dasharray: none; stroke-linecap: butt; stroke-linejoin: miter; stroke-miterlimit: 10; fill: #5C6670; fill-rule: nonzero; opacity: 1;" transform=" matrix(1 0 0 1 0 0) " stroke-linecap="round" />
  <path d="M 70.551 84.1 c -5.372 0 -9.726 4.354 -9.726 9.726 c 0 30.146 24.525 54.67 54.67 54.67 c 5.371 0 9.726 -4.355 9.726 -9.727 s -4.354 -9.727 -9.726 -9.727 c -19.419 0 -35.217 -15.797 -35.217 -35.217 C 80.277 88.453 75.923 84.1 70.551 84.1 z" style="stroke: none; stroke-width: 1; stroke-dasharray: none; stroke-linecap: butt; stroke-linejoin: miter; stroke-miterlimit: 10; fill: #333E48; fill-rule: nonzero; opacity: 1;" transform=" matrix(1 0 0 1 0 0) " stroke-linecap="round" />
  <path d="M 303.927 64.219 c 3.069 0 5.558 2.489 5.558 5.558 s -2.488 5.558 -5.558 5.558 c -6.963 0 -12.628 5.666 -12.628 12.627 c 0 3.068 -2.488 5.558 -5.558 5.558 c -3.069 0 -5.558 -2.489 -5.558 -5.558 C 280.185 74.871 290.836 64.219 303.927 64.219 z" style="stroke: none; stroke-width: 1; stroke-dasharray: none; stroke-linecap: butt; stroke-linejoin: miter; stroke-miterlimit: 10; fill: #5C6670; fill-rule: nonzero; opacity: 1;" transform=" matrix(1 0 0 1 0 0) " stroke-linecap="round" />
  <path d="M 285.742 84.1 c 5.372 0 9.726 4.354 9.726 9.726 c 0 30.146 -24.525 54.67 -54.67 54.67 c -5.371 0 -9.726 -4.355 -9.726 -9.727 s 4.354 -9.727 9.726 -9.727 c 19.419 0 35.217 -15.797 35.217 -35.217 C 276.016 88.453 280.37 84.1 285.742 84.1 z" style="stroke: none; stroke-width: 1; stroke-dasharray: none; stroke-linecap: butt; stroke-linejoin: miter; stroke-miterlimit: 10; fill: #333E48; fill-rule: nonzero; opacity: 1;" transform=" matrix(1 0 0 1 0 0) " stroke-linecap="round" />
  <path d="M 188.755 68.334 V 57.966 h 28.604 c 13.496 0 24.436 -10.941 24.436 -24.437 V 9.093 c 0 -5.022 -4.071 -9.093 -9.093 -9.093 s -9.093 4.071 -9.093 9.093 v 11.555 c 0 6.382 -5.173 11.555 -11.555 11.555 h -67.816 c -6.381 0 -11.555 -5.173 -11.555 -11.555 V 9.093 c 0 -5.022 -4.071 -9.093 -9.093 -9.093 c -5.022 0 -9.093 4.071 -9.093 9.093 V 33.53 c 0 13.495 10.94 24.437 24.437 24.437 h 28.604 v 10.368 c -39.244 5.193 -69.536 38.761 -69.536 79.424 v 14.024 c 0 9.571 7.76 17.333 17.332 17.333 h 125.624 c 9.572 0 17.332 -7.762 17.332 -17.333 v -14.024 C 258.29 107.095 228 73.527 188.755 68.334 z" style="stroke: none; stroke-width: 1; stroke-dasharray: none; stroke-linecap: butt; stroke-linejoin: miter; stroke-miterlimit: 10; fill: #333E48; fill-rule: nonzero; opacity: 1;" transform=" matrix(1 0 0 1 0 0) " stroke-linecap="round" />
  <path d="M 248.786 157.468 H 107.507 c -10.766 0 -19.493 8.727 -19.493 19.493 v 89.2 c 0 49.778 40.354 90.132 90.132 90.132 s 90.132 -40.353 90.132 -90.132 v -89.2 C 268.279 166.195 259.552 157.468 248.786 157.468 z" style="stroke: none; stroke-width: 1; stroke-dasharray: none; stroke-linecap: butt; stroke-linejoin: miter; stroke-miterlimit: 10; fill: #cd00ed; fill-rule: nonzero; opacity: 1;" transform=" matrix(1 0 0 1 0 0) " stroke-linecap="round" />
  <path d="M 179.852 344.16 V 170.944 c 3.657 -5.923 9.053 -10.657 15.486 -13.477 h -34.383 c 6.433 2.819 11.829 7.553 15.486 13.477 V 344.16 c -2.227 4.399 -5.298 8.298 -9.009 11.477 c 3.516 0.418 7.086 0.656 10.714 0.656 s 7.198 -0.238 10.714 -0.656 C 185.149 352.458 182.079 348.56 179.852 344.16 z" style="stroke: none; stroke-width: 1; stroke-dasharray: none; stroke-linecap: butt; stroke-linejoin: miter; stroke-miterlimit: 10; fill: #65513C; fill-rule: nonzero; opacity: 1;" transform=" matrix(1 0 0 1 0 0) " stroke-linecap="round" />
</g>
  <g transform="translate(264.95 80.72)">
   <text font-family="Cargo Bay" font-size="40" font-weight="normal" style="stroke: none; stroke-width: 1; stroke-dasharray: none; stroke-linecap: butt; stroke-linejoin: miter; stroke-miterlimit: 10; fill: #d4b237; fill-rule: nonzero; opacity: 1;" ><tspan x="-85.63" y="8.98" style="stroke: none; stroke-width: 0; stroke-dasharray: none; stroke-linecap: butt; stroke-linejoin: miter; stroke-miterlimit: 4; fill: #d4b237; fill-rule: ; opacity: 1;">B</tspan><tspan x="-60.98" y="8.98" style="stroke: none; stroke-width: 0; stroke-dasharray: none; stroke-linecap: butt; stroke-linejoin: miter; stroke-miterlimit: 4; fill: #d4b237; fill-rule: ; opacity: 1;">U</tspan><tspan x="-36.46" y="8.98" style="stroke: none; stroke-width: 0; stroke-dasharray: none; stroke-linecap: butt; stroke-linejoin: miter; stroke-miterlimit: 4; fill: #d4b237; fill-rule: ; opacity: 1;">G</tspan><tspan x="-12.11" y="8.98" style="stroke: none; stroke-width: 0; stroke-dasharray: none; stroke-linecap: butt; stroke-linejoin: miter; stroke-miterlimit: 4; fill: #d4b237; fill-rule: ; opacity: 1;"> </tspan><tspan x="12.25" y="8.98" style="stroke: none; stroke-width: 0; stroke-dasharray: none; stroke-linecap: butt; stroke-linejoin: miter; stroke-miterlimit: 4; fill: #d4b237; fill-rule: ; opacity: 1;">Z</tspan><tspan x="36.68" y="8.98" style="stroke: none; stroke-width: 0; stroke-dasharray: none; stroke-linecap: butt; stroke-linejoin: miter; stroke-miterlimit: 4; fill: #d4b237; fill-rule: ; opacity: 1;">E</tspan><tspan x="61.27" y="8.98" style="stroke: none; stroke-width: 0; stroke-dasharray: none; stroke-linecap: butt; stroke-linejoin: miter; stroke-miterlimit: 4; fill: #d4b237; fill-rule: ; opacity: 1;">R</tspan></text>
 </g>
<g style="stroke: none; stroke-width: 1; stroke-dasharray: none; stroke-linecap: butt; stroke-linejoin: miter; stroke-miterlimit: 10; fill: none; fill-rule: nonzero; opacity: 1;" transform="translate(351.71000000000004 56.79999999999998) scale(0.87 0.87)" >
  <circle cx="21" cy="21" r="20" style="stroke: none; stroke-width: 1; stroke-dasharray: none; stroke-linecap: butt; stroke-linejoin: miter; stroke-miterlimit: 10; fill: #cd00e8; fill-rule: nonzero; opacity: 1;" transform="  matrix(1 0 0 1 0 0) "/>
  <path d="M 36.483 33.655 c -0.846 1.034 -1.794 1.982 -2.828 2.828 l 15.73 15.73 l 2.828 -2.828 L 36.483 33.655 z" style="stroke: none; stroke-width: 1; stroke-dasharray: none; stroke-linecap: butt; stroke-linejoin: miter; stroke-miterlimit: 10; fill: #2E253B; fill-rule: nonzero; opacity: 1;" transform=" matrix(1 0 0 1 0 0) " stroke-linecap="round" />
  <path d="M 3.493 31.85 c 0.84 1.424 1.849 2.776 3.072 3.999 c 0.723 0.723 1.499 1.356 2.297 1.945 L 36.794 9.862 c -0.589 -0.798 -1.222 -1.574 -1.945 -2.297 c -1.223 -1.223 -2.575 -2.232 -3.999 -3.072 L 3.493 31.85 z" style="stroke: none; stroke-width: 1; stroke-dasharray: none; stroke-linecap: butt; stroke-linejoin: miter; stroke-miterlimit: 10; fill: #d4af37; fill-rule: nonzero; opacity: 1;" transform=" matrix(1 0 0 1 0 0) " stroke-linecap="round" />
  <path d="M 21 42 C 9.42 42 0 32.58 0 21 S 9.42 0 21 0 s 21 9.42 21 21 S 32.58 42 21 42 z M 21 2 C 10.523 2 2 10.523 2 21 s 8.523 19 19 19 s 19 -8.523 19 -19 S 31.477 2 21 2 z" style="stroke: none; stroke-width: 1; stroke-dasharray: none; stroke-linecap: butt; stroke-linejoin: miter; stroke-miterlimit: 10; fill: #2E253B; fill-rule: nonzero; opacity: 1;" transform=" matrix(1 0 0 1 0 0) " stroke-linecap="round" />
</g>
</svg>