<?xml version="1.0" encoding="UTF-8" standalone="no"?><!-- Generator: Gravit.io --><svg xmlns="http://www.w3.org/2000/svg" xmlns:xlink="http://www.w3.org/1999/xlink" style="isolation:isolate" viewBox="0 0 192 192" width="192pt" height="192pt"><defs><clipPath id="_clipPath_DHHyQTwzoWOiFyspA69pszKm95uvdPUM"><rect width="192" height="192"/></clipPath></defs><g clip-path="url(#_clipPath_DHHyQTwzoWOiFyspA69pszKm95uvdPUM)"><circle vector-effect="non-scaling-stroke" cx="100.31372549019608" cy="101.31372549019608" r="54.68627450980391" fill="rgb(0,0,0)"/><ellipse vector-effect="non-scaling-stroke" cx="100.5" cy="101.37745098039215" rx="43.5" ry="43.62254901960783" fill="rgb(255,255,255)"/><g><path d=" M 68.314 69.377 L 132.314 69.377 L 132.314 133.377 L 68.314 133.377 L 68.314 69.377 Z " fill="none"/><path d=" M 121.647 90.711 L 114.154 90.711 C 112.951 88.625 111.292 86.838 109.3 85.484 L 113.647 81.137 L 109.887 77.377 L 104.1 83.164 C 102.874 82.871 101.62 82.711 100.314 82.711 C 99.007 82.711 97.754 82.871 96.554 83.164 L 90.74 77.377 L 86.98 81.137 L 91.3 85.484 C 89.327 86.844 87.674 88.631 86.474 90.711 L 78.98 90.711 L 78.98 96.044 L 84.554 96.044 C 84.42 96.924 84.314 97.804 84.314 98.711 L 84.314 101.377 L 78.98 101.377 L 78.98 106.711 L 84.314 106.711 L 84.314 109.377 C 84.314 110.284 84.42 111.164 84.554 112.044 L 78.98 112.044 L 78.98 117.377 L 86.474 117.377 C 89.247 122.151 94.394 125.377 100.314 125.377 C 106.234 125.377 111.38 122.151 114.154 117.377 L 121.647 117.377 L 121.647 112.044 L 116.074 112.044 C 116.207 111.164 116.314 110.284 116.314 109.377 L 116.314 106.711 L 121.647 106.711 L 121.647 101.377 L 116.314 101.377 L 116.314 98.711 C 116.314 97.804 116.207 96.924 116.074 96.044 L 121.647 96.044 L 121.647 90.711 Z  M 105.647 112.044 L 94.98 112.044 L 94.98 106.711 L 105.647 106.711 L 105.647 112.044 Z  M 105.647 101.377 L 94.98 101.377 L 94.98 96.044 L 105.647 96.044 L 105.647 101.377 Z " fill="rgb(0,0,0)"/></g><g><path d=" M 0 14 L 205 14 L 205 219 L 0 219 L 0 14 Z  M 0 14 L 205 14 L 205 219 L 0 219 L 0 14 Z  M 0 14 L 205 14 L 205 219 L 0 219 L 0 14 Z  M 0 14 L 205 14 L 205 219 L 0 219 L 0 14 Z " fill="none"/></g></g></svg>