<?xml version="1.0" encoding="UTF-8" standalone="no"?><!-- Generator: Gravit.io --><svg xmlns="http://www.w3.org/2000/svg" xmlns:xlink="http://www.w3.org/1999/xlink" style="isolation:isolate" viewBox="0 0 192 192" width="192pt" height="192pt"><defs><clipPath id="_clipPath_kVpCzdxF1wlOHy4LGeuzKvkOQzPgPFGO"><rect width="192" height="192"/></clipPath></defs><g clip-path="url(#_clipPath_kVpCzdxF1wlOHy4LGeuzKvkOQzPgPFGO)"><g><circle vector-effect="non-scaling-stroke" cx="100.31372549019608" cy="80.8137254901961" r="54.68627450980391" fill="rgb(0,0,0)"/><ellipse vector-effect="non-scaling-stroke" cx="100.5" cy="80.87745098039215" rx="43.5" ry="43.62254901960783" fill="rgb(255,255,255)"/><g><path d=" M 68.314 48.877 L 132.314 48.877 L 132.314 112.877 L 68.314 112.877 L 68.314 48.877 Z " fill="none"/><path d=" M 121.647 70.211 L 114.154 70.211 C 112.951 68.125 111.292 66.338 109.3 64.984 L 113.647 60.637 L 109.887 56.877 L 104.1 62.664 C 102.874 62.371 101.62 62.211 100.314 62.211 C 99.007 62.211 97.754 62.371 96.554 62.664 L 90.74 56.877 L 86.98 60.637 L 91.3 64.984 C 89.327 66.344 87.674 68.131 86.474 70.211 L 78.98 70.211 L 78.98 75.544 L 84.554 75.544 C 84.42 76.424 84.314 77.304 84.314 78.211 L 84.314 80.877 L 78.98 80.877 L 78.98 86.211 L 84.314 86.211 L 84.314 88.877 C 84.314 89.784 84.42 90.664 84.554 91.544 L 78.98 91.544 L 78.98 96.877 L 86.474 96.877 C 89.247 101.651 94.394 104.877 100.314 104.877 C 106.234 104.877 111.38 101.651 114.154 96.877 L 121.647 96.877 L 121.647 91.544 L 116.074 91.544 C 116.207 90.664 116.314 89.784 116.314 88.877 L 116.314 86.211 L 121.647 86.211 L 121.647 80.877 L 116.314 80.877 L 116.314 78.211 C 116.314 77.304 116.207 76.424 116.074 75.544 L 121.647 75.544 L 121.647 70.211 Z  M 105.647 91.544 L 94.98 91.544 L 94.98 86.211 L 105.647 86.211 L 105.647 91.544 Z  M 105.647 80.877 L 94.98 80.877 L 94.98 75.544 L 105.647 75.544 L 105.647 80.877 Z " fill="rgb(0,0,0)"/></g><g><path d=" M 0 -6.5 L 205 -6.5 L 205 198.5 L 0 198.5 L 0 -6.5 Z  M 0 -6.5 L 205 -6.5 L 205 198.5 L 0 198.5 L 0 -6.5 Z  M 0 -6.5 L 205 -6.5 L 205 198.5 L 0 198.5 L 0 -6.5 Z  M 0 -6.5 L 205 -6.5 L 205 198.5 L 0 198.5 L 0 -6.5 Z " fill="none"/></g></g><text transform="matrix(1,0,0,1,22.5,172.305)" style="font-family:'Lilita One';font-weight:400;font-size:35px;font-style:normal;fill:#000000;stroke:none;">BUG ZERO</text></g></svg>