<svg id="svg" version="1.1" xmlns="http://www.w3.org/2000/svg" xmlns:xlink="http://www.w3.org/1999/xlink" width="400" height="400" viewBox="0, 0, 400,400"><g id="svgg"><path id="path1" d="M0.000 200.000 L 0.000 400.000 200.000 400.000 L 400.000 400.000 400.000 200.000 L 400.000 0.000 200.000 0.000 L 0.000 0.000 0.000 200.000 M211.967 69.635 C 261.848 78.254,294.341 124.193,285.848 174.090 C 284.427 182.439,280.302 194.697,277.129 200.000 C 276.745 200.642,275.932 202.067,275.322 203.167 C 256.185 237.676,214.090 255.208,174.512 245.152 C 142.814 237.098,117.012 210.385,109.859 178.218 C 98.420 126.777,133.420 76.183,185.167 69.356 C 186.633 69.163,188.283 68.942,188.833 68.867 C 192.066 68.422,208.015 68.952,211.967 69.635 M190.000 73.031 C 171.613 74.615,153.383 82.626,139.833 95.076 C 134.356 100.108,127.392 108.286,127.894 109.098 C 128.009 109.284,127.949 109.341,127.761 109.225 C 127.174 108.862,124.028 113.905,120.819 120.353 C 96.504 169.216,124.056 228.562,177.041 241.453 C 237.937 256.270,293.897 202.463,281.340 141.167 C 280.239 135.796,277.154 125.958,276.375 125.333 C 276.260 125.242,276.120 124.942,276.064 124.667 C 275.837 123.565,272.331 116.646,270.512 113.710 C 253.284 85.905,222.297 70.249,190.000 73.031 M203.730 103.872 C 211.885 106.792,215.647 112.994,215.661 123.542 L 215.667 127.917 216.667 128.117 C 217.978 128.379,220.458 130.883,221.040 132.532 C 221.396 133.540,221.500 136.387,221.500 145.167 C 221.500 163.800,222.785 162.833,198.000 162.833 C 173.269 162.833,174.675 163.894,174.670 145.239 C 174.667 136.151,174.766 133.408,175.125 132.548 C 175.821 130.882,177.670 128.961,179.250 128.262 L 180.667 127.635 180.672 122.901 C 180.679 115.401,181.728 112.264,185.554 108.302 C 190.343 103.341,197.426 101.615,203.730 103.872 M194.934 109.447 C 189.366 111.016,186.899 115.013,186.719 122.750 L 186.606 127.667 198.006 127.667 L 209.406 127.667 209.274 122.750 C 209.007 112.816,202.942 107.189,194.934 109.447 M251.188 116.562 C 252.508 117.320,254.624 119.933,254.826 121.053 C 254.936 121.666,254.983 137.341,254.930 155.888 L 254.833 189.609 253.829 191.039 C 251.723 194.035,253.802 193.821,225.750 193.925 L 201.000 194.016 201.000 200.842 L 201.000 207.667 211.604 207.667 L 222.209 207.667 223.104 208.602 C 224.339 209.891,224.310 211.408,223.026 212.692 L 222.051 213.667 197.889 213.667 L 173.726 213.667 172.863 212.641 C 171.716 211.278,171.728 209.820,172.896 208.602 L 173.791 207.667 184.396 207.667 L 195.000 207.667 195.000 200.833 L 195.000 194.000 170.750 193.993 C 142.425 193.984,144.069 194.201,141.743 190.167 C 141.043 188.953,140.661 124.335,141.335 121.184 C 142.387 116.269,143.246 116.016,158.982 116.007 L 171.797 116.000 172.732 116.896 C 174.020 118.130,174.023 119.867,172.739 121.098 L 171.811 121.987 159.572 122.008 L 147.333 122.029 147.333 154.681 L 147.333 187.333 198.002 187.333 L 248.670 187.333 248.585 154.750 L 248.500 122.167 236.350 122.079 C 224.416 121.993,224.187 121.979,223.434 121.271 C 222.251 120.160,222.358 117.986,223.648 116.900 C 224.188 116.446,224.575 116.020,224.509 115.954 C 224.154 115.601,250.562 116.202,251.188 116.562 M181.333 134.333 C 180.421 135.246,180.288 154.644,181.186 155.926 L 181.704 156.667 197.995 156.667 C 212.360 156.667,214.348 156.605,214.810 156.143 C 215.599 155.354,215.599 134.980,214.810 134.190 C 213.895 133.276,182.256 133.411,181.333 134.333 M199.644 138.821 C 202.299 140.194,203.176 143.539,201.381 145.449 C 200.781 146.088,200.667 146.612,200.667 148.727 C 200.667 151.758,199.964 153.000,198.247 153.000 C 196.315 153.000,195.667 151.954,195.667 148.833 C 195.667 146.366,195.590 146.044,194.833 145.333 C 191.918 142.594,196.070 136.973,199.644 138.821 M141.500 265.863 C 145.183 267.786,145.244 273.624,141.604 275.795 L 140.266 276.593 141.450 276.983 C 144.933 278.133,146.234 283.528,143.768 286.596 C 141.764 289.090,140.502 289.500,134.833 289.500 L 129.833 289.500 129.746 277.440 L 129.658 265.381 130.413 265.224 C 132.704 264.747,140.189 265.178,141.500 265.863 M206.667 266.335 C 206.667 267.503,206.177 268.360,202.750 273.199 C 200.596 276.241,197.599 280.478,196.091 282.615 L 193.349 286.500 200.008 286.590 L 206.667 286.680 206.667 288.007 L 206.667 289.333 198.167 289.333 L 189.667 289.333 189.667 287.893 C 189.667 286.557,190.147 285.775,196.320 277.060 L 202.974 267.667 196.228 267.667 L 189.482 267.667 189.610 266.333 L 189.737 265.000 198.202 265.000 L 206.667 265.000 206.667 266.335 M132.667 271.667 L 132.667 275.667 135.017 275.667 C 138.638 275.667,141.000 273.964,141.000 271.353 C 141.000 268.791,139.152 267.672,134.917 267.669 L 132.667 267.667 132.667 271.667 M184.417 272.268 L 185.333 272.650 185.333 282.137 C 185.333 293.535,185.104 294.366,181.500 296.035 C 179.120 297.137,171.979 296.648,171.163 295.328 C 171.018 295.092,172.228 292.667,172.491 292.667 C 172.541 292.667,173.296 292.982,174.168 293.368 C 178.383 295.233,182.000 293.712,182.272 289.961 L 182.421 287.892 181.294 288.696 C 179.667 289.857,175.374 290.041,173.402 289.035 C 167.666 286.108,168.425 274.487,174.504 272.183 C 176.074 271.588,182.926 271.647,184.417 272.268 M223.010 272.417 C 225.416 273.632,226.661 276.073,226.665 279.583 L 226.667 281.333 220.008 281.333 L 213.350 281.333 213.549 282.417 C 214.327 286.653,219.056 288.288,223.644 285.908 C 224.625 285.399,225.462 285.024,225.505 285.075 C 225.547 285.125,225.823 285.641,226.118 286.222 L 226.655 287.277 225.244 288.102 C 216.771 293.054,208.689 287.360,210.667 277.832 C 211.727 272.727,218.094 269.933,223.010 272.417 M246.234 272.168 C 247.120 272.788,247.618 274.276,247.740 276.667 L 247.833 278.500 246.702 278.608 C 245.375 278.735,245.012 278.315,245.005 276.647 C 244.994 274.010,242.331 273.473,239.725 275.581 L 238.500 276.572 238.408 281.786 L 238.316 287.000 241.658 287.000 L 245.000 287.000 245.000 288.167 L 245.000 289.333 238.000 289.333 L 231.000 289.333 231.000 288.167 L 231.000 287.000 233.167 287.000 L 235.333 287.000 235.333 280.667 L 235.333 274.333 233.167 274.333 L 231.000 274.333 231.000 273.167 L 231.000 272.000 234.292 272.000 L 237.583 272.000 237.793 273.050 C 237.987 274.018,238.049 274.060,238.585 273.590 C 240.617 271.807,244.648 271.057,246.234 272.168 M263.500 272.456 C 269.684 275.360,269.258 287.594,262.919 289.176 C 262.416 289.302,262.065 289.501,262.138 289.619 C 262.351 289.961,256.588 289.497,255.648 289.096 C 249.394 286.428,249.520 274.888,255.833 272.130 C 257.548 271.381,261.575 271.552,263.500 272.456 M153.000 278.177 C 153.000 286.367,153.784 288.018,157.207 287.036 C 160.674 286.042,161.333 284.741,161.333 278.897 L 161.333 274.283 160.250 274.392 C 159.216 274.495,159.162 274.443,159.063 273.250 L 158.960 272.000 161.640 272.000 L 164.321 272.000 164.410 279.417 L 164.500 286.833 165.583 286.938 C 166.575 287.033,166.667 287.139,166.667 288.188 L 166.667 289.333 164.333 289.333 L 162.000 289.333 162.000 287.926 C 162.000 286.561,161.984 286.541,161.485 287.254 C 159.887 289.535,154.883 290.508,152.433 289.013 C 150.440 287.798,150.180 286.840,150.057 280.250 L 149.946 274.333 148.806 274.333 C 147.726 274.333,147.667 274.273,147.667 273.167 L 147.667 272.000 150.333 272.000 L 153.000 272.000 153.000 278.177 M177.240 274.352 C 170.739 275.449,171.164 287.200,177.701 287.102 C 181.316 287.047,182.332 285.292,182.333 279.098 L 182.333 274.697 181.083 274.500 C 178.856 274.150,178.519 274.137,177.240 274.352 M216.914 274.476 C 215.369 275.028,214.761 275.518,214.145 276.709 C 213.143 278.646,213.190 278.667,218.667 278.667 C 223.485 278.667,223.667 278.642,223.667 277.983 C 223.667 275.176,220.118 273.333,216.914 274.476 M258.167 274.306 C 252.110 275.788,253.194 287.028,259.402 287.117 C 262.957 287.169,264.667 285.094,264.667 280.731 C 264.667 276.195,261.845 273.407,258.167 274.306 M132.667 282.627 L 132.667 287.000 135.250 286.993 C 144.009 286.968,144.313 279.220,135.583 278.496 L 132.667 278.254 132.667 282.627 " stroke="none" fill="#bbd4f3" fill-rule="evenodd"></path><path id="path2" d="M196.589 72.575 C 197.188 72.649,198.088 72.648,198.589 72.572 C 199.090 72.495,198.600 72.435,197.500 72.437 C 196.400 72.438,195.990 72.501,196.589 72.575 M133.989 94.917 L 132.167 96.833 134.083 95.011 C 135.864 93.319,136.153 93.000,135.905 93.000 C 135.853 93.000,134.991 93.862,133.989 94.917 M254.667 94.438 C 254.667 94.495,255.154 94.983,255.750 95.521 L 256.833 96.500 255.854 95.417 C 254.942 94.407,254.667 94.180,254.667 94.438 M260.333 100.167 C 260.955 100.808,261.539 101.333,261.631 101.333 C 261.722 101.333,261.289 100.808,260.667 100.167 C 260.045 99.525,259.461 99.000,259.369 99.000 C 259.278 99.000,259.711 99.525,260.333 100.167 M231.272 116.250 C 234.629 116.304,240.029 116.304,243.272 116.249 C 246.514 116.195,243.767 116.150,237.167 116.150 C 230.567 116.151,227.914 116.195,231.272 116.250 M173.411 119.000 C 173.411 119.642,173.479 119.904,173.563 119.583 C 173.647 119.263,173.647 118.737,173.563 118.417 C 173.479 118.096,173.411 118.358,173.411 119.000 M186.462 123.667 C 186.462 125.958,186.515 126.896,186.580 125.750 C 186.645 124.604,186.645 122.729,186.580 121.583 C 186.515 120.438,186.462 121.375,186.462 123.667 M254.827 154.833 C 254.827 173.167,254.867 180.716,254.917 171.609 C 254.966 162.502,254.966 147.502,254.917 138.275 C 254.867 129.049,254.827 136.500,254.827 154.833 M283.100 154.667 C 283.100 155.675,283.162 156.087,283.239 155.583 C 283.315 155.079,283.315 154.254,283.239 153.750 C 283.162 153.246,283.100 153.658,283.100 154.667 M107.767 156.333 C 107.767 157.342,107.829 157.754,107.905 157.250 C 107.982 156.746,107.982 155.921,107.905 155.417 C 107.829 154.912,107.767 155.325,107.767 156.333 M287.091 158.333 C 287.091 159.158,287.156 159.496,287.235 159.083 C 287.315 158.671,287.315 157.996,287.235 157.583 C 287.156 157.171,287.091 157.508,287.091 158.333 M107.767 160.333 C 107.767 161.342,107.829 161.754,107.905 161.250 C 107.982 160.746,107.982 159.921,107.905 159.417 C 107.829 158.912,107.767 159.325,107.767 160.333 M283.100 162.000 C 283.100 163.008,283.162 163.421,283.239 162.917 C 283.315 162.412,283.315 161.587,283.239 161.083 C 283.162 160.579,283.100 160.992,283.100 162.000 M159.275 193.917 C 165.934 193.967,176.734 193.967,183.275 193.917 C 189.815 193.866,184.367 193.825,171.167 193.825 C 157.967 193.825,152.615 193.866,159.275 193.917 M212.917 193.917 C 219.563 193.967,230.438 193.967,237.083 193.917 C 243.729 193.866,238.292 193.825,225.000 193.825 C 211.708 193.825,206.271 193.866,212.917 193.917 M186.250 213.583 C 192.713 213.634,203.287 213.634,209.750 213.583 C 216.213 213.533,210.925 213.491,198.000 213.491 C 185.075 213.491,179.787 213.533,186.250 213.583 M260.315 216.583 L 259.167 217.833 260.417 216.685 C 261.580 215.615,261.820 215.333,261.565 215.333 C 261.510 215.333,260.947 215.896,260.315 216.583 M255.649 221.250 L 254.500 222.500 255.750 221.351 C 256.913 220.282,257.153 220.000,256.899 220.000 C 256.843 220.000,256.281 220.563,255.649 221.250 M193.750 265.249 C 196.088 265.306,199.912 265.306,202.250 265.249 C 204.588 265.192,202.675 265.145,198.000 265.145 C 193.325 265.145,191.412 265.192,193.750 265.249 M129.818 265.752 C 129.730 265.982,129.697 271.420,129.746 277.835 L 129.834 289.500 130.000 277.417 C 130.092 270.771,130.124 265.333,130.073 265.333 C 130.021 265.333,129.907 265.522,129.818 265.752 M134.083 267.572 C 134.587 267.648,135.412 267.648,135.917 267.572 C 136.421 267.496,136.008 267.433,135.000 267.433 C 133.992 267.433,133.579 267.496,134.083 267.572 M144.084 270.833 C 144.088 271.567,144.156 271.827,144.236 271.413 C 144.315 270.998,144.312 270.398,144.229 270.079 C 144.146 269.761,144.080 270.100,144.084 270.833 M147.751 273.167 C 147.754 273.900,147.823 274.161,147.902 273.746 C 147.982 273.331,147.979 272.731,147.896 272.413 C 147.812 272.094,147.747 272.433,147.751 273.167 M164.142 279.000 C 164.142 282.942,164.190 284.554,164.249 282.583 C 164.308 280.612,164.308 277.387,164.249 275.417 C 164.190 273.446,164.142 275.058,164.142 279.000 M185.147 282.000 C 185.147 287.225,185.193 289.362,185.249 286.750 C 185.306 284.137,185.306 279.862,185.249 277.250 C 185.193 274.637,185.147 276.775,185.147 282.000 M161.465 278.833 C 161.465 281.400,161.518 282.406,161.581 281.069 C 161.645 279.732,161.644 277.632,161.580 276.402 C 161.516 275.173,161.464 276.267,161.465 278.833 M238.134 282.000 C 238.134 284.842,238.185 286.004,238.248 284.583 C 238.310 283.162,238.310 280.837,238.248 279.417 C 238.185 277.996,238.134 279.158,238.134 282.000 M226.424 279.667 C 226.424 280.492,226.489 280.829,226.569 280.417 C 226.648 280.004,226.648 279.329,226.569 278.917 C 226.489 278.504,226.424 278.842,226.424 279.667 M172.433 280.667 C 172.433 281.675,172.496 282.087,172.572 281.583 C 172.648 281.079,172.648 280.254,172.572 279.750 C 172.496 279.246,172.433 279.658,172.433 280.667 M210.424 280.667 C 210.424 281.492,210.489 281.829,210.569 281.417 C 210.648 281.004,210.648 280.329,210.569 279.917 C 210.489 279.504,210.424 279.842,210.424 280.667 M196.250 286.915 C 198.129 286.975,201.204 286.975,203.083 286.915 C 204.963 286.856,203.425 286.807,199.667 286.807 C 195.908 286.807,194.371 286.856,196.250 286.915 M134.083 287.243 C 134.771 287.315,135.896 287.315,136.583 287.243 C 137.271 287.171,136.708 287.112,135.333 287.112 C 133.958 287.112,133.396 287.171,134.083 287.243 M244.744 288.333 C 244.744 288.975,244.813 289.237,244.896 288.917 C 244.980 288.596,244.980 288.071,244.896 287.750 C 244.813 287.429,244.744 287.692,244.744 288.333 " stroke="none" fill="#70abef" fill-rule="evenodd"></path><path id="path3" d="M257.833 97.667 C 258.549 98.400,259.210 99.000,259.302 99.000 C 259.394 99.000,258.883 98.400,258.167 97.667 C 257.451 96.933,256.790 96.333,256.698 96.333 C 256.606 96.333,257.117 96.933,257.833 97.667 M215.461 123.833 C 215.461 126.033,215.515 126.890,215.580 125.737 C 215.646 124.584,215.645 122.784,215.579 121.737 C 215.513 120.690,215.460 121.633,215.461 123.833 M141.160 154.833 C 141.160 172.800,141.201 180.101,141.250 171.058 C 141.299 162.015,141.299 147.315,141.250 138.391 C 141.201 129.468,141.160 136.867,141.160 154.833 M248.748 154.749 L 248.667 187.331 198.083 187.417 L 147.500 187.502 198.094 187.584 C 238.323 187.650,248.720 187.581,248.846 187.250 C 248.934 187.021,248.966 172.283,248.918 154.500 L 248.830 122.167 248.748 154.749 M215.481 145.333 C 215.481 150.925,215.527 153.212,215.583 150.417 C 215.638 147.621,215.638 143.046,215.583 140.250 C 215.527 137.454,215.481 139.742,215.481 145.333 M221.481 145.167 C 221.481 150.667,221.527 152.963,221.583 150.271 C 221.638 147.578,221.639 143.078,221.583 140.271 C 221.527 137.463,221.481 139.667,221.481 145.167 M200.445 148.333 C 200.445 149.708,200.504 150.271,200.576 149.583 C 200.648 148.896,200.648 147.771,200.576 147.083 C 200.504 146.396,200.445 146.958,200.445 148.333 M283.107 158.333 C 283.107 159.525,283.167 160.012,283.241 159.417 C 283.315 158.821,283.315 157.846,283.241 157.250 C 283.167 156.654,283.107 157.142,283.107 158.333 M190.273 156.916 C 194.732 156.969,201.932 156.969,206.273 156.916 C 210.615 156.864,206.967 156.821,198.167 156.821 C 189.367 156.821,185.815 156.864,190.273 156.916 M190.083 162.916 C 194.438 162.969,201.563 162.969,205.917 162.916 C 210.271 162.864,206.708 162.821,198.000 162.821 C 189.292 162.821,185.729 162.864,190.083 162.916 M257.982 218.917 L 256.833 220.167 258.083 219.018 C 259.247 217.949,259.487 217.667,259.232 217.667 C 259.176 217.667,258.614 218.229,257.982 218.917 M206.417 266.500 C 206.421 267.233,206.489 267.494,206.569 267.079 C 206.649 266.665,206.646 266.065,206.562 265.746 C 206.479 265.427,206.414 265.767,206.417 266.500 M182.462 279.000 C 182.462 281.292,182.515 282.229,182.580 281.083 C 182.645 279.938,182.645 278.063,182.580 276.917 C 182.515 275.771,182.462 276.708,182.462 279.000 M133.417 275.905 C 133.921 275.982,134.746 275.982,135.250 275.905 C 135.754 275.829,135.342 275.767,134.333 275.767 C 133.325 275.767,132.912 275.829,133.417 275.905 M267.744 280.667 C 267.744 281.308,267.813 281.571,267.896 281.250 C 267.980 280.929,267.980 280.404,267.896 280.083 C 267.813 279.762,267.744 280.025,267.744 280.667 M216.601 281.249 C 218.490 281.308,221.490 281.308,223.268 281.248 C 225.045 281.188,223.500 281.140,219.833 281.140 C 216.167 281.140,214.712 281.189,216.601 281.249 M206.417 288.167 C 206.421 288.900,206.489 289.161,206.569 288.746 C 206.649 288.331,206.646 287.731,206.562 287.413 C 206.479 287.094,206.414 287.433,206.417 288.167 M182.411 288.333 C 182.411 288.975,182.479 289.237,182.563 288.917 C 182.647 288.596,182.647 288.071,182.563 287.750 C 182.479 287.429,182.411 287.692,182.411 288.333 " stroke="none" fill="#92bced" fill-rule="evenodd"></path><path id="path4" d="" stroke="none" fill="#99c4ee" fill-rule="evenodd"></path><path id="path5" d="M245.921 278.569 C 246.335 278.649,246.935 278.646,247.254 278.562 C 247.573 278.479,247.233 278.414,246.500 278.417 C 245.767 278.421,245.506 278.489,245.921 278.569 " stroke="none" fill="#b5ccef" fill-rule="evenodd"></path><path id="path6" d="M159.084 273.167 C 159.088 273.900,159.156 274.161,159.236 273.746 C 159.315 273.331,159.312 272.731,159.229 272.413 C 159.146 272.094,159.080 272.433,159.084 273.167 " stroke="none" fill="#acccf2" fill-rule="evenodd"></path><path id="path7" d="M152.800 276.833 C 152.800 279.583,152.852 280.664,152.915 279.235 C 152.977 277.806,152.977 275.556,152.914 274.235 C 152.851 272.914,152.800 274.083,152.800 276.833 M235.473 280.667 C 235.473 284.242,235.522 285.704,235.582 283.917 C 235.642 282.129,235.642 279.204,235.582 277.417 C 235.522 275.629,235.473 277.092,235.473 280.667 " stroke="none" fill="#a4c4ee" fill-rule="evenodd"></path><path id="path8" d="" stroke="none" fill="#c4d4f4" fill-rule="evenodd"></path><path id="path0" d="M189.910 68.995 C 113.166 76.457,80.031 169.781,135.317 222.758 C 192.350 277.409,286.812 237.238,286.812 158.333 C 286.812 105.814,241.440 63.984,189.910 68.995 M206.833 73.029 C 242.270 76.481,272.744 103.437,281.036 138.667 C 293.707 192.499,252.889 244.000,197.554 244.000 C 133.562 244.000,92.133 176.894,120.816 119.701 C 136.854 87.723,170.463 69.486,206.833 73.029 M195.167 103.319 C 185.658 105.382,181.135 111.471,180.756 122.719 L 180.581 127.938 179.274 128.527 C 177.876 129.157,176.380 130.671,175.423 132.421 C 174.645 133.845,174.521 155.617,175.279 157.758 C 175.927 159.589,177.242 160.988,179.153 161.878 L 180.833 162.660 197.889 162.663 C 222.555 162.668,221.334 163.572,221.315 145.333 C 221.302 131.670,220.927 130.231,216.943 128.548 L 215.333 127.868 215.328 123.184 C 215.321 115.932,214.127 112.290,210.533 108.549 C 206.552 104.406,200.169 102.234,195.167 103.319 M199.845 109.030 C 206.422 110.246,209.097 113.996,209.274 122.250 L 209.391 127.667 197.862 127.667 L 186.333 127.667 186.333 124.061 C 186.333 115.126,189.540 110.083,195.901 109.014 C 196.780 108.866,197.585 108.727,197.689 108.706 C 197.793 108.684,198.763 108.830,199.845 109.030 M146.600 116.317 C 144.702 116.686,142.704 118.180,141.981 119.772 C 141.093 121.728,140.969 187.482,141.849 189.589 C 143.628 193.846,142.358 193.667,170.653 193.667 L 195.000 193.667 195.000 200.649 L 195.000 207.632 184.526 207.732 L 174.053 207.833 173.193 208.641 C 172.051 209.715,172.010 211.580,173.105 212.609 L 173.876 213.333 198.081 213.333 L 222.285 213.333 222.976 212.455 C 223.761 211.457,223.863 209.787,223.193 208.904 C 222.386 207.839,220.653 207.667,210.752 207.667 L 201.000 207.667 201.000 200.667 L 201.000 193.667 225.417 193.659 C 253.349 193.651,251.742 193.814,253.662 190.786 L 254.667 189.203 254.667 155.000 L 254.667 120.797 253.662 119.214 C 251.849 116.354,251.823 116.349,237.141 116.341 L 224.450 116.333 223.658 117.176 C 222.616 118.285,222.593 120.075,223.609 121.091 C 224.343 121.825,224.485 121.835,236.592 122.000 L 248.833 122.167 248.833 154.833 L 248.833 187.500 198.083 187.584 L 147.333 187.669 147.333 154.850 L 147.333 122.031 159.474 121.932 L 171.614 121.833 172.474 121.025 C 174.096 119.500,173.514 116.933,171.413 116.350 C 170.004 115.959,148.588 115.930,146.600 116.317 M215.057 134.218 C 216.094 135.156,215.984 155.345,214.937 156.320 C 213.909 157.278,182.326 157.398,181.276 156.448 C 180.514 155.759,180.318 134.815,181.067 134.067 C 181.773 133.361,214.269 133.506,215.057 134.218 M196.140 139.276 C 194.076 140.573,193.448 143.293,194.833 144.939 C 195.550 145.791,195.667 146.259,195.667 148.282 C 195.667 151.059,196.084 152.149,197.346 152.672 C 199.320 153.490,200.333 152.127,200.333 148.653 C 200.333 146.590,200.447 146.127,201.167 145.273 C 203.883 142.044,199.693 137.045,196.140 139.276 M132.000 265.282 L 130.167 265.500 130.079 277.396 L 129.992 289.291 131.536 289.523 C 135.762 290.157,140.923 289.121,142.944 287.234 C 146.200 284.194,145.216 278.695,141.137 277.138 L 139.626 276.561 141.063 275.839 C 145.010 273.857,145.077 267.893,141.173 266.003 C 139.557 265.221,135.323 264.888,132.000 265.282 M189.667 266.500 L 189.667 267.667 196.333 267.667 C 200.000 267.667,203.000 267.748,203.000 267.847 C 203.000 267.946,200.000 272.279,196.333 277.475 C 190.638 285.546,189.667 287.099,189.667 288.128 L 189.667 289.333 198.000 289.333 L 206.333 289.333 206.333 288.167 L 206.333 287.000 199.631 287.000 C 194.292 287.000,192.962 286.912,193.094 286.570 C 193.185 286.333,196.201 282.000,199.796 276.941 C 205.386 269.074,206.333 267.567,206.333 266.538 L 206.333 265.333 198.000 265.333 L 189.667 265.333 189.667 266.500 M139.469 268.268 C 143.650 270.710,140.501 276.000,134.866 276.000 L 132.667 276.000 132.667 271.861 C 132.667 268.874,132.783 267.669,133.083 267.532 C 133.929 267.147,138.438 267.667,139.469 268.268 M176.109 271.994 C 170.978 273.085,168.482 278.627,170.287 284.921 C 171.535 289.272,177.356 291.091,181.249 288.346 L 182.667 287.347 182.666 289.090 C 182.665 294.027,178.770 295.667,172.939 293.185 C 172.459 292.980,171.333 294.332,171.333 295.114 C 171.333 296.016,176.927 296.867,179.435 296.347 C 184.657 295.263,185.000 294.406,185.000 282.466 L 185.000 272.698 183.750 272.351 C 181.936 271.848,177.722 271.651,176.109 271.994 M216.833 271.977 C 211.917 273.166,209.420 278.333,211.005 284.039 C 212.586 289.729,220.007 291.392,225.952 287.388 C 226.326 287.136,226.308 286.938,225.848 286.236 L 225.293 285.389 223.396 286.260 C 218.519 288.501,213.898 286.776,213.420 282.538 L 213.247 281.000 219.790 281.000 L 226.333 281.000 226.333 279.289 C 226.333 273.755,222.304 270.654,216.833 271.977 M242.039 271.985 C 241.419 272.140,240.261 272.726,239.467 273.286 C 237.937 274.364,237.883 274.354,237.540 272.917 L 237.321 272.000 234.160 272.000 L 231.000 272.000 231.000 273.167 L 231.000 274.333 233.333 274.333 L 235.667 274.333 235.667 280.667 L 235.667 287.000 233.333 287.000 L 231.000 287.000 231.000 288.167 L 231.000 289.333 237.833 289.333 L 244.667 289.333 244.667 288.167 L 244.667 287.000 241.333 287.000 L 238.000 287.000 238.000 281.967 L 238.000 276.933 239.100 275.833 C 242.029 272.904,245.333 273.623,245.333 277.188 C 245.333 278.275,245.393 278.333,246.500 278.333 C 247.841 278.333,247.968 277.769,247.313 274.716 C 246.760 272.140,245.019 271.238,242.039 271.985 M256.333 272.319 C 249.236 274.758,249.652 287.085,256.904 289.204 C 264.043 291.290,269.454 284.984,267.194 277.210 C 265.893 272.737,261.229 270.636,256.333 272.319 M148.000 273.167 C 148.000 274.229,148.086 274.333,148.957 274.333 L 149.913 274.333 150.094 279.750 C 150.291 285.681,150.656 287.318,152.040 288.482 C 154.143 290.252,158.505 289.828,160.692 287.641 L 161.963 286.370 162.065 287.768 L 162.167 289.167 164.333 289.167 L 166.500 289.167 166.604 288.083 C 166.704 287.050,166.655 287.000,165.560 287.000 C 164.032 287.000,164.010 286.882,164.005 278.750 L 164.000 272.000 161.667 272.000 L 159.333 272.000 159.333 273.167 C 159.333 274.278,159.389 274.333,160.500 274.333 L 161.667 274.333 161.667 278.768 C 161.667 284.941,160.156 287.333,156.257 287.333 C 153.125 287.333,152.671 286.143,152.669 277.917 L 152.667 272.000 150.333 272.000 L 148.000 272.000 148.000 273.167 M181.617 274.366 L 182.667 274.732 182.659 278.949 C 182.649 285.156,181.653 286.975,178.106 287.269 C 174.387 287.577,172.500 285.355,172.500 280.667 C 172.500 275.331,176.485 272.577,181.617 274.366 M221.860 274.629 C 222.872 275.246,224.000 277.093,224.000 278.134 C 224.000 278.600,223.329 278.667,218.631 278.667 L 213.261 278.667 213.479 277.750 C 214.236 274.564,218.904 272.826,221.860 274.629 M262.349 274.751 C 265.958 277.183,265.857 285.060,262.194 286.798 C 257.762 288.901,254.167 286.080,254.167 280.500 C 254.167 274.978,258.338 272.048,262.349 274.751 M139.561 278.981 C 144.716 281.321,141.955 287.112,135.667 287.150 L 132.833 287.167 132.740 282.750 L 132.647 278.333 135.407 278.341 C 137.394 278.346,138.557 278.525,139.561 278.981 " stroke="none" fill="#0e7df3" fill-rule="evenodd"></path><path id="path1" d="M0.000 200.000 L 0.000 400.000 200.000 400.000 L 400.000 400.000 400.000 200.000 L 400.000 0.000 200.000 0.000 L 0.000 0.000 0.000 200.000 M211.967 69.635 C 261.848 78.254,294.341 124.193,285.848 174.090 C 284.427 182.439,280.302 194.697,277.129 200.000 C 276.745 200.642,275.932 202.067,275.322 203.167 C 256.185 237.676,214.090 255.208,174.512 245.152 C 142.814 237.098,117.012 210.385,109.859 178.218 C 98.420 126.777,133.420 76.183,185.167 69.356 C 186.633 69.163,188.283 68.942,188.833 68.867 C 192.066 68.422,208.015 68.952,211.967 69.635 M190.000 73.031 C 171.613 74.615,153.383 82.626,139.833 95.076 C 134.356 100.108,127.392 108.286,127.894 109.098 C 128.009 109.284,127.949 109.341,127.761 109.225 C 127.174 108.862,124.028 113.905,120.819 120.353 C 96.504 169.216,124.056 228.562,177.041 241.453 C 237.937 256.270,293.897 202.463,281.340 141.167 C 280.239 135.796,277.154 125.958,276.375 125.333 C 276.260 125.242,276.120 124.942,276.064 124.667 C 275.837 123.565,272.331 116.646,270.512 113.710 C 253.284 85.905,222.297 70.249,190.000 73.031 M203.730 103.872 C 211.885 106.792,215.647 112.994,215.661 123.542 L 215.667 127.917 216.667 128.117 C 217.978 128.379,220.458 130.883,221.040 132.532 C 221.396 133.540,221.500 136.387,221.500 145.167 C 221.500 163.800,222.785 162.833,198.000 162.833 C 173.269 162.833,174.675 163.894,174.670 145.239 C 174.667 136.151,174.766 133.408,175.125 132.548 C 175.821 130.882,177.670 128.961,179.250 128.262 L 180.667 127.635 180.672 122.901 C 180.679 115.401,181.728 112.264,185.554 108.302 C 190.343 103.341,197.426 101.615,203.730 103.872 M194.934 109.447 C 189.366 111.016,186.899 115.013,186.719 122.750 L 186.606 127.667 198.006 127.667 L 209.406 127.667 209.274 122.750 C 209.007 112.816,202.942 107.189,194.934 109.447 M251.188 116.562 C 252.508 117.320,254.624 119.933,254.826 121.053 C 254.936 121.666,254.983 137.341,254.930 155.888 L 254.833 189.609 253.829 191.039 C 251.723 194.035,253.802 193.821,225.750 193.925 L 201.000 194.016 201.000 200.842 L 201.000 207.667 211.604 207.667 L 222.209 207.667 223.104 208.602 C 224.339 209.891,224.310 211.408,223.026 212.692 L 222.051 213.667 197.889 213.667 L 173.726 213.667 172.863 212.641 C 171.716 211.278,171.728 209.820,172.896 208.602 L 173.791 207.667 184.396 207.667 L 195.000 207.667 195.000 200.833 L 195.000 194.000 170.750 193.993 C 142.425 193.984,144.069 194.201,141.743 190.167 C 141.043 188.953,140.661 124.335,141.335 121.184 C 142.387 116.269,143.246 116.016,158.982 116.007 L 171.797 116.000 172.732 116.896 C 174.020 118.130,174.023 119.867,172.739 121.098 L 171.811 121.987 159.572 122.008 L 147.333 122.029 147.333 154.681 L 147.333 187.333 198.002 187.333 L 248.670 187.333 248.585 154.750 L 248.500 122.167 236.350 122.079 C 224.416 121.993,224.187 121.979,223.434 121.271 C 222.251 120.160,222.358 117.986,223.648 116.900 C 224.188 116.446,224.575 116.020,224.509 115.954 C 224.154 115.601,250.562 116.202,251.188 116.562 M181.333 134.333 C 180.421 135.246,180.288 154.644,181.186 155.926 L 181.704 156.667 197.995 156.667 C 212.360 156.667,214.348 156.605,214.810 156.143 C 215.599 155.354,215.599 134.980,214.810 134.190 C 213.895 133.276,182.256 133.411,181.333 134.333 M199.644 138.821 C 202.299 140.194,203.176 143.539,201.381 145.449 C 200.781 146.088,200.667 146.612,200.667 148.727 C 200.667 151.758,199.964 153.000,198.247 153.000 C 196.315 153.000,195.667 151.954,195.667 148.833 C 195.667 146.366,195.590 146.044,194.833 145.333 C 191.918 142.594,196.070 136.973,199.644 138.821 M141.500 265.863 C 145.183 267.786,145.244 273.624,141.604 275.795 L 140.266 276.593 141.450 276.983 C 144.933 278.133,146.234 283.528,143.768 286.596 C 141.764 289.090,140.502 289.500,134.833 289.500 L 129.833 289.500 129.746 277.440 L 129.658 265.381 130.413 265.224 C 132.704 264.747,140.189 265.178,141.500 265.863 M206.667 266.335 C 206.667 267.503,206.177 268.360,202.750 273.199 C 200.596 276.241,197.599 280.478,196.091 282.615 L 193.349 286.500 200.008 286.590 L 206.667 286.680 206.667 288.007 L 206.667 289.333 198.167 289.333 L 189.667 289.333 189.667 287.893 C 189.667 286.557,190.147 285.775,196.320 277.060 L 202.974 267.667 196.228 267.667 L 189.482 267.667 189.610 266.333 L 189.737 265.000 198.202 265.000 L 206.667 265.000 206.667 266.335 M132.667 271.667 L 132.667 275.667 135.017 275.667 C 138.638 275.667,141.000 273.964,141.000 271.353 C 141.000 268.791,139.152 267.672,134.917 267.669 L 132.667 267.667 132.667 271.667 M184.417 272.268 L 185.333 272.650 185.333 282.137 C 185.333 293.535,185.104 294.366,181.500 296.035 C 179.120 297.137,171.979 296.648,171.163 295.328 C 171.018 295.092,172.228 292.667,172.491 292.667 C 172.541 292.667,173.296 292.982,174.168 293.368 C 178.383 295.233,182.000 293.712,182.272 289.961 L 182.421 287.892 181.294 288.696 C 179.667 289.857,175.374 290.041,173.402 289.035 C 167.666 286.108,168.425 274.487,174.504 272.183 C 176.074 271.588,182.926 271.647,184.417 272.268 M223.010 272.417 C 225.416 273.632,226.661 276.073,226.665 279.583 L 226.667 281.333 220.008 281.333 L 213.350 281.333 213.549 282.417 C 214.327 286.653,219.056 288.288,223.644 285.908 C 224.625 285.399,225.462 285.024,225.505 285.075 C 225.547 285.125,225.823 285.641,226.118 286.222 L 226.655 287.277 225.244 288.102 C 216.771 293.054,208.689 287.360,210.667 277.832 C 211.727 272.727,218.094 269.933,223.010 272.417 M246.234 272.168 C 247.120 272.788,247.618 274.276,247.740 276.667 L 247.833 278.500 246.702 278.608 C 245.375 278.735,245.012 278.315,245.005 276.647 C 244.994 274.010,242.331 273.473,239.725 275.581 L 238.500 276.572 238.408 281.786 L 238.316 287.000 241.658 287.000 L 245.000 287.000 245.000 288.167 L 245.000 289.333 238.000 289.333 L 231.000 289.333 231.000 288.167 L 231.000 287.000 233.167 287.000 L 235.333 287.000 235.333 280.667 L 235.333 274.333 233.167 274.333 L 231.000 274.333 231.000 273.167 L 231.000 272.000 234.292 272.000 L 237.583 272.000 237.793 273.050 C 237.987 274.018,238.049 274.060,238.585 273.590 C 240.617 271.807,244.648 271.057,246.234 272.168 M263.500 272.456 C 269.684 275.360,269.258 287.594,262.919 289.176 C 262.416 289.302,262.065 289.501,262.138 289.619 C 262.351 289.961,256.588 289.497,255.648 289.096 C 249.394 286.428,249.520 274.888,255.833 272.130 C 257.548 271.381,261.575 271.552,263.500 272.456 M153.000 278.177 C 153.000 286.367,153.784 288.018,157.207 287.036 C 160.674 286.042,161.333 284.741,161.333 278.897 L 161.333 274.283 160.250 274.392 C 159.216 274.495,159.162 274.443,159.063 273.250 L 158.960 272.000 161.640 272.000 L 164.321 272.000 164.410 279.417 L 164.500 286.833 165.583 286.938 C 166.575 287.033,166.667 287.139,166.667 288.188 L 166.667 289.333 164.333 289.333 L 162.000 289.333 162.000 287.926 C 162.000 286.561,161.984 286.541,161.485 287.254 C 159.887 289.535,154.883 290.508,152.433 289.013 C 150.440 287.798,150.180 286.840,150.057 280.250 L 149.946 274.333 148.806 274.333 C 147.726 274.333,147.667 274.273,147.667 273.167 L 147.667 272.000 150.333 272.000 L 153.000 272.000 153.000 278.177 M177.240 274.352 C 170.739 275.449,171.164 287.200,177.701 287.102 C 181.316 287.047,182.332 285.292,182.333 279.098 L 182.333 274.697 181.083 274.500 C 178.856 274.150,178.519 274.137,177.240 274.352 M216.914 274.476 C 215.369 275.028,214.761 275.518,214.145 276.709 C 213.143 278.646,213.190 278.667,218.667 278.667 C 223.485 278.667,223.667 278.642,223.667 277.983 C 223.667 275.176,220.118 273.333,216.914 274.476 M258.167 274.306 C 252.110 275.788,253.194 287.028,259.402 287.117 C 262.957 287.169,264.667 285.094,264.667 280.731 C 264.667 276.195,261.845 273.407,258.167 274.306 M132.667 282.627 L 132.667 287.000 135.250 286.993 C 144.009 286.968,144.313 279.220,135.583 278.496 L 132.667 278.254 132.667 282.627 " stroke="none" fill="#bbd4f3" fill-rule="evenodd"></path><path id="path2" d="M196.589 72.575 C 197.188 72.649,198.088 72.648,198.589 72.572 C 199.090 72.495,198.600 72.435,197.500 72.437 C 196.400 72.438,195.990 72.501,196.589 72.575 M133.989 94.917 L 132.167 96.833 134.083 95.011 C 135.864 93.319,136.153 93.000,135.905 93.000 C 135.853 93.000,134.991 93.862,133.989 94.917 M254.667 94.438 C 254.667 94.495,255.154 94.983,255.750 95.521 L 256.833 96.500 255.854 95.417 C 254.942 94.407,254.667 94.180,254.667 94.438 M260.333 100.167 C 260.955 100.808,261.539 101.333,261.631 101.333 C 261.722 101.333,261.289 100.808,260.667 100.167 C 260.045 99.525,259.461 99.000,259.369 99.000 C 259.278 99.000,259.711 99.525,260.333 100.167 M231.272 116.250 C 234.629 116.304,240.029 116.304,243.272 116.249 C 246.514 116.195,243.767 116.150,237.167 116.150 C 230.567 116.151,227.914 116.195,231.272 116.250 M173.411 119.000 C 173.411 119.642,173.479 119.904,173.563 119.583 C 173.647 119.263,173.647 118.737,173.563 118.417 C 173.479 118.096,173.411 118.358,173.411 119.000 M186.462 123.667 C 186.462 125.958,186.515 126.896,186.580 125.750 C 186.645 124.604,186.645 122.729,186.580 121.583 C 186.515 120.438,186.462 121.375,186.462 123.667 M254.827 154.833 C 254.827 173.167,254.867 180.716,254.917 171.609 C 254.966 162.502,254.966 147.502,254.917 138.275 C 254.867 129.049,254.827 136.500,254.827 154.833 M283.100 154.667 C 283.100 155.675,283.162 156.087,283.239 155.583 C 283.315 155.079,283.315 154.254,283.239 153.750 C 283.162 153.246,283.100 153.658,283.100 154.667 M107.767 156.333 C 107.767 157.342,107.829 157.754,107.905 157.250 C 107.982 156.746,107.982 155.921,107.905 155.417 C 107.829 154.912,107.767 155.325,107.767 156.333 M287.091 158.333 C 287.091 159.158,287.156 159.496,287.235 159.083 C 287.315 158.671,287.315 157.996,287.235 157.583 C 287.156 157.171,287.091 157.508,287.091 158.333 M107.767 160.333 C 107.767 161.342,107.829 161.754,107.905 161.250 C 107.982 160.746,107.982 159.921,107.905 159.417 C 107.829 158.912,107.767 159.325,107.767 160.333 M283.100 162.000 C 283.100 163.008,283.162 163.421,283.239 162.917 C 283.315 162.412,283.315 161.587,283.239 161.083 C 283.162 160.579,283.100 160.992,283.100 162.000 M159.275 193.917 C 165.934 193.967,176.734 193.967,183.275 193.917 C 189.815 193.866,184.367 193.825,171.167 193.825 C 157.967 193.825,152.615 193.866,159.275 193.917 M212.917 193.917 C 219.563 193.967,230.438 193.967,237.083 193.917 C 243.729 193.866,238.292 193.825,225.000 193.825 C 211.708 193.825,206.271 193.866,212.917 193.917 M186.250 213.583 C 192.713 213.634,203.287 213.634,209.750 213.583 C 216.213 213.533,210.925 213.491,198.000 213.491 C 185.075 213.491,179.787 213.533,186.250 213.583 M260.315 216.583 L 259.167 217.833 260.417 216.685 C 261.580 215.615,261.820 215.333,261.565 215.333 C 261.510 215.333,260.947 215.896,260.315 216.583 M255.649 221.250 L 254.500 222.500 255.750 221.351 C 256.913 220.282,257.153 220.000,256.899 220.000 C 256.843 220.000,256.281 220.563,255.649 221.250 M193.750 265.249 C 196.088 265.306,199.912 265.306,202.250 265.249 C 204.588 265.192,202.675 265.145,198.000 265.145 C 193.325 265.145,191.412 265.192,193.750 265.249 M129.818 265.752 C 129.730 265.982,129.697 271.420,129.746 277.835 L 129.834 289.500 130.000 277.417 C 130.092 270.771,130.124 265.333,130.073 265.333 C 130.021 265.333,129.907 265.522,129.818 265.752 M134.083 267.572 C 134.587 267.648,135.412 267.648,135.917 267.572 C 136.421 267.496,136.008 267.433,135.000 267.433 C 133.992 267.433,133.579 267.496,134.083 267.572 M144.084 270.833 C 144.088 271.567,144.156 271.827,144.236 271.413 C 144.315 270.998,144.312 270.398,144.229 270.079 C 144.146 269.761,144.080 270.100,144.084 270.833 M147.751 273.167 C 147.754 273.900,147.823 274.161,147.902 273.746 C 147.982 273.331,147.979 272.731,147.896 272.413 C 147.812 272.094,147.747 272.433,147.751 273.167 M164.142 279.000 C 164.142 282.942,164.190 284.554,164.249 282.583 C 164.308 280.612,164.308 277.387,164.249 275.417 C 164.190 273.446,164.142 275.058,164.142 279.000 M185.147 282.000 C 185.147 287.225,185.193 289.362,185.249 286.750 C 185.306 284.137,185.306 279.862,185.249 277.250 C 185.193 274.637,185.147 276.775,185.147 282.000 M161.465 278.833 C 161.465 281.400,161.518 282.406,161.581 281.069 C 161.645 279.732,161.644 277.632,161.580 276.402 C 161.516 275.173,161.464 276.267,161.465 278.833 M238.134 282.000 C 238.134 284.842,238.185 286.004,238.248 284.583 C 238.310 283.162,238.310 280.837,238.248 279.417 C 238.185 277.996,238.134 279.158,238.134 282.000 M226.424 279.667 C 226.424 280.492,226.489 280.829,226.569 280.417 C 226.648 280.004,226.648 279.329,226.569 278.917 C 226.489 278.504,226.424 278.842,226.424 279.667 M172.433 280.667 C 172.433 281.675,172.496 282.087,172.572 281.583 C 172.648 281.079,172.648 280.254,172.572 279.750 C 172.496 279.246,172.433 279.658,172.433 280.667 M210.424 280.667 C 210.424 281.492,210.489 281.829,210.569 281.417 C 210.648 281.004,210.648 280.329,210.569 279.917 C 210.489 279.504,210.424 279.842,210.424 280.667 M196.250 286.915 C 198.129 286.975,201.204 286.975,203.083 286.915 C 204.963 286.856,203.425 286.807,199.667 286.807 C 195.908 286.807,194.371 286.856,196.250 286.915 M134.083 287.243 C 134.771 287.315,135.896 287.315,136.583 287.243 C 137.271 287.171,136.708 287.112,135.333 287.112 C 133.958 287.112,133.396 287.171,134.083 287.243 M244.744 288.333 C 244.744 288.975,244.813 289.237,244.896 288.917 C 244.980 288.596,244.980 288.071,244.896 287.750 C 244.813 287.429,244.744 287.692,244.744 288.333 " stroke="none" fill="#70abef" fill-rule="evenodd"></path><path id="path3" d="M257.833 97.667 C 258.549 98.400,259.210 99.000,259.302 99.000 C 259.394 99.000,258.883 98.400,258.167 97.667 C 257.451 96.933,256.790 96.333,256.698 96.333 C 256.606 96.333,257.117 96.933,257.833 97.667 M215.461 123.833 C 215.461 126.033,215.515 126.890,215.580 125.737 C 215.646 124.584,215.645 122.784,215.579 121.737 C 215.513 120.690,215.460 121.633,215.461 123.833 M141.160 154.833 C 141.160 172.800,141.201 180.101,141.250 171.058 C 141.299 162.015,141.299 147.315,141.250 138.391 C 141.201 129.468,141.160 136.867,141.160 154.833 M248.748 154.749 L 248.667 187.331 198.083 187.417 L 147.500 187.502 198.094 187.584 C 238.323 187.650,248.720 187.581,248.846 187.250 C 248.934 187.021,248.966 172.283,248.918 154.500 L 248.830 122.167 248.748 154.749 M215.481 145.333 C 215.481 150.925,215.527 153.212,215.583 150.417 C 215.638 147.621,215.638 143.046,215.583 140.250 C 215.527 137.454,215.481 139.742,215.481 145.333 M221.481 145.167 C 221.481 150.667,221.527 152.963,221.583 150.271 C 221.638 147.578,221.639 143.078,221.583 140.271 C 221.527 137.463,221.481 139.667,221.481 145.167 M200.445 148.333 C 200.445 149.708,200.504 150.271,200.576 149.583 C 200.648 148.896,200.648 147.771,200.576 147.083 C 200.504 146.396,200.445 146.958,200.445 148.333 M283.107 158.333 C 283.107 159.525,283.167 160.012,283.241 159.417 C 283.315 158.821,283.315 157.846,283.241 157.250 C 283.167 156.654,283.107 157.142,283.107 158.333 M190.273 156.916 C 194.732 156.969,201.932 156.969,206.273 156.916 C 210.615 156.864,206.967 156.821,198.167 156.821 C 189.367 156.821,185.815 156.864,190.273 156.916 M190.083 162.916 C 194.438 162.969,201.563 162.969,205.917 162.916 C 210.271 162.864,206.708 162.821,198.000 162.821 C 189.292 162.821,185.729 162.864,190.083 162.916 M257.982 218.917 L 256.833 220.167 258.083 219.018 C 259.247 217.949,259.487 217.667,259.232 217.667 C 259.176 217.667,258.614 218.229,257.982 218.917 M206.417 266.500 C 206.421 267.233,206.489 267.494,206.569 267.079 C 206.649 266.665,206.646 266.065,206.562 265.746 C 206.479 265.427,206.414 265.767,206.417 266.500 M182.462 279.000 C 182.462 281.292,182.515 282.229,182.580 281.083 C 182.645 279.938,182.645 278.063,182.580 276.917 C 182.515 275.771,182.462 276.708,182.462 279.000 M133.417 275.905 C 133.921 275.982,134.746 275.982,135.250 275.905 C 135.754 275.829,135.342 275.767,134.333 275.767 C 133.325 275.767,132.912 275.829,133.417 275.905 M267.744 280.667 C 267.744 281.308,267.813 281.571,267.896 281.250 C 267.980 280.929,267.980 280.404,267.896 280.083 C 267.813 279.762,267.744 280.025,267.744 280.667 M216.601 281.249 C 218.490 281.308,221.490 281.308,223.268 281.248 C 225.045 281.188,223.500 281.140,219.833 281.140 C 216.167 281.140,214.712 281.189,216.601 281.249 M206.417 288.167 C 206.421 288.900,206.489 289.161,206.569 288.746 C 206.649 288.331,206.646 287.731,206.562 287.413 C 206.479 287.094,206.414 287.433,206.417 288.167 M182.411 288.333 C 182.411 288.975,182.479 289.237,182.563 288.917 C 182.647 288.596,182.647 288.071,182.563 287.750 C 182.479 287.429,182.411 287.692,182.411 288.333 " stroke="none" fill="#92bced" fill-rule="evenodd"></path></g></svg>