<svg id="图层_1" data-name="图层 1" xmlns="http://www.w3.org/2000/svg" viewBox="0 0 831.42 382"><defs><style>.cls-1{fill:#fff;stroke:#0071bc;stroke-miterlimit:10;stroke-width:80px;}.cls-2{fill:#0071bc;}.cls-3{fill:#d9e021;}</style></defs><title>bugZeroLogo</title><path class="cls-1" d="M123.58,584.5a146.15,146.15,0,0,1,292.3,0" transform="translate(-83.58 -296)"/><path class="cls-2" d="M.42,288h831a0,0,0,0,1,0,0v21a73,73,0,0,1-73,73h-668a90,90,0,0,1-90-90v-4A0,0,0,0,1,.42,288Z"/><path class="cls-2" d="M265.84,497.24a232.91,232.91,0,0,0-11.2,26.88l17.92,22.4L268.08,551l-17.92-24.64L239,544.28,234.48,542l11.2-20.16L230,504l4.48-4.48,13.44,17.92L261.36,495Z" transform="translate(-83.58 -296)"/><path class="cls-1" d="M423.94,584c0-137,100.75-248,225-248S874,447.05,874,584" transform="translate(-83.58 -296)"/><path class="cls-2" d="M199.67,513.66a163.87,163.87,0,0,1,7.78,18.67L195,547.89l3.11,3.11,12.45-17.11,7.78,12.44,3.11-1.55-7.78-14,10.89-12.44-3.11-3.11-9.34,12.44-9.33-15.55Z" transform="translate(-83.58 -296)"/><path d="M230,532Z" transform="translate(-83.58 -296)"/><polygon class="cls-3" points="571.62 139.47 571.62 175.02 680.6 168.64 544.97 332.74 540.13 361 727.83 361 727.83 323.62 604.31 327.27 748.42 134 571.62 139.47"/><path class="cls-2" d="M159.92,442S133.18,421.49,129,396.2l1.86-3.2s4.42,4.79,32.31,46.34Z" transform="translate(-83.58 -296)"/><path class="cls-2" d="M220.4,417.91s16.56-30.77,12.23-62.29L230,352.18s-2.29,6.78-13.26,63.23Z" transform="translate(-83.58 -296)"/></svg>