<?xml version="1.0" encoding="UTF-8" standalone="no"?>
<!-- Created with Inkscape (http://www.inkscape.org/) -->

<svg
   xmlns:dc="http://purl.org/dc/elements/1.1/"
   xmlns:cc="http://creativecommons.org/ns#"
   xmlns:rdf="http://www.w3.org/1999/02/22-rdf-syntax-ns#"
   xmlns:svg="http://www.w3.org/2000/svg"
   xmlns="http://www.w3.org/2000/svg"
   xmlns:sodipodi="http://sodipodi.sourceforge.net/DTD/sodipodi-0.dtd"
   xmlns:inkscape="http://www.inkscape.org/namespaces/inkscape"
   width="360.82086mm"
   height="180.85953mm"
   viewBox="0 0 360.82086 180.85953"
   version="1.1"
   id="svg8"
   inkscape:version="0.92.2 5c3e80d, 2017-08-06"
   sodipodi:docname="GoogleCodeInBugZeroLogo.svg">
  <defs
     id="defs2" />
  <sodipodi:namedview
     id="base"
     pagecolor="#ffffff"
     bordercolor="#666666"
     borderopacity="1.0"
     inkscape:pageopacity="0.0"
     inkscape:pageshadow="2"
     inkscape:zoom="0.5"
     inkscape:cx="707.04238"
     inkscape:cy="154.84255"
     inkscape:document-units="mm"
     inkscape:current-layer="layer1"
     showgrid="false"
     inkscape:lockguides="true"
     inkscape:measure-start="0,0"
     inkscape:measure-end="0,0"
     inkscape:window-width="1680"
     inkscape:window-height="969"
     inkscape:window-x="0"
     inkscape:window-y="1"
     inkscape:window-maximized="1"
     showguides="false"
     fit-margin-top="0"
     fit-margin-left="0"
     fit-margin-right="0"
     fit-margin-bottom="0" />
  <metadata
     id="metadata5">
    <rdf:RDF>
      <cc:Work
         rdf:about="">
        <dc:format>image/svg+xml</dc:format>
        <dc:type
           rdf:resource="http://purl.org/dc/dcmitype/StillImage" />
        <dc:title></dc:title>
      </cc:Work>
    </rdf:RDF>
  </metadata>
  <g
     inkscape:label="Layer 1"
     inkscape:groupmode="layer"
     id="layer1"
     transform="translate(246.8685,-62.575518)">
    <g
       id="g4812"
       transform="translate(-284.75042,-18.92665)"
       inkscape:export-filename="/Users/uk/Downloads/GoogleCodeInBugZeroLogo2.png"
       inkscape:export-xdpi="96"
       inkscape:export-ydpi="96">
      <g
         transform="translate(188.15775,107.97689)"
         id="g4782">
        <g
           id="g4766"
           transform="translate(-5.358786,-133.63476)">
          <path
             sodipodi:nodetypes="cccccccccccccsc"
             style="fill:#3e3e3e;fill-opacity:1;stroke:none;stroke-width:4.76499987;stroke-linecap:butt;stroke-linejoin:miter;stroke-miterlimit:4;stroke-dasharray:none;stroke-opacity:1"
             d="m -59.585351,118.73125 0.0078,0.031 c -8.129704,0.43863 -12.332582,5.83737 -12.332581,5.83737 l -13.708724,23.7448 c -7.821432,9.53761 -4.410537,16.44575 0.676961,25.41602 0.685479,1.19631 1.406843,2.36733 2.168343,3.5171 19.335827,18.50127 26.913185,10.4975 47.879763,-0.12351 0.897697,-1.48659 1.705438,-3.02056 2.463932,-4.59662 6.34991,-11.03496 5.605476,-14.39508 -0.628901,-25.19329 l -13.142867,-22.7645 c 0,0 -4.20329,-5.3988 -12.333097,-5.83737 l 0.0078,-0.031 c -0.179086,0 -0.353594,0.006 -0.529167,0.0108 -0.175572,-0.005 -0.35008,-0.0108 -0.529166,-0.0108 z"
             id="path920"
             inkscape:connector-curvature="0" />
          <path
             inkscape:connector-curvature="0"
             id="path848"
             d="m -58.804463,142.5236 c -8.56152,-1.5e-4 -15.502041,6.94037 -15.501898,15.50189 0.0058,2.59988 0.665476,5.15653 1.91823,7.43469 -9.078228,5.99245 -14.729395,17.48417 -14.741734,29.9775 8.1e-5,18.89387 12.684085,32.62282 28.330569,32.62282 15.646484,0 28.330489,-13.72895 28.33057,-32.62282 -5.48e-4,-12.4971 -5.644235,-23.99943 -14.721065,-30.00282 1.237674,-2.27352 1.886305,-4.82079 1.886707,-7.40937 1.43e-4,-8.56132 -6.940062,-15.50175 -15.501379,-15.50189 z"
             style="opacity:1;fill:#5178be;fill-opacity:1;stroke:none;stroke-width:2.15400004;stroke-linecap:round;stroke-linejoin:round;stroke-miterlimit:4;stroke-dasharray:none;stroke-dashoffset:0;stroke-opacity:1"
             sodipodi:nodetypes="scccscccs" />
          <path
             inkscape:connector-curvature="0"
             id="path857"
             d="m -104.23511,189.66374 h 90.871632"
             style="fill:none;fill-opacity:1;stroke:#5178be;stroke-width:5.86499977;stroke-linecap:round;stroke-linejoin:round;stroke-miterlimit:4;stroke-dasharray:none;stroke-opacity:1" />
          <g
             style="fill:none;fill-opacity:1;stroke:#8f3d3d;stroke-opacity:1"
             transform="translate(-0.8018095,-8.9010387e-6)"
             id="g869">
            <path
               style="fill:none;fill-opacity:1;stroke:#5178be;stroke-width:5.86499977;stroke-linecap:round;stroke-linejoin:round;stroke-miterlimit:4;stroke-dasharray:none;stroke-opacity:1"
               d="m -91.940718,156.81713 33.943232,33.94323"
               id="path863"
               inkscape:connector-curvature="0" />
            <path
               inkscape:connector-curvature="0"
               id="path865"
               d="m -24.054254,156.81713 -33.943232,33.94323"
               style="fill:none;fill-opacity:1;stroke:#5178be;stroke-width:5.86499977;stroke-linecap:round;stroke-linejoin:round;stroke-miterlimit:4;stroke-dasharray:none;stroke-opacity:1" />
          </g>
          <g
             style="fill:none;fill-opacity:1;stroke:#8f3d3d;stroke-opacity:1"
             id="g875"
             transform="matrix(1,0,0,-1,-0.8018095,379.3275)">
            <path
               inkscape:connector-curvature="0"
               id="path871"
               d="m -91.940718,156.81713 33.943232,33.94323"
               style="fill:none;fill-opacity:1;stroke:#5178be;stroke-width:5.86499977;stroke-linecap:round;stroke-linejoin:round;stroke-miterlimit:4;stroke-dasharray:none;stroke-opacity:1" />
            <path
               style="fill:none;fill-opacity:1;stroke:#5178be;stroke-width:5.86499977;stroke-linecap:round;stroke-linejoin:round;stroke-miterlimit:4;stroke-dasharray:none;stroke-opacity:1"
               d="m -24.054254,156.81713 -33.943232,33.94323"
               id="path873"
               inkscape:connector-curvature="0" />
          </g>
          <path
             inkscape:connector-curvature="0"
             id="path928"
             transform="scale(0.26458333)"
             d="m -294.94727,643.56055 c -6.11161,7.37955 -11.41477,13.2199 -13.7832,19.08398 -13.1105,21.71374 -20.5526,48.20117 -20.58008,76.01758 3.1e-4,71.4099 47.93986,123.29883 107.07617,123.29883 59.13632,0 107.07587,-51.88893 107.07618,-123.29883 -0.001,-27.35161 -7.15454,-53.44239 -19.83789,-74.9668 l -0.34571,-0.006 c -2.129,-6.2213 -11.98886,-51.59679 -18.46344,-59.41461 -35.17357,45.23458 -47.91564,50.46736 -67.2846,50.43219 -0.3809,3e-4 -0.76281,0.004 -1.14258,0.002 -0.38121,0.002 -0.76609,-0.002 -1.14844,-0.002 -71.56641,-11.14634 -43.34873,-51.66961 -72.38039,-79.62898 z"
             style="opacity:1;fill:#3e3e3e;fill-opacity:1;stroke:none;stroke-width:8.14110279;stroke-linecap:round;stroke-linejoin:round;stroke-miterlimit:4;stroke-dasharray:none;stroke-dashoffset:0;stroke-opacity:1"
             sodipodi:nodetypes="cccsccccccccc" />
        </g>
        <path
           style="fill:#3e3e3e;fill-opacity:1;stroke:none;stroke-width:0.26458332px;stroke-linecap:butt;stroke-linejoin:miter;stroke-opacity:1"
           d="m -83.612283,18.521268 19.874142,-5.32526 17.975929,4.816635 -9.000876,-15.5899732 h -17.222973 z"
           id="path4768"
           inkscape:connector-curvature="0" />
      </g>
      <g
         transform="translate(188.15775,107.97689)"
         id="g4790">
        <path
           style="fill:#cccccc;fill-opacity:1;stroke:none;stroke-width:0.26458332px;stroke-linecap:butt;stroke-linejoin:miter;stroke-opacity:1"
           d="m -98.488799,48.973755 c 0,0 -3.207041,0.133853 -3.207041,3.474723 l 6.527774,43.831949 h -1.596813 c -2.295049,0 -4.142901,1.847855 -4.142901,4.142903 0,2.29504 1.847852,4.14238 4.142901,4.14238 h 65.213599 c 2.295049,0 4.142899,-1.84734 4.142899,-4.14238 0,-2.295048 -1.84785,-4.142903 -4.142899,-4.142903 h -1.596813 l 6.527773,-43.831949 c 0,-3.34087 -3.207041,-3.474723 -3.207041,-3.474723 h -34.595302 z m 13.778495,46.281411 h 41.104449 c 0.75909,0 1.370462,0.610873 1.370462,1.369944 0,0.759068 -0.611372,1.370457 -1.370462,1.370457 h -41.104449 c -0.75909,0 -1.370462,-0.611389 -1.370462,-1.370457 0,-0.759071 0.611372,-1.369944 1.370462,-1.369944 z"
           id="path4745"
           inkscape:connector-curvature="0" />
        <g
           id="g4743"
           transform="matrix(0.57840487,0,0,0.57840487,-112.5446,-41.971972)">
          <path
             transform="scale(0.26458333)"
             inkscape:connector-curvature="0"
             id="path993"
             d="m 258.78711,709.89453 a 5.9817003,5.9817003 0 0 0 -4.16406,10.26758 l 14.70898,14.70898 v 26.51953 h -23.05078 c -3.02291,-0.0468 -5.49805,2.39079 -5.49805,5.41407 0,3.02327 2.47514,5.46089 5.49805,5.41406 h 23.05078 v 5.08203 c 0,0 0.47443,12.7249 7.63281,24.18555 l -20.95312,20.95312 c -5.22567,5.10247 2.54651,12.88257 7.6543,7.66211 l 20.25586,-20.25781 c 6.18868,5.54882 14.98869,9.56641 27.52148,9.56641 h 9.46875 c 12.53279,0 21.33278,-4.01759 27.52148,-9.56641 l 20.25586,20.25781 c 5.10779,5.22046 12.87997,-2.55964 7.6543,-7.66211 l -20.95313,-20.95312 c 7.15839,-11.46065 7.63282,-24.18555 7.63282,-24.18555 v -5.08203 h 23.04883 c 3.02291,0.0468 5.49804,-2.39079 5.49804,-5.41406 0,-3.02328 -2.47513,-5.46089 -5.49804,-5.41407 h -23.04883 v -26.52148 l 14.70703,-14.70703 a 5.9817003,5.9817003 0 0 0 -4.34766,-10.26758 5.9817003,5.9817003 0 0 0 -4.11133,1.80859 l -14.88086,14.88086 -2.47851,-0.0449 h -71.46875 l -2.47852,0.0449 -14.88086,-14.88086 a 5.9817003,5.9817003 0 0 0 -4.29687,-1.80859 z m 57.38867,37.32031 c 6.7834,1.5e-4 12.28304,5.49979 12.2832,12.28321 -0.007,4.43728 -2.40671,8.52556 -6.27734,10.69531 l 10.0293,22.44141 h -32.06836 l 10.02344,-22.43165 c -3.87201,-2.17223 -6.27066,-6.26538 -6.27344,-10.70507 1.6e-4,-6.78342 5.4998,-12.28306 12.2832,-12.28321 z"
             style="color:#000000;font-style:normal;font-variant:normal;font-weight:normal;font-stretch:normal;font-size:medium;line-height:normal;font-family:sans-serif;font-variant-ligatures:normal;font-variant-position:normal;font-variant-caps:normal;font-variant-numeric:normal;font-variant-alternates:normal;font-feature-settings:normal;text-indent:0;text-align:start;text-decoration:none;text-decoration-line:none;text-decoration-style:solid;text-decoration-color:#000000;letter-spacing:normal;word-spacing:normal;text-transform:none;writing-mode:lr-tb;direction:ltr;text-orientation:mixed;dominant-baseline:auto;baseline-shift:baseline;text-anchor:start;white-space:normal;shape-padding:0;clip-rule:nonzero;display:inline;overflow:visible;visibility:visible;opacity:1;isolation:auto;mix-blend-mode:normal;color-interpolation:sRGB;color-interpolation-filters:linearRGB;solid-color:#000000;solid-opacity:1;vector-effect:none;fill:#4b4b4b;fill-opacity:1;fill-rule:nonzero;stroke:none;stroke-width:11.96220493;stroke-linecap:round;stroke-linejoin:round;stroke-miterlimit:4;stroke-dasharray:none;stroke-dashoffset:0;stroke-opacity:1;color-rendering:auto;image-rendering:auto;shape-rendering:auto;text-rendering:auto;enable-background:accumulate" />
          <g
             id="g4722">
            <path
               style="fill:#4b4b4b;fill-opacity:1;stroke:#4b4b4b;stroke-width:0.74400002;stroke-linecap:round;stroke-linejoin:round;stroke-miterlimit:4;stroke-dasharray:none;stroke-opacity:1"
               d="m 83.65534,179.88809 c -9.920647,0 -8.955526,13.14885 -8.955526,13.14885 l 1.37356,-0.0473 c -0.06328,-12.02465 6.525181,-11.80024 7.581966,-11.81889 1.056788,0.0186 7.645249,-0.20576 7.581966,11.81889 l 1.373042,0.0473 c 0,0 0.96564,-13.14885 -8.955008,-13.14885 z"
               id="path940"
               inkscape:connector-curvature="0" />
            <path
               style="opacity:1;fill:#4b4b4b;fill-opacity:1;stroke:none;stroke-width:2.35371757;stroke-linecap:round;stroke-linejoin:round;stroke-miterlimit:4;stroke-dasharray:none;stroke-dashoffset:0;stroke-opacity:1"
               id="path972"
               sodipodi:type="arc"
               sodipodi:cx="83.655098"
               sodipodi:cy="-190.7887"
               sodipodi:rx="5.9058776"
               sodipodi:ry="6.945312"
               sodipodi:start="0"
               sodipodi:end="3.1415927"
               sodipodi:open="true"
               d="m 89.560976,-190.7887 a 5.9058776,6.945312 0 0 1 -2.952939,6.01482 5.9058776,6.945312 0 0 1 -5.905878,0 5.9058776,6.945312 0 0 1 -2.952939,-6.01482"
               transform="scale(1,-1)" />
          </g>
        </g>
      </g>
    </g>
    <g
       id="g843"
       style="stroke-width:2.4000001;stroke-miterlimit:4;stroke-dasharray:none"
       transform="matrix(0.98285492,0,0,0.8238216,-183.69501,50.9571)"
       inkscape:export-filename="/Users/uk/Downloads/GoogleCodeInBugZeroLogo2.png"
       inkscape:export-xdpi="96"
       inkscape:export-ydpi="96">
      <text
         id="text4816"
         y="232.11189"
         x="-62.784969"
         style="font-style:normal;font-weight:normal;font-size:43.54392242px;line-height:1.25;font-family:sans-serif;letter-spacing:0px;word-spacing:0px;fill:#000000;fill-opacity:1;stroke:#000000;stroke-width:2.4000001;stroke-miterlimit:4;stroke-dasharray:none;stroke-opacity:1"
         xml:space="preserve"><tspan
           style="font-style:normal;font-variant:normal;font-weight:normal;font-stretch:normal;font-family:'Robusta Sans Demo';-inkscape-font-specification:'Robusta Sans Demo';letter-spacing:-1.19327092px;stroke:#000000;stroke-width:2.4000001;stroke-miterlimit:4;stroke-dasharray:none;stroke-opacity:1"
           y="232.11189"
           x="-62.784969"
           id="tspan4814"
           sodipodi:role="line">BuG</tspan></text>
      <text
         xml:space="preserve"
         style="font-style:normal;font-weight:normal;font-size:43.54392242px;line-height:1.25;font-family:sans-serif;letter-spacing:0px;word-spacing:0px;fill:#000000;fill-opacity:1;stroke:#000000;stroke-width:2.4000001;stroke-miterlimit:4;stroke-dasharray:none;stroke-opacity:1"
         x="18.292"
         y="231.98126"
         id="text837"><tspan
           sodipodi:role="line"
           id="tspan835"
           x="18.292"
           y="231.98126"
           style="font-style:normal;font-variant:normal;font-weight:normal;font-stretch:normal;font-family:'Robusta Sans Demo';-inkscape-font-specification:'Robusta Sans Demo';letter-spacing:-1.19327092px;stroke:#000000;stroke-width:2.4000001;stroke-miterlimit:4;stroke-dasharray:none;stroke-opacity:1">Zero</tspan></text>
    </g>
    <g
       inkscape:export-ydpi="96"
       inkscape:export-xdpi="96"
       inkscape:export-filename="/Users/uk/Downloads/GoogleCodeInBugZeroLogo2.png"
       transform="translate(-96.165042,-13.634983)"
       id="g906">
      <g
         id="g890"
         transform="translate(188.15775,107.97689)">
        <g
           transform="translate(-5.358786,-133.63476)"
           id="g886">
          <path
             inkscape:connector-curvature="0"
             id="path866"
             d="m -59.585351,118.73125 0.0078,0.031 c -8.129704,0.43863 -12.332582,5.83737 -12.332581,5.83737 l -13.708724,23.7448 c -7.821432,9.53761 -4.410537,16.44575 0.676961,25.41602 0.685479,1.19631 1.406843,2.36733 2.168343,3.5171 19.335827,18.50127 26.913185,10.4975 47.879763,-0.12351 0.897697,-1.48659 1.705438,-3.02056 2.463932,-4.59662 6.34991,-11.03496 5.605476,-14.39508 -0.628901,-25.19329 l -13.142867,-22.7645 c 0,0 -4.20329,-5.3988 -12.333097,-5.83737 l 0.0078,-0.031 c -0.179086,0 -0.353594,0.006 -0.529167,0.0108 -0.175572,-0.005 -0.35008,-0.0108 -0.529166,-0.0108 z"
             style="fill:#3e3e3e;fill-opacity:1;stroke:none;stroke-width:4.76499987;stroke-linecap:butt;stroke-linejoin:miter;stroke-miterlimit:4;stroke-dasharray:none;stroke-opacity:1"
             sodipodi:nodetypes="cccccccccccccsc" />
          <path
             sodipodi:nodetypes="scccscccs"
             style="opacity:1;fill:#8f3d3d;fill-opacity:1;stroke:none;stroke-width:2.15400004;stroke-linecap:round;stroke-linejoin:round;stroke-miterlimit:4;stroke-dasharray:none;stroke-dashoffset:0;stroke-opacity:1"
             d="m -58.804463,142.5236 c -8.56152,-1.5e-4 -15.502041,6.94037 -15.501898,15.50189 0.0058,2.59988 0.665476,5.15653 1.91823,7.43469 -9.078228,5.99245 -14.729395,17.48417 -14.741734,29.9775 8.1e-5,18.89387 12.684085,32.62282 28.330569,32.62282 15.646484,0 28.330489,-13.72895 28.33057,-32.62282 -5.48e-4,-12.4971 -5.644235,-23.99943 -14.721065,-30.00282 1.237674,-2.27352 1.886305,-4.82079 1.886707,-7.40937 1.43e-4,-8.56132 -6.940062,-15.50175 -15.501379,-15.50189 z"
             id="path868"
             inkscape:connector-curvature="0" />
          <path
             style="fill:none;fill-opacity:1;stroke:#8f3d3d;stroke-width:5.86499977;stroke-linecap:round;stroke-linejoin:round;stroke-miterlimit:4;stroke-dasharray:none;stroke-opacity:1"
             d="m -104.23511,189.66374 h 90.871632"
             id="path870"
             inkscape:connector-curvature="0" />
          <g
             id="g876"
             transform="translate(-0.8018095,-8.9010387e-6)"
             style="fill:none;fill-opacity:1;stroke:#8f3d3d;stroke-opacity:1">
            <path
               inkscape:connector-curvature="0"
               id="path872"
               d="m -91.940718,156.81713 33.943232,33.94323"
               style="fill:none;fill-opacity:1;stroke:#8f3d3d;stroke-width:5.86499977;stroke-linecap:round;stroke-linejoin:round;stroke-miterlimit:4;stroke-dasharray:none;stroke-opacity:1" />
            <path
               style="fill:none;fill-opacity:1;stroke:#8f3d3d;stroke-width:5.86499977;stroke-linecap:round;stroke-linejoin:round;stroke-miterlimit:4;stroke-dasharray:none;stroke-opacity:1"
               d="m -24.054254,156.81713 -33.943232,33.94323"
               id="path874"
               inkscape:connector-curvature="0" />
          </g>
          <g
             transform="matrix(1,0,0,-1,-0.8018095,379.3275)"
             id="g882"
             style="fill:none;fill-opacity:1;stroke:#8f3d3d;stroke-opacity:1">
            <path
               style="fill:none;fill-opacity:1;stroke:#8f3d3d;stroke-width:5.86499977;stroke-linecap:round;stroke-linejoin:round;stroke-miterlimit:4;stroke-dasharray:none;stroke-opacity:1"
               d="m -91.940718,156.81713 33.943232,33.94323"
               id="path878"
               inkscape:connector-curvature="0" />
            <path
               inkscape:connector-curvature="0"
               id="path880"
               d="m -24.054254,156.81713 -33.943232,33.94323"
               style="fill:none;fill-opacity:1;stroke:#8f3d3d;stroke-width:5.86499977;stroke-linecap:round;stroke-linejoin:round;stroke-miterlimit:4;stroke-dasharray:none;stroke-opacity:1" />
          </g>
          <path
             sodipodi:nodetypes="cccsccccccccc"
             style="opacity:1;fill:#3e3e3e;fill-opacity:1;stroke:none;stroke-width:8.14110279;stroke-linecap:round;stroke-linejoin:round;stroke-miterlimit:4;stroke-dasharray:none;stroke-dashoffset:0;stroke-opacity:1"
             d="m -294.94727,643.56055 c -6.11161,7.37955 -11.41477,13.2199 -13.7832,19.08398 -13.1105,21.71374 -20.5526,48.20117 -20.58008,76.01758 3.1e-4,71.4099 47.93986,123.29883 107.07617,123.29883 59.13632,0 107.07587,-51.88893 107.07618,-123.29883 -0.001,-27.35161 -7.15454,-53.44239 -19.83789,-74.9668 l -0.34571,-0.006 c -2.129,-6.2213 -11.98886,-51.59679 -18.46344,-59.41461 -35.17357,45.23458 -47.91564,50.46736 -67.2846,50.43219 -0.3809,3e-4 -0.76281,0.004 -1.14258,0.002 -0.38121,0.002 -0.76609,-0.002 -1.14844,-0.002 -71.56641,-11.14634 -43.34873,-51.66961 -72.38039,-79.62898 z"
             transform="scale(0.26458333)"
             id="path884"
             inkscape:connector-curvature="0" />
        </g>
        <path
           inkscape:connector-curvature="0"
           id="path888"
           d="m -83.612283,18.521268 19.874142,-5.32526 17.975929,4.816635 -9.000876,-15.5899732 h -17.222973 z"
           style="fill:#3e3e3e;fill-opacity:1;stroke:none;stroke-width:0.26458332px;stroke-linecap:butt;stroke-linejoin:miter;stroke-opacity:1" />
      </g>
      <g
         id="g904"
         transform="translate(188.15775,107.97689)">
        <path
           inkscape:connector-curvature="0"
           id="path892"
           d="m -98.488799,48.973755 c 0,0 -3.207041,0.133853 -3.207041,3.474723 l 6.527774,43.831949 h -1.596813 c -2.295049,0 -4.142901,1.847855 -4.142901,4.142903 0,2.29504 1.847852,4.14238 4.142901,4.14238 h 65.213599 c 2.295049,0 4.142899,-1.84734 4.142899,-4.14238 0,-2.295048 -1.84785,-4.142903 -4.142899,-4.142903 h -1.596813 l 6.527773,-43.831949 c 0,-3.34087 -3.207041,-3.474723 -3.207041,-3.474723 h -34.595302 z m 13.778495,46.281411 h 41.104449 c 0.75909,0 1.370462,0.610873 1.370462,1.369944 0,0.759068 -0.611372,1.370457 -1.370462,1.370457 h -41.104449 c -0.75909,0 -1.370462,-0.611389 -1.370462,-1.370457 0,-0.759071 0.611372,-1.369944 1.370462,-1.369944 z"
           style="fill:#cccccc;fill-opacity:1;stroke:none;stroke-width:0.26458332px;stroke-linecap:butt;stroke-linejoin:miter;stroke-opacity:1" />
        <g
           transform="matrix(0.57840487,0,0,0.57840487,-112.5446,-41.971972)"
           id="g902">
          <path
             style="color:#000000;font-style:normal;font-variant:normal;font-weight:normal;font-stretch:normal;font-size:medium;line-height:normal;font-family:sans-serif;font-variant-ligatures:normal;font-variant-position:normal;font-variant-caps:normal;font-variant-numeric:normal;font-variant-alternates:normal;font-feature-settings:normal;text-indent:0;text-align:start;text-decoration:none;text-decoration-line:none;text-decoration-style:solid;text-decoration-color:#000000;letter-spacing:normal;word-spacing:normal;text-transform:none;writing-mode:lr-tb;direction:ltr;text-orientation:mixed;dominant-baseline:auto;baseline-shift:baseline;text-anchor:start;white-space:normal;shape-padding:0;clip-rule:nonzero;display:inline;overflow:visible;visibility:visible;opacity:1;isolation:auto;mix-blend-mode:normal;color-interpolation:sRGB;color-interpolation-filters:linearRGB;solid-color:#000000;solid-opacity:1;vector-effect:none;fill:#4b4b4b;fill-opacity:1;fill-rule:nonzero;stroke:none;stroke-width:11.96220493;stroke-linecap:round;stroke-linejoin:round;stroke-miterlimit:4;stroke-dasharray:none;stroke-dashoffset:0;stroke-opacity:1;color-rendering:auto;image-rendering:auto;shape-rendering:auto;text-rendering:auto;enable-background:accumulate"
             d="m 258.78711,709.89453 a 5.9817003,5.9817003 0 0 0 -4.16406,10.26758 l 14.70898,14.70898 v 26.51953 h -23.05078 c -3.02291,-0.0468 -5.49805,2.39079 -5.49805,5.41407 0,3.02327 2.47514,5.46089 5.49805,5.41406 h 23.05078 v 5.08203 c 0,0 0.47443,12.7249 7.63281,24.18555 l -20.95312,20.95312 c -5.22567,5.10247 2.54651,12.88257 7.6543,7.66211 l 20.25586,-20.25781 c 6.18868,5.54882 14.98869,9.56641 27.52148,9.56641 h 9.46875 c 12.53279,0 21.33278,-4.01759 27.52148,-9.56641 l 20.25586,20.25781 c 5.10779,5.22046 12.87997,-2.55964 7.6543,-7.66211 l -20.95313,-20.95312 c 7.15839,-11.46065 7.63282,-24.18555 7.63282,-24.18555 v -5.08203 h 23.04883 c 3.02291,0.0468 5.49804,-2.39079 5.49804,-5.41406 0,-3.02328 -2.47513,-5.46089 -5.49804,-5.41407 h -23.04883 v -26.52148 l 14.70703,-14.70703 a 5.9817003,5.9817003 0 0 0 -4.34766,-10.26758 5.9817003,5.9817003 0 0 0 -4.11133,1.80859 l -14.88086,14.88086 -2.47851,-0.0449 h -71.46875 l -2.47852,0.0449 -14.88086,-14.88086 a 5.9817003,5.9817003 0 0 0 -4.29687,-1.80859 z m 57.38867,37.32031 c 6.7834,1.5e-4 12.28304,5.49979 12.2832,12.28321 -0.007,4.43728 -2.40671,8.52556 -6.27734,10.69531 l 10.0293,22.44141 h -32.06836 l 10.02344,-22.43165 c -3.87201,-2.17223 -6.27066,-6.26538 -6.27344,-10.70507 1.6e-4,-6.78342 5.4998,-12.28306 12.2832,-12.28321 z"
             id="path894"
             inkscape:connector-curvature="0"
             transform="scale(0.26458333)" />
          <g
             id="g900">
            <path
               inkscape:connector-curvature="0"
               id="path896"
               d="m 83.65534,179.88809 c -9.920647,0 -8.955526,13.14885 -8.955526,13.14885 l 1.37356,-0.0473 c -0.06328,-12.02465 6.525181,-11.80024 7.581966,-11.81889 1.056788,0.0186 7.645249,-0.20576 7.581966,11.81889 l 1.373042,0.0473 c 0,0 0.96564,-13.14885 -8.955008,-13.14885 z"
               style="fill:#4b4b4b;fill-opacity:1;stroke:#4b4b4b;stroke-width:0.74400002;stroke-linecap:round;stroke-linejoin:round;stroke-miterlimit:4;stroke-dasharray:none;stroke-opacity:1" />
            <path
               transform="scale(1,-1)"
               d="m 89.560976,-190.7887 a 5.9058776,6.945312 0 0 1 -2.952939,6.01482 5.9058776,6.945312 0 0 1 -5.905878,0 5.9058776,6.945312 0 0 1 -2.952939,-6.01482"
               sodipodi:open="true"
               sodipodi:end="3.1415927"
               sodipodi:start="0"
               sodipodi:ry="6.945312"
               sodipodi:rx="5.9058776"
               sodipodi:cy="-190.7887"
               sodipodi:cx="83.655098"
               sodipodi:type="arc"
               id="path898"
               style="opacity:1;fill:#4b4b4b;fill-opacity:1;stroke:none;stroke-width:2.35371757;stroke-linecap:round;stroke-linejoin:round;stroke-miterlimit:4;stroke-dasharray:none;stroke-dashoffset:0;stroke-opacity:1" />
          </g>
        </g>
      </g>
    </g>
    <g
       inkscape:export-ydpi="96"
       inkscape:export-xdpi="96"
       inkscape:export-filename="/Users/uk/Downloads/GoogleCodeInBugZeroLogo2.png"
       transform="matrix(0.98285492,0,0,0.8238216,4.8903684,40.373766)"
       style="stroke-width:2.4000001;stroke-miterlimit:4;stroke-dasharray:none"
       id="g916">
      <text
         xml:space="preserve"
         style="font-style:normal;font-weight:normal;font-size:43.54392242px;line-height:1.25;font-family:sans-serif;letter-spacing:0px;word-spacing:0px;fill:#000000;fill-opacity:1;stroke:#000000;stroke-width:2.4000001;stroke-miterlimit:4;stroke-dasharray:none;stroke-opacity:1"
         x="-62.784969"
         y="232.11189"
         id="text910"><tspan
           sodipodi:role="line"
           id="tspan908"
           x="-62.784969"
           y="232.11189"
           style="font-style:normal;font-variant:normal;font-weight:normal;font-stretch:normal;font-family:'Robusta Sans Demo';-inkscape-font-specification:'Robusta Sans Demo';letter-spacing:-1.19327092px;stroke:#000000;stroke-width:2.4000001;stroke-miterlimit:4;stroke-dasharray:none;stroke-opacity:1">BuG</tspan></text>
      <text
         id="text914"
         y="231.98126"
         x="18.292"
         style="font-style:normal;font-weight:normal;font-size:43.54392242px;line-height:1.25;font-family:sans-serif;letter-spacing:0px;word-spacing:0px;fill:#000000;fill-opacity:1;stroke:#000000;stroke-width:2.4000001;stroke-miterlimit:4;stroke-dasharray:none;stroke-opacity:1"
         xml:space="preserve"><tspan
           style="font-style:normal;font-variant:normal;font-weight:normal;font-stretch:normal;font-family:'Robusta Sans Demo';-inkscape-font-specification:'Robusta Sans Demo';letter-spacing:-1.19327092px;stroke:#000000;stroke-width:2.4000001;stroke-miterlimit:4;stroke-dasharray:none;stroke-opacity:1"
           y="231.98126"
           x="18.292"
           id="tspan912"
           sodipodi:role="line">Zero</tspan></text>
    </g>
    <path
       style="opacity:1;fill:#9f4e4e;fill-opacity:1;stroke:none;stroke-width:3.66885448;stroke-linecap:round;stroke-linejoin:round;stroke-miterlimit:4;stroke-dasharray:none;stroke-dashoffset:0;stroke-opacity:1"
       d="m -86.799064,136.5272 a 73.951547,73.951547 0 0 0 -73.951676,-73.951682 73.951547,73.951547 0 0 0 -73.9517,73.951682 73.951547,73.951547 0 0 0 73.9517,73.95165 73.951547,73.951547 0 0 0 73.951676,-73.95165 z m -17.143976,0 a 56.8082,56.8082 0 0 1 -56.8077,56.80768 56.8082,56.8082 0 0 1 -35.61514,-12.6127 l 79.83068,-79.83064 a 56.8082,56.8082 0 0 1 12.59216,35.63566 z m -24.21029,-46.489091 -79.05886,79.058851 a 56.8082,56.8082 0 0 1 -10.34705,-32.56976 56.8082,56.8082 0 0 1 56.8085,-56.808495 56.8082,56.8082 0 0 1 32.59741,10.319404 z"
       id="path845"
       inkscape:connector-curvature="0"
       inkscape:export-filename="/Users/uk/Downloads/GoogleCodeInBugZeroLogo2.png"
       inkscape:export-xdpi="96"
       inkscape:export-ydpi="96" />
  </g>
</svg>
