<svg id="Layer_1" data-name="Layer 1" xmlns="http://www.w3.org/2000/svg" viewBox="0 0 500.19 500.19"><defs><style>.cls-1{fill:#f0991c;}.cls-2{fill:#101623;}.cls-3{font-size:72px;fill:#fff;font-family:Copperplate, Copperplate;}</style></defs><title>Untitled-2</title><path class="cls-1" d="M340.77,496c19.4.66,38.71-1.61,57.86,1.23,14.48,2.15,29.58,14.26,30.59,33.12.4,7.49-1,15.17-6.39,21.13-2.3,2.54-2.51,4.73-.3,7.15,12.59,13.78,7.32,38.8-10.53,49.15-13.2,7.66-27.37,8.11-41.45,5.83-15-2.44-24.75-12.8-28-27.29-4.47-19.94-1.08-40.36-2.12-61.39,12,6.36,19.5,15.18,23.69,27.05a72.61,72.61,0,0,1,3.77,28.33,5.09,5.09,0,0,0,4,5.6,42.32,42.32,0,0,0,21.24.9c6.44-1.34,8.69-7.82,5.37-13.79-6.89-12.39-7.22-24.53.53-36.76,3.73-5.89-.71-12.9-8.18-13.06-6.85-.14-13.63-.21-20.25-2.33-11.23-3.59-20.88-9.33-27.46-19.46A11.19,11.19,0,0,1,340.77,496Z" transform="translate(-133.91 -332.91)"/><path class="cls-2" d="M299.4,661.44c3.55.11,6.76,3.48,6.31,7-.48,3.76-2.72,6-6.66,6a6.29,6.29,0,0,1-6.25-6.86A6.51,6.51,0,0,1,299.4,661.44Z" transform="translate(-133.91 -332.91)"/><path class="cls-2" d="M384,833q-123,0-246,.1c-3.42,0-4.1-.68-4.09-4.1q.15-246,0-492c0-3.42.67-4.1,4.09-4.09q246,.15,492,0c3.42,0,4.1.67,4.09,4.09q-.15,246,0,492c0,3.42-.66,4.1-4.09,4.1Q507,832.91,384,833ZM340.77,496a11.19,11.19,0,0,0,2.33,5.41c6.58,10.13,16.23,15.87,27.46,19.46,6.62,2.12,13.4,2.19,20.25,2.33,7.47.16,11.91,7.17,8.18,13.06-7.75,12.23-7.42,24.37-.53,36.76,3.32,6,1.07,12.45-5.37,13.79a42.32,42.32,0,0,1-21.24-.9,5.09,5.09,0,0,1-4-5.6A72.61,72.61,0,0,0,364.13,552c-4.19-11.87-11.65-20.69-23.69-27.05,1,21-2.35,41.45,2.12,61.39,3.24,14.49,13,24.85,28,27.29,14.08,2.28,28.25,1.83,41.45-5.83,17.85-10.35,23.12-35.37,10.53-49.15-2.21-2.42-2-4.61.3-7.15,5.4-6,6.79-13.64,6.39-21.13-1-18.86-16.11-31-30.59-33.12C379.48,494.37,360.17,496.64,340.77,496ZM279.39,652h0c0,5.32-.12,10.65,0,16,.33,11.79,9.85,20.68,21.09,19.84A20,20,0,0,0,319,665.94a19.66,19.66,0,0,0-23-17.39c-3,.48-3.35-.42-3.24-2.9a93.67,93.67,0,0,0,0-9.48c-.28-5.09-3.09-8-7.08-7.79s-6.15,3.15-6.21,8.15S279.39,646.84,279.39,652Zm170.89,5.78c0,7.48-.1,15,0,22.45.08,4.68,3,7.84,6.88,7.49,4.33-.38,6.44-3.11,6.53-7.37.07-3.83-.07-7.66,0-11.48.11-4.56,2.57-7.31,6.38-7.33s6.45,2.75,6.61,7.21c.13,3.82,0,7.65.05,11.47.11,4.79,2.75,7.65,6.76,7.54,3.74-.11,6.37-3,6.45-7.37s.13-8.65,0-13a20.19,20.19,0,0,0-18.15-19.31c-2.73-.33-6.27,2.32-7.73-.19-1.3-2.24-.33-5.82-.36-8.81,0-1,0-2,0-3-.17-5.16-2.7-8.16-6.82-8.09s-6.56,3.06-6.61,8.29C450.24,643.47,450.29,650.62,450.28,657.78Zm-6.37,4.39h0c0-2.33.1-4.66,0-7-.21-4.19-3.2-7.31-6.87-6.93-4,.43-6.3,2.72-6.29,7,0,4,.11,8,0,12-.18,4.47-2.86,7.26-6.62,7.22s-6.3-2.72-6.43-7.31c-.12-4.16.1-8.33-.13-12.48-.22-3.88-2.61-6.25-6.4-6.36s-6.59,2.09-6.77,5.92c-.29,6-.77,12,.46,17.91a19.76,19.76,0,0,0,39-2.42C444.08,667.18,443.91,664.67,443.91,662.17Zm-45.89.59c0-2.7.06-4.86,0-7-.16-4.63-2.95-7.67-6.84-7.54s-6.27,3-6.36,7.43c-.08,3.83.08,7.66-.06,11.49-.15,4.45-2.8,7.29-6.53,7.28s-6.35-2.74-6.46-7.25c-.1-4.15.13-8.33-.14-12.47s-2.82-6.52-6.85-6.44a6.19,6.19,0,0,0-6.42,6.35c-.21,5.64-.64,11.32.41,16.93a19.77,19.77,0,0,0,18.85,16.27,20.06,20.06,0,0,0,19.69-14.65C398.34,669.52,397.84,665.87,398,662.76Zm-72.88,10.73.22,0c0,2.32-.09,4.65,0,7,.22,4.33,2.95,7.26,6.64,7.27s6.5-2.82,6.68-7.18c.14-3.48,0-7,0-10.46.07-6.16,1.22-7.67,7.12-8.72,4.07-.73,6.27-2.94,6.14-7.07-.12-3.77-3.33-6.24-7.61-6.17A19.65,19.65,0,0,0,326,663.6,90.12,90.12,0,0,0,325.14,673.49Z" transform="translate(-133.91 -332.91)"/><rect class="cls-2" x="68.09" y="294.09" width="395" height="94"/><text class="cls-3" transform="translate(90.09 377.09)">bug zero</text></svg>