<?xml version="1.0" encoding="UTF-8" standalone="no"?>
<!-- Created with Inkscape (http://www.inkscape.org/) -->

<svg
   xmlns:dc="http://purl.org/dc/elements/1.1/"
   xmlns:cc="http://creativecommons.org/ns#"
   xmlns:rdf="http://www.w3.org/1999/02/22-rdf-syntax-ns#"
   xmlns:svg="http://www.w3.org/2000/svg"
   xmlns="http://www.w3.org/2000/svg"
   xmlns:sodipodi="http://sodipodi.sourceforge.net/DTD/sodipodi-0.dtd"
   xmlns:inkscape="http://www.inkscape.org/namespaces/inkscape"
   width="210mm"
   height="297mm"
   viewBox="0 0 210 297"
   version="1.1"
   id="svg1163"
   inkscape:version="0.92.4 (5da689c313, 2019-01-14)"
   sodipodi:docname="BugZero.svg"
   inkscape:export-filename="C:\Users\jakub\Desktop\BugZero.png"
   inkscape:export-xdpi="255.98734"
   inkscape:export-ydpi="255.98734">
  <defs
     id="defs1157" />
  <sodipodi:namedview
     id="base"
     pagecolor="#ffffff"
     bordercolor="#666666"
     borderopacity="1.0"
     inkscape:pageopacity="0.0"
     inkscape:pageshadow="2"
     inkscape:zoom="0.24748737"
     inkscape:cx="1063.4896"
     inkscape:cy="936.93905"
     inkscape:document-units="mm"
     inkscape:current-layer="layer1"
     showgrid="false"
     showguides="true"
     inkscape:guide-bbox="true"
     inkscape:window-width="1851"
     inkscape:window-height="1054"
     inkscape:window-x="61"
     inkscape:window-y="-8"
     inkscape:window-maximized="1" />
  <metadata
     id="metadata1160">
    <rdf:RDF>
      <cc:Work
         rdf:about="">
        <dc:format>image/svg+xml</dc:format>
        <dc:type
           rdf:resource="http://purl.org/dc/dcmitype/StillImage" />
        <dc:title></dc:title>
      </cc:Work>
    </rdf:RDF>
  </metadata>
  <g
     inkscape:label="Layer 1"
     inkscape:groupmode="layer"
     id="layer1">
    <rect
       style="opacity:1;fill:#ffffff;fill-opacity:1;stroke:#1a1a1a;stroke-width:0.20504722;stroke-miterlimit:4;stroke-dasharray:none;stroke-opacity:1"
       id="rect1011"
       width="955.31879"
       height="537.2771"
       x="-322.99799"
       y="-198.79507"
       inkscape:export-xdpi="241"
       inkscape:export-ydpi="241" />
    <g
       id="g1211"
       transform="translate(15.508989,19.633204)">
      <g
         transform="matrix(1.4621859,0,0,1.4621859,-17.379721,-168.10258)"
         id="g1005">
        <rect
           ry="11.374034"
           style="opacity:1;fill:#1a1a1a;fill-opacity:1;stroke:none;stroke-width:0.22482169;stroke-miterlimit:4;stroke-dasharray:none;stroke-opacity:1"
           id="rect1839"
           width="88.664932"
           height="84.81691"
           x="-173.62779"
           y="39.446522"
           transform="rotate(-45)" />
        <g
           transform="matrix(1.0597113,0,0,1.0597113,2.0030391,-8.9152402)"
           id="g2189"
           style="fill:#ff9955">
          <path
             inkscape:connector-curvature="0"
             id="path1719"
             d="m -38.957601,137.70825 2.806329,1.26953 1.202714,3.80859 v 9.08717 z"
             style="opacity:1;vector-effect:none;fill:#ff9955;fill-opacity:1;stroke:#1a1a1a;stroke-width:0.2;stroke-linecap:butt;stroke-linejoin:miter;stroke-miterlimit:4;stroke-dasharray:none;stroke-dashoffset:0;stroke-opacity:1" />
          <path
             inkscape:connector-curvature="0"
             id="path1721"
             d="m -38.957601,137.70825 4.009043,14.16529 -6.11379,2.07133 z"
             style="opacity:1;vector-effect:none;fill:#ff9955;fill-opacity:1;stroke:#1a1a1a;stroke-width:0.2;stroke-linecap:butt;stroke-linejoin:miter;stroke-miterlimit:4;stroke-dasharray:none;stroke-dashoffset:0;stroke-opacity:1" />
          <path
             inkscape:connector-curvature="0"
             id="path1723"
             d="m -38.957601,137.70825 -3.274052,1.46998 -3.507912,2.97338 4.677217,11.79326 z"
             style="opacity:1;vector-effect:none;fill:#ff9955;fill-opacity:1;stroke:#1a1a1a;stroke-width:0.2;stroke-linecap:butt;stroke-linejoin:miter;stroke-miterlimit:4;stroke-dasharray:none;stroke-dashoffset:0;stroke-opacity:1" />
          <path
             inkscape:connector-curvature="0"
             id="path1725"
             d="m -45.739565,142.15161 -2.405425,3.94222 -0.701583,4.30972 7.784225,3.54132 z"
             style="opacity:1;vector-effect:none;fill:#ff9955;fill-opacity:1;stroke:#1a1a1a;stroke-width:0.2;stroke-linecap:butt;stroke-linejoin:miter;stroke-miterlimit:4;stroke-dasharray:none;stroke-dashoffset:0;stroke-opacity:1" />
          <path
             inkscape:connector-curvature="0"
             id="path1727"
             d="m -34.948558,151.87354 -6.11379,2.07133 0.267268,8.61945 z"
             style="opacity:1;fill:#ff9955;fill-opacity:1;stroke:#1a1a1a;stroke-width:0.2;stroke-miterlimit:4;stroke-dasharray:none;stroke-opacity:1" />
          <path
             inkscape:connector-curvature="0"
             id="path1729"
             d="m -40.79508,162.56432 5.879931,5.51243 -0.03341,-16.20321 z"
             style="opacity:1;fill:#ff9955;fill-opacity:1;stroke:#1a1a1a;stroke-width:0.2;stroke-miterlimit:4;stroke-dasharray:none;stroke-opacity:1" />
          <path
             inkscape:connector-curvature="0"
             id="path1731"
             d="m -40.79508,162.56432 -4.009043,6.38106 2.906556,3.84199 z"
             style="opacity:1;fill:#ff9955;fill-opacity:1;stroke:#1a1a1a;stroke-width:0.2;stroke-miterlimit:4;stroke-dasharray:none;stroke-opacity:1" />
          <path
             inkscape:connector-curvature="0"
             id="path1733"
             d="m -41.897567,172.78737 6.982418,-4.71062 -5.879931,-5.51243 z"
             style="opacity:1;fill:#ff9955;fill-opacity:1;stroke:#1a1a1a;stroke-width:0.2;stroke-miterlimit:4;stroke-dasharray:none;stroke-opacity:1" />
          <path
             inkscape:connector-curvature="0"
             id="path1735"
             d="m -41.897567,172.78737 4.844262,3.84201 2.071338,-1.1359 0.06682,-7.41673 z"
             style="opacity:1;fill:#ff9955;fill-opacity:1;stroke:#1a1a1a;stroke-width:0.2;stroke-miterlimit:4;stroke-dasharray:none;stroke-opacity:1" />
          <path
             inkscape:connector-curvature="0"
             id="path1737"
             d="m -48.846573,150.40355 7.784225,3.54132 -7.550365,5.14494 z"
             style="opacity:1;fill:#ff9955;fill-opacity:1;stroke:#1a1a1a;stroke-width:0.2;stroke-miterlimit:4;stroke-dasharray:none;stroke-opacity:1" />
          <path
             inkscape:connector-curvature="0"
             id="path1739"
             d="m -48.612713,159.08981 7.817633,3.47451 -0.267268,-8.61945 z"
             style="opacity:1;fill:#ff9955;fill-opacity:1;stroke:#1a1a1a;stroke-width:0.2;stroke-miterlimit:4;stroke-dasharray:none;stroke-opacity:1" />
          <path
             inkscape:connector-curvature="0"
             id="path1741"
             d="m -48.612713,159.08981 7.817633,3.47451 -4.009043,6.38106 z"
             style="opacity:1;fill:#ff9955;fill-opacity:1;stroke:#1a1a1a;stroke-width:0.2;stroke-miterlimit:4;stroke-dasharray:none;stroke-opacity:1" />
          <path
             inkscape:connector-curvature="0"
             id="path1759"
             d="m -48.14499,146.09383 2.405425,-3.94222 -1.80407,-0.15034 z"
             style="opacity:1;fill:#ff9955;fill-opacity:1;stroke:#1a1a1a;stroke-width:0.2;stroke-miterlimit:4;stroke-dasharray:none;stroke-opacity:1" />
          <path
             inkscape:connector-curvature="0"
             id="path1765"
             d="m -52.170739,137.94211 -2.255086,-0.4009 -5.779704,1.30294 6.180608,0.26726 z"
             style="opacity:1;fill:#ff9955;fill-opacity:1;stroke:#1a1a1a;stroke-width:0.2;stroke-miterlimit:4;stroke-dasharray:none;stroke-opacity:1" />
          <path
             inkscape:connector-curvature="0"
             id="path1773"
             d="m -53.49038,140.38095 -7.784227,1.46998 7.249686,-2.73952 z"
             style="opacity:1;fill:#ff9955;fill-opacity:1;stroke:#1a1a1a;stroke-width:0.2;stroke-miterlimit:4;stroke-dasharray:none;stroke-opacity:1" />
          <path
             inkscape:connector-curvature="0"
             id="path1775"
             d="m -60.205529,138.84415 -3.357573,1.57021 9.538181,-1.30295 z"
             style="opacity:1;fill:#ff9955;fill-opacity:1;stroke:#1a1a1a;stroke-width:0.2;stroke-miterlimit:4;stroke-dasharray:none;stroke-opacity:1" />
          <path
             inkscape:connector-curvature="0"
             id="path1779"
             d="m -54.024921,139.11141 -7.249686,2.73952 -2.288495,-1.43657 z"
             style="opacity:1;fill:#ff9955;fill-opacity:1;stroke:#1a1a1a;stroke-width:0.2;stroke-miterlimit:4;stroke-dasharray:none;stroke-opacity:1" />
          <path
             inkscape:connector-curvature="0"
             id="path1781"
             d="m -47.543635,142.00127 -0.601355,4.09256 -4.025749,-8.15172 z"
             style="opacity:1;fill:#ff9955;fill-opacity:1;stroke:#1a1a1a;stroke-width:0.2;stroke-miterlimit:4;stroke-dasharray:none;stroke-opacity:1" />
          <path
             inkscape:connector-curvature="0"
             id="path1783"
             d="m -54.024921,139.11141 5.879931,6.98242 -4.025749,-8.15172 z"
             style="opacity:1;fill:#ff9955;fill-opacity:1;stroke:#1a1a1a;stroke-width:0.2;stroke-miterlimit:4;stroke-dasharray:none;stroke-opacity:1" />
          <path
             inkscape:connector-curvature="0"
             id="path1785"
             d="m -54.024921,139.11141 5.879931,6.98242 -5.34539,-5.71288 z"
             style="opacity:1;fill:#ff9955;fill-opacity:1;stroke:#1a1a1a;stroke-width:0.2;stroke-miterlimit:4;stroke-dasharray:none;stroke-opacity:1" />
          <path
             inkscape:connector-curvature="0"
             id="path1791"
             d="m -48.846573,150.40355 -1.887593,2.12145 0.785106,2.83974 1.336347,3.72507 z"
             style="opacity:1;fill:#ff9955;fill-opacity:1;stroke:#1a1a1a;stroke-width:0.2;stroke-miterlimit:4;stroke-dasharray:none;stroke-opacity:1" />
          <path
             inkscape:connector-curvature="0"
             id="path1793"
             d="m -49.94906,155.36474 -8.068198,-0.0835 7.283092,-2.75622 z"
             style="opacity:1;fill:#ff9955;fill-opacity:1;stroke:#1a1a1a;stroke-width:0.2;stroke-miterlimit:4;stroke-dasharray:none;stroke-opacity:1" />
          <path
             inkscape:connector-curvature="0"
             id="path1799"
             d="m -58.017258,155.28124 -2.522358,-0.50115 -0.451017,-1.1526 0.751695,-1.25283 1.553506,0.88534 z"
             style="opacity:1;fill:#ff9955;fill-opacity:1;stroke:#1a1a1a;stroke-width:0.2;stroke-miterlimit:4;stroke-dasharray:none;stroke-opacity:1" />
          <path
             inkscape:connector-curvature="0"
             id="path1801"
             d="m -60.238938,152.37466 9.504772,0.15034 -7.951266,0.735 z"
             style="opacity:1;fill:#ff9955;fill-opacity:1;stroke:#1a1a1a;stroke-width:0.2;stroke-miterlimit:4;stroke-dasharray:none;stroke-opacity:1" />
          <path
             inkscape:connector-curvature="0"
             id="path1803"
             d="m -58.685432,153.26 0.668174,2.02124 7.283092,-2.75622 z"
             style="opacity:1;fill:#ff9955;fill-opacity:1;stroke:#1a1a1a;stroke-width:0.2;stroke-miterlimit:4;stroke-dasharray:none;stroke-opacity:1" />
          <path
             inkscape:connector-curvature="0"
             id="path1805"
             d="m -48.612713,159.08981 0.128754,3.90972 0.87407,3.23642 2.805766,2.70943 z"
             style="opacity:1;fill:#ff9955;fill-opacity:1;stroke:#1a1a1a;stroke-width:0.2;stroke-miterlimit:4;stroke-dasharray:none;stroke-opacity:1" />
          <path
             inkscape:connector-curvature="0"
             id="path1807"
             d="m -48.483959,162.99953 -3.449031,-0.14174 -2.740327,1.98437 z"
             style="opacity:1;fill:#ff9955;fill-opacity:1;stroke:#1a1a1a;stroke-width:0.2;stroke-miterlimit:4;stroke-dasharray:none;stroke-opacity:1" />
          <path
             inkscape:connector-curvature="0"
             id="path1809"
             d="m -47.609889,166.23595 -1.889879,-0.70871 -2.882069,0.37798 3.897878,-2.90569 z"
             style="opacity:1;fill:#ff9955;fill-opacity:1;stroke:#1a1a1a;stroke-width:0.2;stroke-miterlimit:4;stroke-dasharray:none;stroke-opacity:1" />
          <path
             inkscape:connector-curvature="0"
             id="path1811"
             d="m -48.483959,162.99953 -3.897878,2.90569 -2.645833,5.40978 0.354353,-6.47284 z"
             style="opacity:1;fill:#ff9955;fill-opacity:1;stroke:#1a1a1a;stroke-width:0.2;stroke-miterlimit:4;stroke-dasharray:none;stroke-opacity:1" />
          <path
             inkscape:connector-curvature="0"
             id="path1813"
             d="m -55.02767,171.315 -3.96875,2.19699 1.039434,0.8032 1.724517,-0.92132 z"
             style="opacity:1;fill:#ff9955;fill-opacity:1;stroke:#1a1a1a;stroke-width:0.2;stroke-miterlimit:4;stroke-dasharray:none;stroke-opacity:1" />
          <path
             inkscape:connector-curvature="0"
             id="path1815"
             d="m -54.673317,164.84216 -4.063246,7.39416 -0.259857,1.27567 3.96875,-2.19699 z"
             style="opacity:1;fill:#ff9955;fill-opacity:1;stroke:#1a1a1a;stroke-width:0.2;stroke-miterlimit:4;stroke-dasharray:none;stroke-opacity:1" />
          <path
             inkscape:connector-curvature="0"
             id="path1817"
             d="m -53.991512,121.97276 6.581513,0.30067 4.677217,1.87089 z"
             style="opacity:1;fill:#ff9955;fill-opacity:1;stroke:#1a1a1a;stroke-width:0.2;stroke-miterlimit:4;stroke-dasharray:none;stroke-opacity:1" />
          <path
             inkscape:connector-curvature="0"
             id="path1819"
             d="m -53.991512,121.97276 -0.567947,0.7684 11.826677,1.40316 z"
             style="opacity:1;fill:#ff9955;fill-opacity:1;stroke:#1a1a1a;stroke-width:0.2;stroke-miterlimit:4;stroke-dasharray:none;stroke-opacity:1" />
          <path
             inkscape:connector-curvature="0"
             id="path1821"
             d="m -54.559459,122.74116 0.567947,0.96885 5.445617,0.33409 4.209495,1.26953 3.040192,2.53906 -2.372019,-3.20724 z"
             style="opacity:1;fill:#ff9955;fill-opacity:1;stroke:#1a1a1a;stroke-width:0.2;stroke-miterlimit:4;stroke-dasharray:none;stroke-opacity:1" />
          <path
             inkscape:connector-curvature="0"
             id="path1823"
             d="m -54.559459,122.74116 11.826677,1.40316 3.908816,3.842 -4.844261,-3.34087 z"
             style="opacity:1;fill:#ff9955;fill-opacity:1;stroke:#1a1a1a;stroke-width:0.2;stroke-miterlimit:4;stroke-dasharray:none;stroke-opacity:1" />
          <path
             inkscape:connector-curvature="0"
             id="path1825"
             d="m -43.668227,124.64545 2.372019,3.20724 0.818512,2.00452 1.65373,-1.87089 z"
             style="opacity:1;fill:#ff9955;fill-opacity:1;stroke:#1a1a1a;stroke-width:0.2;stroke-miterlimit:4;stroke-dasharray:none;stroke-opacity:1" />
          <path
             inkscape:connector-curvature="0"
             id="path1827"
             d="m -40.477696,129.85721 -1.557044,1.9829 -0.968563,2.71671 -0.141742,2.57496 2.645833,-3.73251 z"
             style="opacity:1;fill:#ff9955;fill-opacity:1;stroke:#1a1a1a;stroke-width:0.2;stroke-miterlimit:4;stroke-dasharray:none;stroke-opacity:1" />
          <path
             inkscape:connector-curvature="0"
             id="path1829"
             d="m -43.145045,137.13178 3.472656,-1.81901 3.614399,-0.75595 -4.419706,-4.69961 -0.02151,3.54206 z"
             style="opacity:1;fill:#ff9955;fill-opacity:1;stroke:#1a1a1a;stroke-width:0.2;stroke-miterlimit:4;stroke-dasharray:none;stroke-opacity:1" />
          <path
             inkscape:connector-curvature="0"
             id="path1831"
             d="m -40.477696,129.85721 1.65373,-1.87089 2.954962,-0.75279 -1.464656,2.74033 z"
             style="opacity:1;fill:#ff9955;fill-opacity:1;stroke:#1a1a1a;stroke-width:0.2;stroke-miterlimit:4;stroke-dasharray:none;stroke-opacity:1" />
          <path
             inkscape:connector-curvature="0"
             id="path1833"
             d="m -40.477696,129.85721 3.144036,0.11665 1.27567,4.58296 z"
             style="opacity:1;fill:#ff9955;fill-opacity:1;stroke:#1a1a1a;stroke-width:0.2;stroke-miterlimit:4;stroke-dasharray:none;stroke-opacity:1" />
          <path
             style="opacity:1;vector-effect:none;fill:#ff9955;fill-opacity:1;stroke:#1a1a1a;stroke-width:0.2;stroke-linecap:butt;stroke-linejoin:miter;stroke-miterlimit:4;stroke-dasharray:none;stroke-dashoffset:0;stroke-opacity:1"
             d="m -28.133185,137.70825 -2.806329,1.26953 -1.202714,3.80859 v 9.08717 z"
             id="path1841"
             inkscape:connector-curvature="0" />
          <path
             style="opacity:1;vector-effect:none;fill:#ff9955;fill-opacity:1;stroke:#1a1a1a;stroke-width:0.2;stroke-linecap:butt;stroke-linejoin:miter;stroke-miterlimit:4;stroke-dasharray:none;stroke-dashoffset:0;stroke-opacity:1"
             d="m -28.133185,137.70825 -4.009043,14.16529 6.11379,2.07133 z"
             id="path1843"
             inkscape:connector-curvature="0" />
          <path
             style="opacity:1;vector-effect:none;fill:#ff9955;fill-opacity:1;stroke:#1a1a1a;stroke-width:0.2;stroke-linecap:butt;stroke-linejoin:miter;stroke-miterlimit:4;stroke-dasharray:none;stroke-dashoffset:0;stroke-opacity:1"
             d="m -28.133185,137.70825 3.274052,1.46998 3.507912,2.97338 -4.677217,11.79326 z"
             id="path1845"
             inkscape:connector-curvature="0" />
          <path
             style="opacity:1;vector-effect:none;fill:#ff9955;fill-opacity:1;stroke:#1a1a1a;stroke-width:0.2;stroke-linecap:butt;stroke-linejoin:miter;stroke-miterlimit:4;stroke-dasharray:none;stroke-dashoffset:0;stroke-opacity:1"
             d="m -21.351221,142.15161 2.405425,3.94222 0.701583,4.30972 -7.784225,3.54132 z"
             id="path1847"
             inkscape:connector-curvature="0" />
          <path
             style="opacity:1;fill:#ff9955;fill-opacity:1;stroke:#1a1a1a;stroke-width:0.2;stroke-miterlimit:4;stroke-dasharray:none;stroke-opacity:1"
             d="m -32.142228,151.87354 6.11379,2.07133 -0.267268,8.61945 z"
             id="path1849"
             inkscape:connector-curvature="0" />
          <path
             style="opacity:1;fill:#ff9955;fill-opacity:1;stroke:#1a1a1a;stroke-width:0.2;stroke-miterlimit:4;stroke-dasharray:none;stroke-opacity:1"
             d="m -26.295706,162.56432 -5.879931,5.51243 0.03341,-16.20321 z"
             id="path1851"
             inkscape:connector-curvature="0" />
          <path
             style="opacity:1;fill:#ff9955;fill-opacity:1;stroke:#1a1a1a;stroke-width:0.2;stroke-miterlimit:4;stroke-dasharray:none;stroke-opacity:1"
             d="m -26.295706,162.56432 4.009043,6.38106 -2.906556,3.84199 z"
             id="path1853"
             inkscape:connector-curvature="0" />
          <path
             style="opacity:1;fill:#ff9955;fill-opacity:1;stroke:#1a1a1a;stroke-width:0.2;stroke-miterlimit:4;stroke-dasharray:none;stroke-opacity:1"
             d="m -25.193219,172.78737 -6.982418,-4.71062 5.879931,-5.51243 z"
             id="path1855"
             inkscape:connector-curvature="0" />
          <path
             style="opacity:1;fill:#ff9955;fill-opacity:1;stroke:#1a1a1a;stroke-width:0.2;stroke-miterlimit:4;stroke-dasharray:none;stroke-opacity:1"
             d="m -25.193219,172.78737 -4.844262,3.84201 -2.071338,-1.1359 -0.06682,-7.41673 z"
             id="path1857"
             inkscape:connector-curvature="0" />
          <path
             style="opacity:1;fill:#ff9955;fill-opacity:1;stroke:#1a1a1a;stroke-width:0.2;stroke-miterlimit:4;stroke-dasharray:none;stroke-opacity:1"
             d="m -18.244213,150.40355 -7.784225,3.54132 7.550365,5.14494 z"
             id="path1859"
             inkscape:connector-curvature="0" />
          <path
             style="opacity:1;fill:#ff9955;fill-opacity:1;stroke:#1a1a1a;stroke-width:0.2;stroke-miterlimit:4;stroke-dasharray:none;stroke-opacity:1"
             d="m -18.478073,159.08981 -7.817633,3.47451 0.267268,-8.61945 z"
             id="path1861"
             inkscape:connector-curvature="0" />
          <path
             style="opacity:1;fill:#ff9955;fill-opacity:1;stroke:#1a1a1a;stroke-width:0.2;stroke-miterlimit:4;stroke-dasharray:none;stroke-opacity:1"
             d="m -18.478073,159.08981 -7.817633,3.47451 4.009043,6.38106 z"
             id="path1863"
             inkscape:connector-curvature="0" />
          <path
             style="opacity:1;fill:#ff9955;fill-opacity:1;stroke:#1a1a1a;stroke-width:0.2;stroke-miterlimit:4;stroke-dasharray:none;stroke-opacity:1"
             d="m -18.945796,146.09383 -2.405425,-3.94222 1.80407,-0.15034 z"
             id="path1865"
             inkscape:connector-curvature="0" />
          <path
             style="opacity:1;fill:#ff9955;fill-opacity:1;stroke:#1a1a1a;stroke-width:0.2;stroke-miterlimit:4;stroke-dasharray:none;stroke-opacity:1"
             d="m -14.920047,137.94211 2.255086,-0.4009 5.7797041,1.30294 -6.1806081,0.26726 z"
             id="path1867"
             inkscape:connector-curvature="0" />
          <path
             style="opacity:1;fill:#ff9955;fill-opacity:1;stroke:#1a1a1a;stroke-width:0.2;stroke-miterlimit:4;stroke-dasharray:none;stroke-opacity:1"
             d="m -13.600406,140.38095 7.7842271,1.46998 -7.2496861,-2.73952 z"
             id="path1869"
             inkscape:connector-curvature="0" />
          <path
             style="opacity:1;fill:#ff9955;fill-opacity:1;stroke:#1a1a1a;stroke-width:0.2;stroke-miterlimit:4;stroke-dasharray:none;stroke-opacity:1"
             d="m -6.8852569,138.84415 3.357573,1.57021 -9.5381811,-1.30295 z"
             id="path1871"
             inkscape:connector-curvature="0" />
          <path
             style="opacity:1;fill:#ff9955;fill-opacity:1;stroke:#1a1a1a;stroke-width:0.2;stroke-miterlimit:4;stroke-dasharray:none;stroke-opacity:1"
             d="m -13.065865,139.11141 7.2496861,2.73952 2.288495,-1.43657 z"
             id="path1873"
             inkscape:connector-curvature="0" />
          <path
             style="opacity:1;fill:#ff9955;fill-opacity:1;stroke:#1a1a1a;stroke-width:0.2;stroke-miterlimit:4;stroke-dasharray:none;stroke-opacity:1"
             d="m -19.547151,142.00127 0.601355,4.09256 4.025749,-8.15172 z"
             id="path1875"
             inkscape:connector-curvature="0" />
          <path
             style="opacity:1;fill:#ff9955;fill-opacity:1;stroke:#1a1a1a;stroke-width:0.2;stroke-miterlimit:4;stroke-dasharray:none;stroke-opacity:1"
             d="m -13.065865,139.11141 -5.879931,6.98242 4.025749,-8.15172 z"
             id="path1877"
             inkscape:connector-curvature="0" />
          <path
             style="opacity:1;fill:#ff9955;fill-opacity:1;stroke:#1a1a1a;stroke-width:0.2;stroke-miterlimit:4;stroke-dasharray:none;stroke-opacity:1"
             d="m -13.065865,139.11141 -5.879931,6.98242 5.34539,-5.71288 z"
             id="path1879"
             inkscape:connector-curvature="0" />
          <path
             style="opacity:1;fill:#ff9955;fill-opacity:1;stroke:#1a1a1a;stroke-width:0.2;stroke-miterlimit:4;stroke-dasharray:none;stroke-opacity:1"
             d="m -18.244213,150.40355 1.887593,2.12145 -0.785106,2.83974 -1.336347,3.72507 z"
             id="path1881"
             inkscape:connector-curvature="0" />
          <path
             style="opacity:1;fill:#ff9955;fill-opacity:1;stroke:#1a1a1a;stroke-width:0.2;stroke-miterlimit:4;stroke-dasharray:none;stroke-opacity:1"
             d="m -17.141726,155.36474 8.0681981,-0.0835 -7.2830921,-2.75622 z"
             id="path1883"
             inkscape:connector-curvature="0" />
          <path
             style="opacity:1;fill:#ff9955;fill-opacity:1;stroke:#1a1a1a;stroke-width:0.2;stroke-miterlimit:4;stroke-dasharray:none;stroke-opacity:1"
             d="m -9.0735279,155.28124 2.522358,-0.50115 0.451017,-1.1526 -0.751695,-1.25283 -1.553506,0.88534 z"
             id="path1885"
             inkscape:connector-curvature="0" />
          <path
             style="opacity:1;fill:#ff9955;fill-opacity:1;stroke:#1a1a1a;stroke-width:0.2;stroke-miterlimit:4;stroke-dasharray:none;stroke-opacity:1"
             d="m -6.8518479,152.37466 -9.5047721,0.15034 7.9512661,0.735 z"
             id="path1887"
             inkscape:connector-curvature="0" />
          <path
             style="opacity:1;fill:#ff9955;fill-opacity:1;stroke:#1a1a1a;stroke-width:0.2;stroke-miterlimit:4;stroke-dasharray:none;stroke-opacity:1"
             d="m -8.4053539,153.26 -0.668174,2.02124 -7.2830921,-2.75622 z"
             id="path1889"
             inkscape:connector-curvature="0" />
          <path
             style="opacity:1;fill:#ff9955;fill-opacity:1;stroke:#1a1a1a;stroke-width:0.2;stroke-miterlimit:4;stroke-dasharray:none;stroke-opacity:1"
             d="m -18.478073,159.08981 -0.128754,3.90972 -0.87407,3.23642 -2.805766,2.70943 z"
             id="path1891"
             inkscape:connector-curvature="0" />
          <path
             style="opacity:1;fill:#ff9955;fill-opacity:1;stroke:#1a1a1a;stroke-width:0.2;stroke-miterlimit:4;stroke-dasharray:none;stroke-opacity:1"
             d="m -18.606827,162.99953 3.449031,-0.14174 2.740327,1.98437 z"
             id="path1893"
             inkscape:connector-curvature="0" />
          <path
             style="opacity:1;fill:#ff9955;fill-opacity:1;stroke:#1a1a1a;stroke-width:0.2;stroke-miterlimit:4;stroke-dasharray:none;stroke-opacity:1"
             d="m -19.480897,166.23595 1.889879,-0.70871 2.882069,0.37798 -3.897878,-2.90569 z"
             id="path1895"
             inkscape:connector-curvature="0" />
          <path
             style="opacity:1;fill:#ff9955;fill-opacity:1;stroke:#1a1a1a;stroke-width:0.2;stroke-miterlimit:4;stroke-dasharray:none;stroke-opacity:1"
             d="m -18.606827,162.99953 3.897878,2.90569 2.645833,5.40978 -0.354353,-6.47284 z"
             id="path1897"
             inkscape:connector-curvature="0" />
          <path
             style="opacity:1;fill:#ff9955;fill-opacity:1;stroke:#1a1a1a;stroke-width:0.2;stroke-miterlimit:4;stroke-dasharray:none;stroke-opacity:1"
             d="m -12.063116,171.315 3.9687501,2.19699 -1.039434,0.8032 -1.7245171,-0.92132 z"
             id="path1899"
             inkscape:connector-curvature="0" />
          <path
             style="opacity:1;fill:#ff9955;fill-opacity:1;stroke:#1a1a1a;stroke-width:0.2;stroke-miterlimit:4;stroke-dasharray:none;stroke-opacity:1"
             d="m -12.417469,164.84216 4.0632461,7.39416 0.259857,1.27567 -3.9687501,-2.19699 z"
             id="path1901"
             inkscape:connector-curvature="0" />
          <path
             style="opacity:1;fill:#ff9955;fill-opacity:1;stroke:#1a1a1a;stroke-width:0.2;stroke-miterlimit:4;stroke-dasharray:none;stroke-opacity:1"
             d="m -13.099274,121.97276 -6.581513,0.30067 -4.677217,1.87089 z"
             id="path1903"
             inkscape:connector-curvature="0" />
          <path
             style="opacity:1;fill:#ff9955;fill-opacity:1;stroke:#1a1a1a;stroke-width:0.2;stroke-miterlimit:4;stroke-dasharray:none;stroke-opacity:1"
             d="m -13.099274,121.97276 0.567947,0.7684 -11.826677,1.40316 z"
             id="path1905"
             inkscape:connector-curvature="0" />
          <path
             style="opacity:1;fill:#ff9955;fill-opacity:1;stroke:#1a1a1a;stroke-width:0.2;stroke-miterlimit:4;stroke-dasharray:none;stroke-opacity:1"
             d="m -12.531327,122.74116 -0.567947,0.96885 -5.445617,0.33409 -4.209495,1.26953 -3.040192,2.53906 2.372019,-3.20724 z"
             id="path1907"
             inkscape:connector-curvature="0" />
          <path
             style="opacity:1;fill:#ff9955;fill-opacity:1;stroke:#1a1a1a;stroke-width:0.2;stroke-miterlimit:4;stroke-dasharray:none;stroke-opacity:1"
             d="m -12.531327,122.74116 -11.826677,1.40316 -3.908816,3.842 4.844261,-3.34087 z"
             id="path1909"
             inkscape:connector-curvature="0" />
          <path
             style="opacity:1;fill:#ff9955;fill-opacity:1;stroke:#1a1a1a;stroke-width:0.2;stroke-miterlimit:4;stroke-dasharray:none;stroke-opacity:1"
             d="m -23.422559,124.64545 -2.372019,3.20724 -0.818512,2.00452 -1.65373,-1.87089 z"
             id="path1911"
             inkscape:connector-curvature="0" />
          <path
             style="opacity:1;fill:#ff9955;fill-opacity:1;stroke:#1a1a1a;stroke-width:0.2;stroke-miterlimit:4;stroke-dasharray:none;stroke-opacity:1"
             d="m -26.61309,129.85721 1.557044,1.9829 0.968563,2.71671 0.141742,2.57496 -2.645833,-3.73251 z"
             id="path1913"
             inkscape:connector-curvature="0" />
          <path
             style="opacity:1;fill:#ff9955;fill-opacity:1;stroke:#1a1a1a;stroke-width:0.2;stroke-miterlimit:4;stroke-dasharray:none;stroke-opacity:1"
             d="m -23.945741,137.13178 -3.472656,-1.81901 -3.614399,-0.75595 4.419706,-4.69961 0.02151,3.54206 z"
             id="path1915"
             inkscape:connector-curvature="0" />
          <path
             style="opacity:1;fill:#ff9955;fill-opacity:1;stroke:#1a1a1a;stroke-width:0.2;stroke-miterlimit:4;stroke-dasharray:none;stroke-opacity:1"
             d="m -26.61309,129.85721 -1.65373,-1.87089 -2.954962,-0.75279 1.464656,2.74033 z"
             id="path1917"
             inkscape:connector-curvature="0" />
          <path
             style="opacity:1;fill:#ff9955;fill-opacity:1;stroke:#1a1a1a;stroke-width:0.2;stroke-miterlimit:4;stroke-dasharray:none;stroke-opacity:1"
             d="m -26.61309,129.85721 -3.144036,0.11665 -1.27567,4.58296 z"
             id="path1919"
             inkscape:connector-curvature="0" />
          <path
             inkscape:connector-curvature="0"
             id="path1925"
             d="m -35.869004,127.23353 -1.464656,2.74033 1.27567,4.58296 2.512597,-4.6495 z"
             style="opacity:1;fill:#ff9955;fill-opacity:1;stroke:#1a1a1a;stroke-width:0.2;stroke-miterlimit:4;stroke-dasharray:none;stroke-opacity:1" />
          <path
             style="opacity:1;fill:#ff9955;fill-opacity:1;stroke:#1a1a1a;stroke-width:0.2;stroke-miterlimit:4;stroke-dasharray:none;stroke-opacity:1"
             d="m -31.221782,127.23353 1.464656,2.74033 -1.27567,4.58296 -2.512597,-4.6495 z"
             id="path1927"
             inkscape:connector-curvature="0" />
          <path
             inkscape:connector-curvature="0"
             id="path1929"
             d="m -33.545393,129.90732 -2.512597,4.6495 h 5.025194 z"
             style="opacity:1;fill:#ff9955;fill-opacity:1;stroke:#1a1a1a;stroke-width:0.2;stroke-miterlimit:4;stroke-dasharray:none;stroke-opacity:1" />
          <path
             inkscape:connector-curvature="0"
             id="path1933"
             d="m -31.221783,127.23353 -2.323608,-0.56696 -2.323613,0.56696 2.323613,2.67379 z"
             style="opacity:1;fill:#ff9955;fill-opacity:1;stroke:#1a1a1a;stroke-width:0.2;stroke-miterlimit:4;stroke-dasharray:none;stroke-opacity:1" />
        </g>
      </g>
      <g
         aria-label="bugzero"
         style="font-style:normal;font-variant:normal;font-weight:normal;font-stretch:normal;font-size:1.41111112px;line-height:1;font-family:Calibri;-inkscape-font-specification:'Calibri, Normal';font-variant-ligatures:normal;font-variant-caps:small-caps;font-variant-numeric:normal;text-align:justify;letter-spacing:0px;word-spacing:0px;writing-mode:lr-tb;text-anchor:start;fill:#ff9955;fill-opacity:1;stroke:none;stroke-width:0.26458332"
         id="text903">
        <path
           d="m 61.604417,66.870757 q 1.827279,0.483691 3.063379,0.698665 1.289844,0.214974 2.31097,0.214974 4.944401,0 8.276497,-4.030762 3.332097,-4.030761 3.332097,-10.211263 0,-5.589323 -2.794662,-8.975162 -2.740918,-3.439584 -7.147884,-3.439584 -1.2361,0 -3.009635,0.644922 -1.719792,0.591179 -4.030762,1.881022 z M 44.782705,80.306629 V 1.3036999 l 16.821712,-2.31097 V 31.668771 q 3.22461,-1.666048 6.180501,-2.4722 3.009636,-0.859896 5.804297,-0.859896 9.888802,0 16.01556,7.040397 6.126758,6.986654 6.126758,18.272786 0,11.931055 -7.309115,19.240169 -7.255371,7.309115 -19.132682,7.309115 -1.504818,0 -3.38584,-0.214974 -1.881022,-0.16123 -4.245735,-0.537435 l -6.126758,-1.451074 z"
           style="font-style:normal;font-variant:normal;font-weight:normal;font-stretch:normal;font-size:110.06666565px;line-height:1;font-family:'Geometr415 Blk BT';-inkscape-font-specification:'Geometr415 Blk BT';fill:#ff9955;fill-opacity:1;stroke-width:0.26458332"
           id="path906"
           inkscape:connector-curvature="0" />
        <path
           d="m 137.22151,29.572775 h 16.71422 v 48.422884 l -15.53187,2.31097 v -9.458854 q -3.92327,4.836914 -8.22275,7.147884 -4.29948,2.31097 -9.40511,2.31097 -7.68532,0 -11.71608,-4.406966 -3.97702,-4.406966 -3.97702,-12.898438 v -33.42845 h 16.82171 v 28.699023 q 0,3.815788 1.55856,5.804297 1.55857,1.934766 4.62194,1.934766 4.40697,0 6.77168,-2.955892 2.36472,-3.009635 2.36472,-8.598958 z"
           style="font-style:normal;font-variant:normal;font-weight:normal;font-stretch:normal;font-size:110.06666565px;line-height:1;font-family:'Geometr415 Blk BT';-inkscape-font-specification:'Geometr415 Blk BT';fill:#ff9955;fill-opacity:1;stroke-width:0.26458332"
           id="path908"
           inkscape:connector-curvature="0" />
        <path
           d="m 197.79042,41.880034 q -1.50482,-0.859896 -2.90215,-1.2361 -1.34358,-0.376204 -2.68717,-0.376204 -4.78317,0 -8.06152,4.030761 -3.27836,3.977018 -3.27836,10.050033 0,5.69681 2.84841,9.512597 2.90215,3.762044 7.04039,3.762044 1.61231,0 3.38584,-0.913639 1.82728,-0.913639 3.65456,-2.687174 z m 16.87546,-12.307259 v 43.908431 q 0,6.664192 -0.64492,9.996289 -0.64493,3.38584 -2.096,6.180501 -3.00964,5.804297 -8.76019,8.760189 -5.75055,3.009635 -13.91956,3.009635 -4.89066,0 -9.94255,-1.07487 -4.99814,-1.074869 -10.64121,-3.332096 l -0.21497,-13.435872 q 5.37435,2.902148 9.78131,4.245735 4.40697,1.397331 8.2765,1.397331 5.64307,0 8.76019,-2.687174 3.11712,-2.687175 3.11712,-7.577832 v -3.278353 q -2.90215,1.827278 -5.75055,2.687174 -2.84841,0.859896 -6.01927,0.859896 -10.26501,0 -16.60674,-6.879166 -6.28799,-6.879167 -6.28799,-18.111556 0,-11.662337 7.14788,-19.293913 7.14789,-7.685319 18.05782,-7.685319 2.52594,0 5.26686,0.698666 2.74092,0.698665 6.07301,2.149739 z"
           style="font-style:normal;font-variant:normal;font-weight:normal;font-stretch:normal;font-size:110.06666565px;line-height:1;font-family:'Geometr415 Blk BT';-inkscape-font-specification:'Geometr415 Blk BT';fill:#ff9955;fill-opacity:1;stroke-width:0.26458332"
           id="path910"
           inkscape:connector-curvature="0" />
        <path
           d="m 220.68515,77.995659 21.65863,-35.685677 h -18.70274 l 2.95589,-12.737207 h 42.5111 l -21.65862,35.631933 h 21.0137 l -1.98851,12.790951 z"
           style="font-style:normal;font-variant:normal;font-weight:normal;font-stretch:normal;font-size:110.06666565px;line-height:1;font-family:'Geometr415 Blk BT';-inkscape-font-specification:'Geometr415 Blk BT';fill:#1a1a1a;fill-opacity:1;stroke-width:0.26458332"
           id="path912"
           inkscape:connector-curvature="0" />
        <path
           d="m 290.39046,49.242892 21.0137,-0.644922 v -0.752409 q 0,-3.815787 -2.68717,-6.234244 -2.68718,-2.472201 -6.77168,-2.472201 -4.5682,0 -7.63158,2.687175 -3.06337,2.633431 -3.92327,7.416601 z m 32.13861,11.447363 -1.88103,14.886947 q -4.9444,2.364713 -9.72757,3.493327 -4.78317,1.128613 -9.67383,1.128613 -12.09228,0 -19.50888,-6.93291 -7.4166,-6.986654 -7.4166,-18.165299 0,-11.662338 8.11526,-19.670117 8.11527,-8.061524 19.72386,-8.061524 9.94255,0 16.28428,5.911784 6.39548,5.85804 6.39548,15.209407 0,1.451075 -0.21498,4.62194 l -0.0537,0.322461 -1.50482,2.203483 -33.05224,0.91364 q 0.3762,4.890657 4.0845,7.954036 3.7083,3.009636 9.35137,3.009636 3.97702,0 8.81393,-1.719792 4.89066,-1.719792 10.26501,-5.105632 z"
           style="font-style:normal;font-variant:normal;font-weight:normal;font-stretch:normal;font-size:110.06666565px;line-height:1;font-family:'Geometr415 Blk BT';-inkscape-font-specification:'Geometr415 Blk BT';fill:#1a1a1a;fill-opacity:1;stroke-width:0.26458332"
           id="path914"
           inkscape:connector-curvature="0" />
        <path
           d="m 351.49679,77.995659 h -16.9292 V 29.572775 h 15.74685 l 0.32246,8.491471 q 2.90215,-5.105631 6.77168,-7.416601 3.92327,-2.31097 9.72757,-2.31097 h 1.34359 v 18.057812 h -1.77354 -1.88102 q -7.90029,0 -10.64121,1.827279 -2.68718,1.773535 -2.68718,8.652702 z"
           style="font-style:normal;font-variant:normal;font-weight:normal;font-stretch:normal;font-size:110.06666565px;line-height:1;font-family:'Geometr415 Blk BT';-inkscape-font-specification:'Geometr415 Blk BT';fill:#1a1a1a;fill-opacity:1;stroke-width:0.26458332"
           id="path916"
           inkscape:connector-curvature="0" />
        <path
           d="m 391.32072,53.757345 q 0,6.180502 2.63343,9.996289 2.68717,3.762045 6.82542,3.762045 4.13825,0 6.77168,-3.815788 2.68718,-3.815788 2.68718,-9.942546 0,-6.073014 -2.68718,-9.888802 -2.63343,-3.869531 -6.77168,-3.869531 -4.13825,0 -6.82542,3.815788 -2.63343,3.815788 -2.63343,9.942545 z m -17.19792,0 q 0,-11.55485 7.52409,-19.025195 7.57783,-7.470345 19.13268,-7.470345 11.6086,0 19.18643,7.470345 7.57783,7.470345 7.57783,19.025195 0,11.55485 -7.57783,19.078939 -7.57783,7.470345 -19.18643,7.470345 -11.5011,0 -19.07894,-7.470345 -7.57783,-7.524089 -7.57783,-19.078939 z"
           style="font-style:normal;font-variant:normal;font-weight:normal;font-stretch:normal;font-size:110.06666565px;line-height:1;font-family:'Geometr415 Blk BT';-inkscape-font-specification:'Geometr415 Blk BT';fill:#1a1a1a;fill-opacity:1;stroke-width:0.26458332"
           id="path918"
           inkscape:connector-curvature="0" />
      </g>
    </g>
    <text
       xml:space="preserve"
       style="font-style:normal;font-variant:normal;font-weight:normal;font-stretch:normal;font-size:1.41111112px;line-height:1;font-family:Calibri;-inkscape-font-specification:'Calibri, Normal';font-variant-ligatures:normal;font-variant-caps:small-caps;font-variant-numeric:normal;text-align:justify;letter-spacing:0px;word-spacing:0px;writing-mode:lr-tb;text-anchor:start;fill:#000000;fill-opacity:1;stroke:none;stroke-width:0.26458332"
       x="55.057518"
       y="243.5461"
       id="text1109"><tspan
         sodipodi:role="line"
         id="tspan1107"
         x="55.057518"
         y="244.60443"
         style="stroke-width:0.26458332" /></text>
  </g>
</svg>
