<?xml version="1.0" encoding="utf-8"?>
<!-- Generator: Adobe Illustrator 24.0.0, SVG Export Plug-In . SVG Version: 6.00 Build 0)  -->
<svg version="1.1" xmlns="http://www.w3.org/2000/svg" xmlns:xlink="http://www.w3.org/1999/xlink" x="0px" y="0px"
	 viewBox="0 0 436.91 373.35" style="enable-background:new 0 0 436.91 373.35;" xml:space="preserve">
<style type="text/css">
	.st0{display:none;}
	.st1{display:inline;}
	.st2{fill:#231F20;}
	.st3{display:inline;fill:none;stroke:#231F20;stroke-width:8;stroke-miterlimit:10;}
	.st4{fill:#3B7FB2;stroke:#000000;stroke-width:2;stroke-miterlimit:10;}
	.st5{fill:#D32027;}
	.st6{fill:#DEDFE0;}
	.st7{fill:#61AC47;}
</style>
<g id="Bk" class="st0">
	<g class="st1">
		<path class="st2" d="M517.58,101.88c0.1,8.23-1.58,16.68-5.08,24.49c-1.75,3.9-3.89,7.66-6.39,11.18
			c-0.65,0.86-1.36,1.67-2.09,2.45l-2.27,2.28l-2.31,2.23l-2.39,2.14c-6.47,5.57-13.69,10.12-21.22,13.88
			c-7.54,3.76-15.41,6.74-23.44,9.09l-2-6.71c-4.9,5.65-1.4,2.08-2.48,3.31l0,0.09c0,0.02,0,0.01,0,0l-0.01-0.13l-0.03-0.34
			l-0.06-0.87l-0.09-1.55l-0.15-3.09c-0.11-2.06-0.15-4.12-0.23-6.17c-0.11-4.11-0.18-8.23-0.17-12.34
			c0.01-8.22,0.21-16.45,0.74-24.67l0.39-6.16l0.56-6.16c0.31-4.11,0.91-8.2,1.39-12.29c0.22-2.05,0.59-4.09,0.91-6.13l0.99-6.12
			c0.37-2.03,0.82-4.06,1.23-6.09c0.44-2.02,0.79-4.07,1.31-6.08c2-8.06,4.36-16.06,7.47-23.85c3.18-7.75,7.13-15.31,12.36-22.12
			c1.31-1.7,2.7-3.34,4.17-4.92c1.48-1.56,2.91-3.23,4.69-4.5c3.53-2.56,7.37-4.7,11.38-6.27c4.02-1.59,8.22-2.51,12.41-2.91
			c2.11-0.19,4.21-0.22,6.31-0.02c1.04,0.1,2.05,0.23,3.07,0.35c0.49,0.06,1.06,0.09,1.56,0.3c0.5,0.19,0.95,0.45,1.36,0.76
			c-0.47-0.21-0.96-0.36-1.45-0.42c-0.49-0.08-0.95,0-1.48,0.05c-1.02,0.1-2.05,0.17-3.05,0.29c-1.98,0.24-3.95,0.68-5.85,1.22
			c-3.82,1.11-7.43,2.76-10.75,4.76c-3.32,2.01-6.31,4.45-8.97,7.2c-1.31,1.38-2.83,2.56-4.13,3.97c-1.31,1.4-2.56,2.88-3.74,4.41
			c-4.72,6.14-8.42,13.17-11.42,20.49c-2.93,7.37-5.21,15.05-7.14,22.82c-0.51,1.94-0.84,3.92-1.27,5.88
			c-0.4,1.97-0.83,3.93-1.2,5.9l-0.96,5.96c-0.31,1.99-0.67,3.97-0.89,5.97c-0.47,4-1.05,7.99-1.36,12.02l-0.55,6.03l-0.39,6.05
			c-0.52,8.06-0.72,16.16-0.73,24.25c-0.01,4.05,0.06,8.09,0.16,12.13c0.08,2.02,0.12,4.04,0.23,6.05l0.15,3.02l0.09,1.5l0.04,0.65
			l0.04,0.42l0.02,0.25l0.01,0.19l0,0.18c-1.08,1.26,2.42-2.28-2.49,3.4l-2-6.71c7.68-2.25,15.17-5.1,22.29-8.64
			c7.11-3.55,13.83-7.81,19.78-12.92l2.19-1.96l2.1-2.04c0.66-0.72,1.32-1.43,1.96-2.17c0.61-0.76,1.26-1.48,1.94-2.18
			c2.74-2.77,5.27-5.77,7.48-9.04C512.59,117.45,515.78,109.93,517.58,101.88z"/>
	</g>
	<g class="st1">
		<path class="st2" d="M521.85,101.88c0.89,4.07,2.16,8,3.75,11.74c1.6,3.74,3.6,7.24,5.85,10.52c2.25,3.28,4.88,6.25,7.66,9.01
			c0.69,0.7,1.33,1.44,1.96,2.19c0.67,0.71,1.34,1.43,2.04,2.12l2.17,1.99l2.26,1.9c6.14,4.96,13.12,8.93,20.48,11.97
			c7.37,3.03,15.15,5.14,23.06,6.32l-1.06,6.92c-5.87-6.16-1.65-2.05-2.96-3.43l0-0.13l0-0.15l0-0.23l0.01-0.4l0.01-0.68l0.01-1.48
			l0-2.98c0.01-1.98-0.04-3.98-0.07-5.97c-0.09-3.98-0.19-7.96-0.39-11.94c-0.15-3.98-0.44-7.95-0.68-11.93
			c-0.32-3.97-0.62-7.94-1.02-11.9c-1.61-15.83-4.04-31.59-7.97-46.89l-0.71-2.88c-0.26-0.95-0.57-1.89-0.85-2.83l-1.72-5.65
			c-0.52-1.91-1.28-3.71-1.95-5.55l-2.05-5.51c-2.97-7.23-6.56-14.18-11.11-20.32c-1.14-1.53-2.33-3.01-3.59-4.42
			c-1.27-1.4-2.72-2.6-3.95-4.02c-2.55-2.76-5.43-5.21-8.66-7.2c-3.22-1.97-6.78-3.55-10.56-4.55c-1.89-0.49-3.81-0.85-5.79-1.04
			c-1-0.1-1.98-0.2-2.96-0.18c-0.49,0.01-0.98,0.06-1.47,0.15c-0.48,0.08-0.96,0.22-1.33,0.58c0.27-0.43,0.76-0.71,1.23-0.91
			c0.47-0.21,0.97-0.37,1.47-0.49c1.01-0.25,2.05-0.36,3.05-0.47c2.03-0.24,4.12-0.3,6.2-0.16c4.15,0.28,8.33,1.14,12.3,2.74
			c3.97,1.57,7.72,3.76,11.15,6.36c1.75,1.27,3.14,2.92,4.54,4.51c1.41,1.59,2.75,3.23,4,4.92c5.01,6.78,8.83,14.21,11.95,21.82
			l2.15,5.77c0.7,1.93,1.5,3.83,2.04,5.8l1.78,5.87c0.29,0.98,0.61,1.95,0.88,2.94l0.74,2.96c4.06,15.79,6.52,31.86,8.16,47.96
			c0.41,4.03,0.72,8.06,1.04,12.09c0.25,4.04,0.54,8.07,0.69,12.11c0.2,4.04,0.31,8.08,0.4,12.13c0.02,2.02,0.08,4.04,0.07,6.07
			l0,3.04l-0.01,1.53l-0.01,0.82l-0.01,0.35l0,0.15l0,0.04c0,0.01,0-0.02,0-0.03c-1.3-1.35,2.91,2.79-2.95-3.33l-1.06,6.92
			c-8.46-1.26-16.76-3.51-24.69-6.77c-7.92-3.26-15.48-7.56-22.22-13l-2.48-2.09l-2.4-2.2c-0.77-0.77-1.55-1.52-2.34-2.27
			c-0.76-0.78-1.52-1.56-2.22-2.4c-2.64-3.49-4.84-7.29-6.66-11.21C523.42,118.76,521.69,110.2,521.85,101.88z"/>
	</g>
	<g class="st1">
		<path class="st2" d="M519.85,109.64c-1.66-8.91-2.52-17.81-3.13-26.72c-0.59-8.91-0.86-17.81-0.86-26.72
			c-0.01-8.91,0.27-17.81,0.85-26.72c0.62-8.91,1.48-17.81,3.15-26.72c1.67,8.91,2.53,17.81,3.15,26.72
			c0.59,8.91,0.86,17.81,0.85,26.72c0,8.91-0.28,17.81-0.86,26.72C522.37,91.83,521.51,100.73,519.85,109.64z"/>
	</g>
	<path class="st3" d="M499.46,6.06"/>
	<g class="st1">
		<path class="st2" d="M486.26,14.88c0.46-1.98,1.11-3.9,1.83-5.79c0.71-1.9,1.55-3.75,2.45-5.57c1.82-3.64,4.01-7.14,6.61-10.4
			c2.61-3.25,5.67-6.29,9.38-8.73c1.85-1.22,3.89-2.25,6.07-3.04c2.19-0.78,4.55-1.23,6.95-1.32c2.4-0.06,4.81,0.27,7.07,0.95
			c2.26,0.7,4.37,1.7,6.27,2.91c3.8,2.45,6.83,5.59,9.37,8.92c5,6.74,8.28,14.25,10.3,22.07c-4.99-6.34-9.67-12.67-15.03-17.93
			c-2.69-2.59-5.51-4.92-8.51-6.54c-3-1.62-6.11-2.5-9.22-2.39c-3.11,0.05-6.28,1.14-9.32,2.83c-3.05,1.69-5.95,3.98-8.72,6.52
			c-2.77,2.54-5.4,5.37-7.95,8.31C491.23,8.63,488.76,11.71,486.26,14.88z"/>
	</g>
	<g class="st1">
		<path class="st2" d="M510.56-15.16c-2.36,0.38-4.35-0.06-6.14-0.79c-1.79-0.74-3.32-1.86-4.6-3.22c-1.27-1.36-2.3-2.97-2.92-4.8
			c-0.61-1.83-0.92-3.84-0.37-6.18c2.31,0.62,3.93,1.48,5.4,2.4c1.45,0.92,2.65,1.96,3.73,3.11c1.07,1.16,2.03,2.43,2.86,3.94
			C509.34-19.17,510.09-17.5,510.56-15.16z"/>
	</g>
	<g class="st1">
		<path class="st2" d="M530.25-15.16c0.47-2.34,1.22-4.01,2.04-5.53c0.82-1.51,1.78-2.78,2.86-3.94c1.08-1.15,2.28-2.19,3.73-3.11
			c1.46-0.92,3.08-1.77,5.4-2.4c0.55,2.34,0.24,4.35-0.37,6.18c-0.62,1.83-1.64,3.44-2.92,4.8c-1.28,1.35-2.82,2.48-4.6,3.22
			C534.6-15.22,532.62-14.77,530.25-15.16z"/>
	</g>
	<g class="st1">
		<path class="st2" d="M488.69,148.78c5.24,2.39,10.32,4.44,15.44,6.02c5.11,1.57,10.24,2.66,15.35,2.84
			c0.64,0.05,1.28,0.05,1.91,0.05c0.64,0,1.28,0.01,1.91-0.05c0.63-0.04,1.27-0.04,1.91-0.1c0.63-0.07,1.26-0.16,1.9-0.21
			c2.52-0.35,5.03-0.9,7.53-1.66c4.99-1.57,9.83-4.04,14.86-6.89c-2.99,4.94-7.4,9.09-12.71,11.96c-2.66,1.42-5.55,2.44-8.52,3.13
			c-2.98,0.66-6.06,0.87-9.1,0.76c-6.1-0.23-11.97-2.05-17.17-4.77C496.83,157.09,492.14,153.46,488.69,148.78z"/>
	</g>
	<g class="st1">
		<path class="st2" d="M517.31,103.1c-0.09-0.71,0.08-1.35,0.42-1.95c0.35-0.56,0.94-1.2,1.96-1.3c0.25-0.02,0.5-0.01,0.73,0.08
			c0.25,0.07,0.46,0.16,0.63,0.3c0.39,0.25,0.58,0.57,0.79,0.88c0.15,0.32,0.25,0.65,0.31,0.97c0.02,0.34,0.04,0.67-0.04,1.02
			c-0.33-0.17-0.57-0.35-0.82-0.53c-0.23-0.17-0.47-0.31-0.66-0.45c-0.43-0.26-0.68-0.29-0.8-0.27c-0.15-0.01-0.53,0.12-0.96,0.38
			C518.42,102.48,517.94,102.8,517.31,103.1z"/>
	</g>
</g>
<g id="Layer_7">
	<circle class="st4" cx="217.66" cy="188.75" r="162.36"/>
</g>
<g id="Layer_6">
	<g>
		<g>
			<path d="M124.57,271.5h5.01v31.95h-5.01V271.5z M127.21,298.71h9.21c1.95,0,3.39-0.4,4.33-1.19s1.41-1.9,1.41-3.34v-0.07
				c0-0.98-0.18-1.82-0.54-2.53s-0.92-1.25-1.67-1.63s-1.7-0.57-2.82-0.57h-9.91v-4.66h9.91c1.51,0,2.65-0.36,3.44-1.09
				c0.78-0.72,1.18-1.78,1.18-3.17s-0.42-2.44-1.26-3.15c-0.84-0.71-2.09-1.07-3.75-1.07h-9.51v-4.75h10.11
				c2.07,0,3.81,0.35,5.23,1.04c1.42,0.7,2.49,1.69,3.2,2.98c0.71,1.29,1.07,2.83,1.07,4.64c0,1.16-0.22,2.22-0.67,3.17
				c-0.45,0.96-1.12,1.77-2.01,2.42c-0.89,0.65-1.99,1.1-3.3,1.33c1.33,0.19,2.48,0.64,3.44,1.34c0.96,0.7,1.69,1.59,2.2,2.67
				c0.5,1.08,0.76,2.27,0.76,3.59v0.07c0,1.77-0.38,3.31-1.14,4.63c-0.76,1.31-1.86,2.32-3.31,3.02c-1.44,0.7-3.14,1.05-5.09,1.05
				h-10.48V298.71z"/>
			<path d="M158.21,294.51c0,1.42,0.37,2.52,1.12,3.3s1.79,1.16,3.14,1.16s2.39-0.36,3.12-1.09c0.73-0.72,1.1-1.75,1.1-3.09
				l0.31,4.86c-0.45,1.17-1.2,2.15-2.23,2.94c-1.03,0.79-2.3,1.19-3.79,1.19c-2.49,0-4.41-0.8-5.77-2.41
				c-1.36-1.6-2.03-3.86-2.03-6.78v-13.95h5.03V294.51z M166.69,280.64h5.01v22.81h-5.01V280.64z"/>
			<path d="M181.13,302.7c-1.17-0.75-2.06-1.83-2.67-3.25s-0.91-3.13-0.91-5.12v-4.53c0-2.01,0.3-3.72,0.9-5.15
				c0.6-1.43,1.48-2.52,2.63-3.26c1.15-0.75,2.53-1.12,4.14-1.12c1.3,0,2.49,0.36,3.57,1.07c1.08,0.71,1.94,1.72,2.6,3.02
				l-0.46,4.79c0-0.89-0.16-1.66-0.48-2.3c-0.32-0.64-0.79-1.12-1.4-1.45c-0.61-0.33-1.34-0.49-2.21-0.49c-1.35,0-2.4,0.43-3.14,1.3
				s-1.12,2.08-1.12,3.65v4.48c0,1.55,0.37,2.75,1.12,3.59c0.75,0.84,1.79,1.26,3.14,1.26c0.86,0,1.6-0.17,2.21-0.5
				s1.07-0.82,1.4-1.46c0.32-0.64,0.48-1.4,0.48-2.3l0.31,4.94c-0.45,1.17-1.19,2.13-2.2,2.86c-1.01,0.73-2.24,1.1-3.69,1.1
				C183.71,303.82,182.3,303.45,181.13,302.7z M181.3,311.77c-1.38-0.64-2.45-1.53-3.21-2.69l3.38-3.1
				c0.57,0.72,1.25,1.27,2.02,1.66c0.78,0.39,1.59,0.58,2.44,0.58c1.55,0,2.77-0.42,3.66-1.27c0.89-0.85,1.33-2.05,1.33-3.6v-22.7
				h5.03v22.13c0,2.09-0.39,3.89-1.16,5.38s-1.91,2.63-3.39,3.41c-1.49,0.78-3.29,1.17-5.39,1.17
				C184.25,312.72,182.68,312.41,181.3,311.77z"/>
			<path d="M217.54,289.59v4.83h-15.07v-4.83H217.54z"/>
			<path d="M242.89,275.92l-13.62,22.72h14.06v4.81h-20.17v-4.42l13.69-22.72h-13.29v-4.81h19.34V275.92z"/>
			<path d="M252.53,302.59c-1.52-0.79-2.67-1.95-3.47-3.48c-0.8-1.53-1.2-3.38-1.2-5.55v-2.57c0-2.25,0.38-4.18,1.14-5.78
				s1.87-2.81,3.33-3.65c1.46-0.83,3.22-1.25,5.28-1.25c1.93,0,3.59,0.48,4.97,1.45s2.42,2.37,3.14,4.21
				c0.72,1.84,1.08,4.05,1.08,6.63v1.49h-15.45v-3.78h10.74l-0.02-0.18c-0.15-1.67-0.6-2.97-1.37-3.89
				c-0.77-0.92-1.8-1.38-3.09-1.38c-1.61,0-2.86,0.51-3.74,1.54s-1.32,2.48-1.32,4.35v2.9c0,1.77,0.47,3.13,1.42,4.09
				c0.94,0.95,2.29,1.43,4.03,1.43c0.86,0,1.73-0.17,2.58-0.5c0.86-0.34,1.63-0.81,2.32-1.43l3.3,3.14
				c-1.14,1.08-2.43,1.92-3.87,2.52c-1.44,0.59-2.88,0.89-4.33,0.89C255.87,303.78,254.04,303.39,252.53,302.59z"/>
			<path d="M272.64,280.64h5.19v22.81h-5.19V280.64z M283.95,285.44c-0.54-0.21-1.16-0.32-1.88-0.32c-1.35,0-2.39,0.39-3.13,1.18
				c-0.74,0.78-1.11,1.87-1.11,3.26l-0.46-4.94c0.67-1.36,1.55-2.42,2.63-3.18c1.08-0.75,2.26-1.13,3.55-1.13
				c1.01,0,1.93,0.15,2.75,0.45c0.82,0.3,1.53,0.74,2.13,1.33l-3.14,4.29C284.93,285.97,284.48,285.66,283.95,285.44z"/>
			<path d="M295.57,302.62c-1.43-0.78-2.52-1.91-3.26-3.39c-0.75-1.49-1.12-3.28-1.12-5.37v-3.71c0-2.07,0.37-3.83,1.12-5.31
				c0.75-1.47,1.83-2.59,3.26-3.36c1.43-0.77,3.15-1.15,5.17-1.15s3.75,0.38,5.17,1.15c1.43,0.77,2.52,1.89,3.26,3.36
				c0.75,1.47,1.12,3.24,1.12,5.31v3.78c0,2.08-0.37,3.86-1.12,5.33c-0.75,1.47-1.83,2.6-3.26,3.37c-1.43,0.78-3.15,1.17-5.17,1.17
				S297,303.39,295.57,302.62z M304.09,297.64c0.79-0.89,1.19-2.13,1.19-3.72v-3.78c0-1.6-0.4-2.83-1.19-3.7
				c-0.79-0.87-1.9-1.31-3.34-1.31s-2.55,0.44-3.34,1.31c-0.79,0.87-1.19,2.11-1.19,3.7v3.78c0,1.6,0.39,2.84,1.18,3.72
				c0.78,0.89,1.9,1.33,3.35,1.33C302.18,298.97,303.3,298.53,304.09,297.64z"/>
		</g>
	</g>
</g>
<g id="Zeroes">
	<g>
		<g id="XMLID_1_">
			<g>
				<path d="M293.05,242.83c0.45,0.51,0.23,0.33,0,0.13v-0.1V242.83z"/>
				<path d="M293.09,237.12v3.04l-0.01,1.53l-0.02,0.82l-0.01,0.32c-0.37-0.42-1.22-1.33-2.95-3.14l-1.06,6.92
					c-0.01,0-0.02,0-0.03,0c-8.45-1.27-16.75-3.51-24.66-6.77c-5.96-2.46-11.72-5.5-17.07-9.17l-0.92-0.65
					c-1.44-1.02-2.86-2.07-4.23-3.18l-2.48-2.09l-2.4-2.2c-0.77-0.76-1.55-1.52-2.34-2.27c-0.76-0.78-1.52-1.56-2.22-2.4
					c-2.63-3.49-4.83-7.29-6.65-11.21c-3.48-7.51-5.19-15.66-5.2-23.63h0.26c0.88,3.67,2.04,7.23,3.48,10.62
					c1.6,3.74,3.6,7.25,5.85,10.52c2.25,3.28,4.88,6.25,7.66,9.01c0.69,0.7,1.33,1.44,1.96,2.19c0.67,0.72,1.34,1.43,2.05,2.12
					l2.17,2l2.26,1.9c6.14,4.96,13.11,8.93,20.48,11.97c6.13,2.52,12.55,4.39,19.08,5.63v-1.86c0.01-1.98-0.04-3.98-0.07-5.97
					c-0.09-3.97-0.19-7.96-0.39-11.93c-0.15-3.99-0.44-7.96-0.68-11.93c-0.25-3.16-0.5-6.32-0.79-9.47
					c0.78,0.54,1.54,1.03,2.29,1.46l2.52-4.32l1.92-0.26c0.41,4.02,0.72,8.06,1.04,12.09c0.25,4.04,0.54,8.07,0.69,12.11
					c0.21,4.04,0.31,8.08,0.4,12.13C293.05,233.07,293.1,235.09,293.09,237.12z"/>
				<path d="M293.05,243.01L293.05,243.01c-0.47-0.47-0.23-0.25,0-0.05V243.01z"/>
				<path d="M290.89,194.72l-1.92,0.26c-2-1.16-3.87-2.56-5.53-4.09c-0.48-4.38-1.04-8.74-1.68-13.09c0.19,0.08,0.38,0.17,0.57,0.26
					l2.2-4.49c-1.22-0.6-2.45-1.02-3.63-1.26c-1.31-8.02-2.93-15.97-4.95-23.8l-0.71-2.87c-0.26-0.95-0.57-1.89-0.85-2.83
					l-1.72-5.66c-0.52-1.9-1.28-3.71-1.95-5.55l-2.05-5.51c-2.97-7.23-6.57-14.18-11.11-20.32c-1.13-1.54-2.33-3.01-3.59-4.42
					c-1.27-1.4-2.71-2.6-3.95-4.01c-2.55-2.76-5.44-5.22-8.66-7.21c-3.22-1.96-6.78-3.55-10.56-4.54c-1.89-0.49-3.81-0.85-5.79-1.04
					c-1.01-0.11-1.98-0.21-2.96-0.18c-0.49,0.02-0.98,0.06-1.47,0.15c-0.48,0.08-0.96,0.23-1.33,0.58c0.27-0.43,0.76-0.71,1.23-0.91
					c0.47-0.2,0.97-0.37,1.47-0.49c1.01-0.25,2.05-0.36,3.05-0.47c2.03-0.24,4.13-0.3,6.2-0.16c4.15,0.28,8.33,1.14,12.3,2.74
					c0.43,0.17,0.86,0.35,1.29,0.54c-2.67-3.32-5.37-6.49-8.28-9.35c-2.7-2.59-5.51-4.92-8.52-6.54c-2.99-1.62-6.1-2.51-9.21-2.39
					c-3.12,0.05-6.28,1.14-9.33,2.83c-3.04,1.69-5.95,3.98-8.71,6.52c-2.77,2.55-5.4,5.37-7.96,8.31c-0.53,0.62-1.05,1.26-1.58,1.89
					c0.83-0.39,1.68-0.76,2.53-1.09c4.02-1.59,8.22-2.51,12.41-2.91c2.11-0.19,4.22-0.22,6.31-0.02c1.04,0.1,2.06,0.23,3.07,0.35
					c0.49,0.06,1.06,0.1,1.56,0.3c0.5,0.19,0.95,0.46,1.36,0.76c-0.47-0.2-0.96-0.35-1.45-0.42c-0.49-0.08-0.95,0-1.48,0.05
					c-1.02,0.09-2.04,0.17-3.05,0.29c-1.98,0.24-3.95,0.68-5.85,1.21c-3.82,1.12-7.43,2.77-10.74,4.76
					c-3.32,2.02-6.31,4.46-8.97,7.21c-1.32,1.38-2.83,2.55-4.13,3.97c-1.32,1.4-2.56,2.87-3.74,4.4
					c-4.73,6.15-8.42,13.17-11.42,20.5c-2.94,7.37-5.21,15.05-7.14,22.82c-0.51,1.93-0.84,3.92-1.27,5.88
					c-0.39,1.97-0.83,3.93-1.19,5.9l-0.96,5.96c-0.21,1.34-0.45,2.67-0.64,4.01c-1.14,0.25-2.32,0.66-3.5,1.24l2.21,4.49
					c0.21-0.1,0.41-0.2,0.61-0.28c-0.35,2.84-0.71,5.68-0.93,8.54l-0.37,4.16c-1.77,1.7-3.78,3.24-5.95,4.5l-1.4-0.09l0.2-3.07
					l0.56-6.16c0.31-4.11,0.9-8.2,1.38-12.29c0.22-2.05,0.59-4.09,0.91-6.13l0.99-6.12c0.37-2.03,0.82-4.06,1.23-6.09
					c0.44-2.02,0.79-4.06,1.31-6.07c2-8.06,4.37-16.06,7.47-23.85c3.17-7.75,7.12-15.31,12.35-22.12c1.31-1.69,2.7-3.34,4.18-4.92
					c1.48-1.56,2.9-3.23,4.69-4.49c1.42-1.04,2.91-1.99,4.43-2.87c0.1-0.27,0.19-0.53,0.29-0.79c0.71-1.9,1.55-3.75,2.46-5.57
					c1.82-3.64,4-7.14,6.61-10.41c2.52-3.14,5.47-6.08,9.02-8.47c-0.61-0.16-1.19-0.35-1.75-0.58c-1.79-0.74-3.32-1.87-4.6-3.22
					c-1.28-1.36-2.3-2.97-2.92-4.8c-0.61-1.83-0.92-3.84-0.37-6.18c2.31,0.62,3.93,1.48,5.39,2.4c1.45,0.92,2.65,1.96,3.74,3.11
					c1.07,1.16,2.03,2.43,2.85,3.94c0.52,0.95,1,1.97,1.41,3.17c0.87-0.42,1.75-0.8,2.67-1.14c2.19-0.77,4.55-1.23,6.95-1.32
					c2.4-0.06,4.81,0.28,7.07,0.95c1.47,0.46,2.87,1.05,4.2,1.74c0.42-1.3,0.93-2.39,1.48-3.4c0.82-1.51,1.78-2.78,2.85-3.94
					c1.08-1.15,2.28-2.19,3.74-3.11c1.46-0.92,3.08-1.78,5.39-2.4c0.55,2.34,0.24,4.35-0.37,6.18c-0.62,1.83-1.64,3.44-2.92,4.8
					c-1.28,1.35-2.81,2.48-4.6,3.22c-0.71,0.29-1.45,0.53-2.23,0.69c3.21,2.31,5.85,5.1,8.1,8.06c3.69,4.97,6.43,10.36,8.43,15.98
					c1.72,1.01,3.38,2.12,4.98,3.33c1.75,1.27,3.13,2.92,4.54,4.51c1.41,1.58,2.75,3.23,4,4.92c5,6.78,8.82,14.21,11.95,21.82
					l2.16,5.77c0.69,1.93,1.49,3.83,2.03,5.8l1.78,5.86c0.3,0.98,0.61,1.96,0.88,2.94l0.74,2.97
					C286.79,162.55,289.25,178.62,290.89,194.72z"/>
				<path d="M288.97,194.98l-2.52,4.32c-0.75-0.43-1.51-0.92-2.29-1.46c-0.07-0.81-0.15-1.62-0.23-2.43
					c-0.15-1.51-0.32-3.02-0.49-4.52C285.1,192.42,286.97,193.82,288.97,194.98z"/>
				<path class="st5" d="M286.09,237.14V239c-6.53-1.24-12.95-3.11-19.08-5.63c-7.37-3.04-14.34-7.01-20.48-11.97l-2.26-1.9l-2.17-2
					c-0.71-0.69-1.38-1.4-2.05-2.12c-0.63-0.75-1.27-1.49-1.96-2.19c-2.78-2.76-5.41-5.73-7.66-9.01
					c-2.25-3.27-4.25-6.78-5.85-10.52c-1.44-3.39-2.6-6.95-3.48-10.62c0.05-0.3,0.04-0.6,0.03-0.9c-0.07-0.32-0.16-0.66-0.31-0.97
					c-0.16-0.24-0.31-0.48-0.54-0.7c0.77-5.83,1.28-11.66,1.68-17.5c0.59-8.9,0.86-17.81,0.87-26.72c0-8.9-0.27-17.81-0.86-26.72
					c-0.56-8.14-1.32-16.28-2.74-24.43h0.02c0.37-0.35,0.85-0.5,1.33-0.58c0.49-0.09,0.98-0.13,1.47-0.15
					c0.98-0.03,1.95,0.07,2.96,0.18c1.98,0.19,3.9,0.55,5.79,1.04c3.78,0.99,7.34,2.58,10.56,4.54c3.22,1.99,6.11,4.45,8.66,7.21
					c1.24,1.41,2.68,2.61,3.95,4.01c1.26,1.41,2.46,2.88,3.59,4.42c4.54,6.14,8.14,13.09,11.11,20.32l2.05,5.51
					c0.67,1.84,1.43,3.65,1.95,5.55l1.72,5.66c0.28,0.94,0.59,1.88,0.85,2.83l0.71,2.87c2.02,7.83,3.64,15.78,4.95,23.8
					c-2.9-0.62-5.55-0.16-7.35,1.35c-1.25,1.05-3.14,3.54-1.75,8.39c1.93,6.7,7.3,12.29,12.36,15.79c0.29,3.15,0.54,6.31,0.79,9.47
					c0.24,3.97,0.53,7.94,0.68,11.93c0.2,3.97,0.3,7.96,0.39,11.93C286.05,233.16,286.1,235.16,286.09,237.14z M275.31,219
					c3.95-3.94,1.24-12.6-6.3-20.14c-7.54-7.54-16.2-10.25-20.14-6.3c-3.95,3.94-1.24,12.6,6.3,20.14c5.21,5.2,10.95,8.11,15.3,8.11
					C272.42,220.81,274.09,220.22,275.31,219z M270.49,156.3c2.11-2.12,2.42-5.55,0.86-9.66c-1.32-3.46-3.86-7.18-7.16-10.49
					c-3.31-3.3-7.03-5.84-10.49-7.16c-4.11-1.56-7.54-1.25-9.66,0.86c-2.11,2.11-2.41,5.54-0.85,9.65
					c1.31,3.46,3.85,7.19,7.16,10.49c3.3,3.31,7.03,5.85,10.49,7.16c1.73,0.66,3.34,0.99,4.78,0.99
					C267.6,158.14,269.27,157.52,270.49,156.3z M254.85,181.42c2.11-2.11,2.42-5.54,0.86-9.65c-1.31-3.46-3.86-7.19-7.16-10.49
					c-3.31-3.3-7.03-5.85-10.49-7.16c-4.11-1.56-7.54-1.26-9.65,0.86c-2.12,2.11-2.42,5.54-0.86,9.65
					c1.31,3.46,3.86,7.18,7.16,10.49c3.3,3.3,7.03,5.84,10.49,7.16c1.73,0.66,3.34,0.98,4.78,0.98
					C251.96,183.26,253.63,182.64,254.85,181.42z M252.03,119.02c3.95-3.94,1.24-12.6-6.3-20.14c-3.3-3.3-7.03-5.84-10.49-7.16
					c-4.11-1.56-7.54-1.25-9.65,0.86c-2.12,2.11-2.42,5.54-0.86,9.65c1.31,3.46,3.86,7.19,7.16,10.49
					c3.31,3.31,7.03,5.85,10.49,7.16c1.73,0.66,3.34,0.99,4.78,0.99C249.15,120.87,250.81,120.25,252.03,119.02z"/>
				<path d="M284.53,173.57l-2.2,4.49c-0.19-0.09-0.38-0.18-0.57-0.26c-0.27-1.83-0.56-3.66-0.86-5.49
					C282.08,172.55,283.31,172.97,284.53,173.57z"/>
				<path d="M283.93,195.41c0.08,0.81,0.16,1.62,0.23,2.43c-5.06-3.5-10.43-9.09-12.36-15.79c-1.39-4.85,0.5-7.34,1.75-8.39
					c1.8-1.51,4.45-1.97,7.35-1.35c0.3,1.83,0.59,3.66,0.86,5.49c-2.32-0.98-4.27-0.92-5-0.3c-0.78,0.65-0.36,2.43-0.15,3.17
					c1,3.47,3.49,7.13,6.83,10.22C283.61,192.39,283.78,193.9,283.93,195.41z"/>
				<path class="st6" d="M281.76,177.8c0.64,4.35,1.2,8.71,1.68,13.09c-3.34-3.09-5.83-6.75-6.83-10.22
					c-0.21-0.74-0.63-2.52,0.15-3.17C277.49,176.88,279.44,176.82,281.76,177.8z"/>
				<path d="M269.01,198.86c7.54,7.54,10.25,16.2,6.3,20.14c-1.22,1.22-2.89,1.81-4.84,1.81c-4.35,0-10.09-2.91-15.3-8.11
					c-7.54-7.54-10.25-16.2-6.3-20.14C252.81,188.61,261.47,191.32,269.01,198.86z M271.78,215.47c1.19-1.2-0.3-7.07-6.31-13.08
					c-4.76-4.76-9.43-6.68-11.76-6.68c-0.61,0-1.06,0.13-1.31,0.38c-1.19,1.19,0.3,7.06,6.31,13.07
					C264.72,215.17,270.58,216.66,271.78,215.47z"/>
				<path class="st6" d="M265.47,202.39c6.01,6.01,7.5,11.88,6.31,13.08c-1.2,1.19-7.06-0.3-13.07-6.31
					c-6.01-6.01-7.5-11.88-6.31-13.07c0.25-0.25,0.7-0.38,1.31-0.38C256.04,195.71,260.71,197.63,265.47,202.39z"/>
				<path d="M271.35,146.64c1.56,4.11,1.25,7.54-0.86,9.66c-1.22,1.22-2.89,1.84-4.87,1.84c-1.44,0-3.05-0.33-4.78-0.99
					c-3.46-1.31-7.19-3.85-10.49-7.16c-3.31-3.3-5.85-7.03-7.16-10.49c-1.56-4.11-1.26-7.54,0.85-9.65
					c2.12-2.11,5.55-2.42,9.66-0.86c3.46,1.32,7.18,3.86,10.49,7.16C267.49,139.46,270.03,143.18,271.35,146.64z M266.95,152.76
					c0.5-0.49,0.6-2.03-0.28-4.34c-1.05-2.78-3.25-5.96-6.02-8.73c-2.77-2.78-5.96-4.97-8.73-6.02c-1.23-0.47-2.24-0.66-3-0.66
					c-0.65,0-1.11,0.14-1.34,0.37c-0.49,0.5-0.6,2.03,0.28,4.35c0.52,1.38,1.34,2.87,2.36,4.36c1.03,1.49,2.28,2.98,3.66,4.37
					c2.78,2.77,5.96,4.96,8.73,6.02C264.93,153.36,266.46,153.25,266.95,152.76z"/>
				<path class="st6" d="M266.67,148.42c0.88,2.31,0.78,3.85,0.28,4.34c-0.49,0.49-2.02,0.6-4.34-0.28
					c-2.77-1.06-5.95-3.25-8.73-6.02c-1.38-1.39-2.63-2.88-3.66-4.37c-1.02-1.49-1.84-2.98-2.36-4.36
					c-0.88-2.32-0.77-3.85-0.28-4.35c0.23-0.23,0.69-0.37,1.34-0.37c0.76,0,1.77,0.19,3,0.66c2.77,1.05,5.96,3.24,8.73,6.02
					C263.42,142.46,265.62,145.64,266.67,148.42z"/>
				<path d="M255.71,171.77c1.56,4.11,1.25,7.54-0.86,9.65c-1.22,1.22-2.89,1.84-4.87,1.84c-1.44,0-3.05-0.32-4.78-0.98
					c-3.46-1.32-7.19-3.86-10.49-7.16c-3.3-3.31-5.85-7.03-7.16-10.49c-1.56-4.11-1.26-7.54,0.86-9.65
					c2.11-2.12,5.54-2.42,9.65-0.86c3.46,1.31,7.18,3.86,10.49,7.16C251.85,164.58,254.4,168.31,255.71,171.77z M251.32,177.89
					c0.49-0.5,0.59-2.03-0.28-4.35c-1.06-2.77-3.25-5.95-6.03-8.72c-2.77-2.78-5.95-4.97-8.73-6.03c-1.23-0.47-2.24-0.65-2.99-0.65
					c-0.66,0-1.12,0.14-1.35,0.37c-1.19,1.19,0.3,7.06,6.31,13.07c2.77,2.78,5.95,4.97,8.72,6.02
					C249.29,178.48,250.82,178.38,251.32,177.89z"/>
				<path d="M245.73,98.88c7.54,7.54,10.25,16.2,6.3,20.14c-1.22,1.23-2.88,1.85-4.87,1.85c-1.44,0-3.05-0.33-4.78-0.99
					c-3.46-1.31-7.18-3.85-10.49-7.16c-3.3-3.3-5.85-7.03-7.16-10.49c-1.56-4.11-1.26-7.54,0.86-9.65c2.11-2.11,5.54-2.42,9.65-0.86
					C238.7,93.04,242.43,95.58,245.73,98.88z M248.5,115.49c1.19-1.19-0.3-7.06-6.3-13.07c-4.77-4.76-9.44-6.69-11.77-6.69
					c-0.61,0-1.06,0.14-1.31,0.38c-0.49,0.5-0.59,2.03,0.29,4.35c0.53,1.39,1.33,2.87,2.36,4.36s2.27,2.98,3.66,4.37
					C241.44,115.19,247.3,116.68,248.5,115.49z"/>
				<path class="st6" d="M251.04,173.54c0.87,2.32,0.77,3.85,0.28,4.35c-0.5,0.49-2.03,0.59-4.35-0.29
					c-2.77-1.05-5.95-3.24-8.72-6.02c-6.01-6.01-7.5-11.88-6.31-13.07c0.23-0.23,0.69-0.37,1.35-0.37c0.75,0,1.76,0.18,2.99,0.65
					c2.78,1.06,5.96,3.25,8.73,6.03C247.79,167.59,249.98,170.77,251.04,173.54z"/>
				<path class="st6" d="M242.2,102.42c6,6.01,7.49,11.88,6.3,13.07c-1.2,1.19-7.06-0.3-13.07-6.3c-1.39-1.39-2.63-2.88-3.66-4.37
					s-1.83-2.97-2.36-4.36c-0.88-2.32-0.78-3.85-0.29-4.35c0.25-0.24,0.7-0.38,1.31-0.38C232.76,95.73,237.43,97.66,242.2,102.42z"
					/>
				<path d="M246.36,230.02l0.92,0.65c-2.92,4.13-6.87,7.61-11.5,10.12c-2.66,1.41-5.54,2.44-8.52,3.13
					c-2.98,0.67-6.06,0.88-9.09,0.77c-6.1-0.24-11.97-2.05-17.18-4.78c-4.13-2.21-7.95-4.99-11.08-8.4l1.44-1.05
					c3.95,1.7,7.85,3.18,11.76,4.39c5.12,1.57,10.25,2.66,15.36,2.85c0.64,0.05,1.27,0.05,1.91,0.04c0.64,0,1.28,0.02,1.91-0.04
					c0.63-0.04,1.27-0.04,1.9-0.11c0.64-0.07,1.27-0.15,1.9-0.2c2.53-0.35,5.04-0.9,7.54-1.67
					C237.91,234.38,242.08,232.36,246.36,230.02z"/>
				<path d="M244.79,86.35c-0.43-0.19-0.86-0.37-1.29-0.54c-3.97-1.6-8.15-2.46-12.3-2.74c-2.07-0.14-4.17-0.08-6.2,0.16
					c-1,0.11-2.04,0.22-3.05,0.47c-0.5,0.12-1,0.29-1.47,0.49c-0.47,0.2-0.96,0.48-1.23,0.91h-0.02c-0.12-0.76-0.26-1.53-0.4-2.29
					c-0.14,0.73-0.27,1.47-0.39,2.2c-0.41-0.3-0.86-0.57-1.36-0.76c-0.5-0.2-1.07-0.24-1.56-0.3c-1.01-0.12-2.03-0.25-3.07-0.35
					c-2.09-0.2-4.2-0.17-6.31,0.02c-4.19,0.4-8.39,1.32-12.41,2.91c-0.85,0.33-1.7,0.7-2.53,1.09c0.53-0.63,1.05-1.27,1.58-1.89
					c2.56-2.94,5.19-5.76,7.96-8.31c2.76-2.54,5.67-4.83,8.71-6.52c3.05-1.69,6.21-2.78,9.33-2.83c3.11-0.12,6.22,0.77,9.21,2.39
					c3.01,1.62,5.82,3.95,8.52,6.54C239.42,79.86,242.12,83.03,244.79,86.35z"/>
				<path class="st7" d="M242.13,226.84c1.37,1.11,2.79,2.16,4.23,3.18c-4.28,2.34-8.45,4.36-12.73,5.7
					c-2.5,0.77-5.01,1.32-7.54,1.67c-0.63,0.05-1.26,0.13-1.9,0.2c-0.63,0.07-1.27,0.07-1.9,0.11c-0.63,0.06-1.27,0.04-1.91,0.04
					c-0.64,0.01-1.27,0.01-1.91-0.04c-5.11-0.19-10.24-1.28-15.36-2.85c-3.91-1.21-7.81-2.69-11.76-4.39
					c1.6-1.2,3.17-2.45,4.69-3.76l2.38-2.14l2.31-2.23l2.27-2.28c0.73-0.79,1.45-1.6,2.09-2.46c2.5-3.51,4.64-7.27,6.39-11.17
					c3.34-7.45,5-15.48,5.06-23.36c0-0.01,0-0.03,0-0.04c0.42-0.21,0.78-0.43,1.1-0.62c0.35,2.43,0.74,4.86,1.19,7.29
					c0.45-2.41,0.83-4.83,1.18-7.24c0.09,0.06,0.17,0.11,0.26,0.18c0.18,0.12,0.36,0.25,0.57,0.38c0,0.01,0,0.02,0,0.03
					c0.01,7.97,1.72,16.12,5.2,23.63c1.82,3.92,4.02,7.72,6.65,11.21c0.7,0.84,1.46,1.62,2.22,2.4c0.79,0.75,1.57,1.51,2.34,2.27
					l2.4,2.2L242.13,226.84z"/>
				<path d="M221.97,109.53c0.59,8.91,0.86,17.82,0.86,26.72c-0.01,8.91-0.28,17.82-0.87,26.72c-0.4,5.84-0.91,11.67-1.68,17.5
					c0.23,0.22,0.38,0.46,0.54,0.7c0.15,0.31,0.24,0.65,0.31,0.97c0.01,0.3,0.02,0.6-0.03,0.9h-0.26c0-0.01,0-0.02,0-0.03
					c-0.21-0.13-0.39-0.26-0.57-0.38c-0.09-0.07-0.17-0.12-0.26-0.18c-0.35,2.41-0.73,4.83-1.18,7.24
					c-0.45-2.43-0.84-4.86-1.19-7.29c-0.32,0.19-0.68,0.41-1.1,0.62c0,0.01,0,0.03,0,0.04l-0.25-0.01c-0.07-0.67,0.1-1.28,0.42-1.84
					c0.16-0.26,0.38-0.53,0.67-0.77c-0.77-5.82-1.28-11.64-1.68-17.47c-0.59-8.9-0.86-17.81-0.87-26.72
					c-0.01-8.9,0.27-17.81,0.85-26.72c0.57-8.17,1.34-16.34,2.76-24.52c0.12-0.73,0.25-1.47,0.39-2.2c0.14,0.76,0.28,1.53,0.4,2.29
					C220.65,93.25,221.41,101.39,221.97,109.53z"/>
				<path class="st5" d="M216.99,84.59c0.49,0.07,0.98,0.22,1.45,0.42c-1.42,8.18-2.19,16.35-2.76,24.52
					c-0.58,8.91-0.86,17.82-0.85,26.72c0.01,8.91,0.28,17.82,0.87,26.72c0.4,5.83,0.91,11.65,1.68,17.47
					c-0.29,0.24-0.51,0.51-0.67,0.77c-0.32,0.56-0.49,1.17-0.42,1.84c-1.84,7.62-4.93,14.75-9.16,20.96
					c-2.2,3.27-4.74,6.28-7.48,9.05c-0.68,0.7-1.32,1.42-1.93,2.17c-0.64,0.74-1.3,1.45-1.96,2.17l-2.11,2.04l-2.18,1.96
					c-5.94,5.11-12.67,9.37-19.78,12.92c-5.8,2.89-11.87,5.31-18.07,7.33l-0.08-1.6c-0.11-2.01-0.15-4.04-0.23-6.06
					c-0.11-4.04-0.18-8.08-0.17-12.13c0.02-8.08,0.21-16.18,0.73-24.24l0.07-1.02c4.87-3.52,9.86-8.92,11.7-15.33
					c1.4-4.85-0.49-7.34-1.74-8.39c-1.84-1.54-4.54-1.98-7.49-1.33c0.19-1.34,0.43-2.67,0.64-4.01l0.96-5.96
					c0.36-1.97,0.8-3.93,1.19-5.9c0.43-1.96,0.76-3.95,1.27-5.88c1.93-7.77,4.2-15.45,7.14-22.82c3-7.33,6.69-14.35,11.42-20.5
					c1.18-1.53,2.42-3,3.74-4.4c1.3-1.42,2.81-2.59,4.13-3.97c2.66-2.75,5.65-5.19,8.97-7.21c3.31-1.99,6.92-3.64,10.74-4.76
					c1.9-0.53,3.87-0.97,5.85-1.21c1.01-0.12,2.03-0.2,3.05-0.29C216.04,84.59,216.5,84.51,216.99,84.59z M213.66,96.64
					c0-1.95-0.58-3.62-1.8-4.84c-2.12-2.12-5.54-2.42-9.65-0.86c-3.46,1.31-7.19,3.86-10.49,7.16c-3.31,3.31-5.85,7.03-7.16,10.49
					c-1.57,4.11-1.26,7.54,0.85,9.65c1.23,1.23,2.89,1.84,4.87,1.84c1.44,0,3.05-0.32,4.78-0.98c3.46-1.31,7.19-3.86,10.49-7.16
					C210.76,106.73,213.66,100.99,213.66,96.64z M209.9,163.85c1.56-4.12,1.25-7.54-0.86-9.66c-3.94-3.94-12.6-1.23-20.14,6.31
					c-3.31,3.3-5.85,7.03-7.16,10.49c-1.56,4.11-1.26,7.54,0.85,9.65c1.23,1.22,2.89,1.84,4.87,1.84c1.45,0,3.06-0.33,4.79-0.98
					c3.46-1.32,7.18-3.86,10.49-7.17C206.04,171.03,208.58,167.31,209.9,163.85z M187.1,149.21c7.54-7.54,10.25-16.2,6.3-20.14
					c-2.11-2.12-5.54-2.42-9.65-0.86c-3.46,1.31-7.19,3.86-10.49,7.16c-3.3,3.31-5.85,7.03-7.16,10.49
					c-1.56,4.11-1.26,7.54,0.86,9.65c1.22,1.23,2.88,1.84,4.87,1.84c1.44,0,3.05-0.32,4.78-0.98
					C180.07,155.06,183.79,152.51,187.1,149.21z M190.38,196.62c0-1.95-0.58-3.63-1.8-4.85c-3.94-3.94-12.6-1.23-20.14,6.31
					c-3.31,3.3-5.85,7.03-7.16,10.49c-1.56,4.11-1.26,7.53,0.85,9.65c1.22,1.22,2.9,1.8,4.85,1.8c4.35,0,10.09-2.9,15.3-8.11
					C187.48,206.71,190.38,200.97,190.38,196.62z"/>
				<path d="M216.54,183.06c-0.06,7.88-1.72,15.91-5.06,23.36c-1.75,3.9-3.89,7.66-6.39,11.17c-0.64,0.86-1.36,1.67-2.09,2.46
					l-2.27,2.28l-2.31,2.23l-2.38,2.14c-1.52,1.31-3.09,2.56-4.69,3.76l-1.44,1.05c-4.79,3.46-9.86,6.46-15.1,9.07
					c-7.53,3.76-15.39,6.73-23.41,9.09c-0.01,0-0.02,0-0.03,0.01l-1.99-6.71c-1.52,1.74-2.22,2.6-2.52,3l-0.01-0.08l-0.06-0.87
					l-0.09-1.55l-0.15-3.1c-0.11-2.06-0.16-4.11-0.24-6.17c-0.11-4.11-0.18-8.22-0.17-12.34c0.02-8.22,0.22-16.45,0.74-24.66
					l0.2-3.09l1.4,0.09l2.51,4.32c0.96-0.56,1.95-1.2,2.95-1.92l-0.07,1.02c-0.52,8.06-0.71,16.16-0.73,24.24
					c-0.01,4.05,0.06,8.09,0.17,12.13c0.08,2.02,0.12,4.05,0.23,6.06l0.08,1.6c6.2-2.02,12.27-4.44,18.07-7.33
					c7.11-3.55,13.84-7.81,19.78-12.92l2.18-1.96l2.11-2.04c0.66-0.72,1.32-1.43,1.96-2.17c0.61-0.75,1.25-1.47,1.93-2.17
					c2.74-2.77,5.28-5.78,7.48-9.05c4.23-6.21,7.32-13.34,9.16-20.96L216.54,183.06z"/>
				<path d="M211.86,91.8c1.22,1.22,1.8,2.89,1.8,4.84c0,4.35-2.9,10.09-8.11,15.3c-3.3,3.3-7.03,5.85-10.49,7.16
					c-1.73,0.66-3.34,0.98-4.78,0.98c-1.98,0-3.64-0.61-4.87-1.84c-2.11-2.11-2.42-5.54-0.85-9.65c1.31-3.46,3.85-7.18,7.16-10.49
					c3.3-3.3,7.03-5.85,10.49-7.16C206.32,89.38,209.74,89.68,211.86,91.8z M202.02,108.4c6.01-6.01,7.5-11.88,6.3-13.07
					c-0.25-0.25-0.7-0.38-1.3-0.38c-2.33,0-7.01,1.92-11.77,6.69c-2.77,2.77-4.97,5.95-6.02,8.72c-0.88,2.32-0.78,3.85-0.28,4.35
					c0.49,0.49,2.02,0.59,4.34-0.29C196.06,113.37,199.24,111.18,202.02,108.4z"/>
				<path d="M209.04,154.19c2.11,2.12,2.42,5.54,0.86,9.66c-1.32,3.46-3.86,7.18-7.16,10.48c-3.31,3.31-7.03,5.85-10.49,7.17
					c-1.73,0.65-3.34,0.98-4.79,0.98c-1.98,0-3.64-0.62-4.87-1.84c-2.11-2.11-2.41-5.54-0.85-9.65c1.31-3.46,3.85-7.19,7.16-10.49
					C196.44,152.96,205.1,150.25,209.04,154.19z M199.2,170.8c6.01-6.01,7.5-11.88,6.3-13.07c-0.24-0.25-0.69-0.38-1.3-0.38
					c-2.33,0-7,1.92-11.77,6.68c-2.77,2.78-4.97,5.96-6.02,8.73c-0.88,2.32-0.77,3.85-0.28,4.34c0.49,0.5,2.03,0.6,4.34-0.28
					C193.24,175.77,196.43,173.57,199.2,170.8z"/>
				<path class="st6" d="M208.32,95.33c1.2,1.19-0.29,7.06-6.3,13.07c-2.78,2.78-5.96,4.97-8.73,6.02
					c-2.32,0.88-3.85,0.78-4.34,0.29c-0.5-0.5-0.6-2.03,0.28-4.35c1.05-2.77,3.25-5.95,6.02-8.72c4.76-4.77,9.44-6.69,11.77-6.69
					C207.62,94.95,208.07,95.08,208.32,95.33z"/>
				<path class="st6" d="M205.5,157.73c1.2,1.19-0.29,7.06-6.3,13.07c-2.77,2.77-5.96,4.97-8.73,6.02
					c-2.31,0.88-3.85,0.78-4.34,0.28c-0.49-0.49-0.6-2.02,0.28-4.34c1.05-2.77,3.25-5.95,6.02-8.73c4.77-4.76,9.44-6.68,11.77-6.68
					C204.81,157.35,205.26,157.48,205.5,157.73z"/>
				<path d="M193.4,129.07c3.95,3.94,1.24,12.6-6.3,20.14c-3.31,3.3-7.03,5.85-10.49,7.16c-1.73,0.66-3.34,0.98-4.78,0.98
					c-1.99,0-3.65-0.61-4.87-1.84c-2.12-2.11-2.42-5.54-0.86-9.65c1.31-3.46,3.86-7.18,7.16-10.49c3.3-3.3,7.03-5.85,10.49-7.16
					C187.86,126.65,191.29,126.95,193.4,129.07z M183.56,145.67c6.01-6.01,7.5-11.88,6.31-13.07c-0.25-0.25-0.7-0.38-1.31-0.38
					c-2.33,0-7,1.92-11.76,6.69c-2.78,2.77-4.97,5.95-6.03,8.72c-0.87,2.32-0.77,3.85-0.28,4.35c0.5,0.49,2.03,0.6,4.34-0.29
					c1.39-0.52,2.88-1.34,4.37-2.36C180.69,148.3,182.18,147.06,183.56,145.67z"/>
				<path class="st6" d="M189.87,132.6c1.19,1.19-0.3,7.06-6.31,13.07c-1.38,1.39-2.87,2.63-4.36,3.66
					c-1.49,1.02-2.98,1.84-4.37,2.36c-2.31,0.89-3.84,0.78-4.34,0.29c-0.49-0.5-0.59-2.03,0.28-4.35c1.06-2.77,3.25-5.95,6.03-8.72
					c4.76-4.77,9.43-6.69,11.76-6.69C189.17,132.22,189.62,132.35,189.87,132.6z"/>
				<path d="M188.58,191.77c1.22,1.22,1.8,2.9,1.8,4.85c0,4.35-2.9,10.09-8.1,15.29c-5.21,5.21-10.95,8.11-15.3,8.11
					c-1.95,0-3.63-0.58-4.85-1.8c-2.11-2.12-2.41-5.54-0.85-9.65c1.31-3.46,3.85-7.19,7.16-10.49
					C175.98,190.54,184.64,187.83,188.58,191.77z M178.74,208.38c6.01-6.01,7.5-11.88,6.3-13.07c-0.24-0.25-0.69-0.38-1.3-0.38
					c-2.33,0-7.01,1.92-11.77,6.68c-2.77,2.78-4.97,5.96-6.02,8.73c-0.88,2.32-0.77,3.85-0.28,4.34
					C166.86,215.87,172.73,214.39,178.74,208.38z"/>
				<path class="st6" d="M185.04,195.31c1.2,1.19-0.29,7.06-6.3,13.07c-6.01,6.01-11.88,7.49-13.07,6.3
					c-0.49-0.49-0.6-2.02,0.28-4.34c1.05-2.77,3.25-5.95,6.02-8.73c4.76-4.76,9.44-6.68,11.77-6.68
					C184.35,194.93,184.8,195.06,185.04,195.31z"/>
				<path d="M163.9,172.88c1.25,1.05,3.14,3.54,1.74,8.39c-1.84,6.41-6.83,11.81-11.7,15.33l0.32-5.03l0.17-1.87
					c3.12-3,5.45-6.49,6.41-9.81c0.21-0.74,0.62-2.53-0.15-3.18c-0.73-0.61-2.66-0.68-4.96,0.29c0.15-1.16,0.29-2.32,0.43-3.48
					c0.07-0.66,0.15-1.32,0.25-1.97C159.36,170.9,162.06,171.34,163.9,172.88z"/>
				<path class="st6" d="M160.69,176.71c0.77,0.65,0.36,2.44,0.15,3.18c-0.96,3.32-3.29,6.81-6.41,9.81l0.37-4.16
					c0.22-2.86,0.58-5.7,0.93-8.54C158.03,176.03,159.96,176.1,160.69,176.71z"/>
				<path d="M156.41,171.55c-0.1,0.65-0.18,1.31-0.25,1.97c-0.14,1.16-0.28,2.32-0.43,3.48c-0.2,0.08-0.4,0.18-0.61,0.28l-2.21-4.49
					C154.09,172.21,155.27,171.8,156.41,171.55z"/>
				<path d="M154.43,189.7l-0.17,1.87l-0.32,5.03c-1,0.72-1.99,1.36-2.95,1.92l-2.51-4.32C150.65,192.94,152.66,191.4,154.43,189.7z
					"/>
				<path d="M146.88,246.16c0.19-0.15,0.41-0.33,0.01,0.11v-0.04L146.88,246.16z"/>
				<path d="M146.86,245.97l0.02,0.19C146.7,246.3,146.55,246.39,146.86,245.97z"/>
			</g>
			<g>
			</g>
		</g>
	</g>
</g>
</svg>
